<svg width="301" height="336" viewBox="0 0 301 336" fill="none" xmlns="http://www.w3.org/2000/svg">
<path d="M52.0072 112.931C53.5755 111.822 55.1007 110.638 56.7301 109.626C57.9 108.902 59.1812 108.335 60.466 107.818C66.4271 105.421 66.5814 105.425 66.1507 99.1566C65.7667 93.5592 64.3527 88.4894 58.3235 86.0459C55.4776 84.8906 55.535 84.46 55.6606 80.3553C57.5483 79.8781 59.5652 79.4762 61.5068 78.8448C63.5632 78.1738 63.574 77.0938 62.4614 75.1993C56.7624 65.483 56.1594 55.2463 60.5845 44.9666C62.2246 41.1597 65.8206 39.172 70.0733 38.5728C78.988 37.3134 87.8739 35.8818 96.7921 34.6367C105.818 33.3773 114.873 32.3224 123.898 31.063C130.15 30.1911 136.37 29.0824 142.611 28.1532C146.372 27.5934 150.158 27.2023 153.926 26.6928C160.996 25.7348 168.059 24.1166 175.143 24.0018C179.59 23.93 184.101 26.0111 188.537 27.2848C201.503 31.0092 214.462 34.7515 227.386 38.6087C233.232 40.3524 238.988 42.3904 244.784 44.2957C244.867 44.7836 244.949 45.268 245.032 45.756C243.13 47.2199 241.429 49.2041 239.279 50.0293C236.013 51.2851 235.12 54.0515 234.492 56.6708C233.716 59.8964 233.839 63.3445 233.659 66.6993C233.537 69.0387 234.675 70.2299 237.054 70.7466C240.901 71.5826 244.461 73.1613 248 76.491C245.028 77.3091 242.742 77.8903 240.489 78.5685C238.447 79.1856 237.758 80.4055 239.107 82.3144C242.391 86.9537 242.294 92.3178 241.705 97.4881C241.228 101.661 239.803 105.787 238.328 109.759C237.592 111.74 235.798 113.326 234.323 115.303C234.743 115.626 235.267 115.974 235.73 116.393C236.645 117.219 238.199 118.281 238.267 118.851C238.281 120.703 236.509 122.048 235.238 122.371C230.146 123.666 228.628 127.495 228.129 131.861C227.755 135.134 228.068 138.499 228.308 141.807C228.358 142.489 229.335 143.361 230.081 143.684C233.297 145.073 236.602 146.246 239.828 147.613C240.381 147.846 240.987 148.614 241.034 149.177C241.07 149.608 240.334 150.397 239.81 150.533C233.411 152.202 226.991 153.788 220.567 155.37C217.585 156.106 214.584 156.752 211.602 157.487C205.318 159.041 199.052 160.659 192.764 162.191C186.986 163.597 181.173 164.846 175.409 166.306C165.217 168.89 155.11 171.836 144.854 174.128C139.406 175.345 133.818 177.045 128.094 175.154C119.05 172.166 109.985 169.252 100.955 166.224C90.5547 162.736 80.1794 159.17 69.8006 155.614C67.0228 154.663 64.1446 153.895 61.5319 152.597C55.7719 149.73 53.0731 144.678 52.7788 138.442C52.5311 133.228 52.6352 127.99 52.8398 122.769C53.2058 120.078 53.4894 119.662 54.0923 118.27C55.6247 114.743 55.9908 115.008 52.5132 113.954C52.3409 113.609 52.1723 113.268 52 112.924L52.0072 112.931ZM134.252 166.181C134.252 158.653 134.13 151.969 134.324 145.291C134.385 143.117 133.509 142.317 131.701 141.786C127.43 140.534 123.152 139.289 118.932 137.886C112.016 135.586 105.165 133.103 98.2492 130.803C88.0426 127.405 77.8001 124.111 67.5791 120.753C62.6624 119.138 58.668 121.435 58.3809 126.648C58.1405 130.99 58.406 135.428 59.0807 139.726C59.698 143.68 61.9733 146.694 66.2225 147.81C76.483 150.501 86.7362 153.232 96.9608 156.059C104.871 158.244 112.719 160.659 120.629 162.851C124.853 164.024 129.149 164.943 134.256 166.181H134.252ZM159.873 128.926C161.585 128.675 162.927 128.636 164.169 128.27C172.767 125.74 181.298 122.974 189.94 120.602C202.307 117.204 214.771 114.147 227.149 110.785C230.149 109.971 232.593 108.345 233.874 105.037C235.68 100.376 236.067 95.6188 235.328 90.861C234.398 84.8798 231.509 82.7126 226.894 84.0115C222.175 85.3391 217.517 86.8855 212.844 88.3638C202.67 91.5858 192.477 94.7576 182.339 98.0837C175.43 100.351 168.561 102.752 161.768 105.328C160.562 105.784 158.954 107.405 158.965 108.471C159.037 115.174 159.514 121.872 159.873 128.923V128.926ZM140.454 71.7979C140.307 70.6856 139.391 69.1176 138.444 68.7588C132.58 66.5378 126.633 64.5142 120.661 62.5874C111.384 59.595 102.068 56.7282 92.769 53.8147C85.8677 51.6547 78.9808 49.4517 72.0543 47.3742C68.2215 46.226 66.847 46.9831 65.4043 50.503C63.251 55.7558 64.1123 61.0769 65.0095 66.3907C65.8098 71.1341 69.1223 73.5273 73.393 74.7185C81.9595 77.1082 90.5763 79.3076 99.1535 81.6542C106.557 83.6778 113.932 85.8199 121.332 87.8579C126.26 89.2141 131.274 90.287 136.133 91.8513C139.176 92.8309 140.016 92.6551 140.116 89.4904C140.231 85.9777 140.759 74.148 140.45 71.8015L140.454 71.7979ZM138.286 166.446C145.536 164.433 151.995 162.55 158.506 160.853C167.549 158.499 176.608 156.203 185.698 154.039C192.097 152.518 198.575 151.312 204.992 149.863C209.905 148.754 214.753 147.34 219.688 146.343C223.18 145.636 224.386 143.942 224.17 140.333C223.923 136.203 224.511 132.03 224.547 127.875C224.551 127.258 223.506 126.095 222.968 126.103C221.102 126.138 219.228 126.512 217.384 126.885C208.946 128.593 200.534 130.419 192.083 132.059C185.476 133.34 178.793 134.262 172.208 135.632C168.149 136.476 164.255 138.105 160.196 138.951C153.915 140.257 147.578 141.345 141.222 142.213C138.605 142.572 138.2 144.01 138.207 146.063C138.218 149.694 138.268 153.325 138.286 156.956C138.3 159.758 138.286 162.557 138.286 166.443V166.446ZM68.8926 88.8553C69.3555 95.7659 69.7898 102.188 70.2312 108.783C98.5973 114.646 126.475 123.519 155.118 129.156C155.118 121.632 155.197 114.743 154.999 107.858C154.978 107.165 153.381 106.153 152.372 105.92C147.524 104.801 142.6 104.004 137.748 102.888C131.166 101.37 124.659 99.5082 118.056 98.0945C112.673 96.9427 107.178 96.3292 101.766 95.2958C97.7216 94.5244 93.738 93.4157 89.7078 92.5546C86.5891 91.8908 83.4381 91.3598 80.2979 90.8036C76.5296 90.1399 72.7578 89.512 68.8962 88.8518L68.8926 88.8553ZM144.706 92.5833C156.119 89.7021 167.094 86.8676 178.1 84.173C186.631 82.0847 195.219 80.2261 203.753 78.1594C211.864 76.1932 219.961 74.1516 228.007 71.9414C228.76 71.7333 229.467 70.1043 229.582 69.0638C230.099 64.507 230.314 59.9143 230.799 55.3504C230.993 53.5241 230.914 52.3795 228.62 52.8495C224.96 53.5994 221.292 54.3027 217.617 54.9916C205.932 57.1874 194.218 59.247 182.561 61.5935C169.997 64.1231 157.483 66.911 144.703 69.6415V92.5869L144.706 92.5833Z" fill="#FBA500"/>
<path d="M71.5307 254V253.65C72.4307 253.6 74.5807 253.35 75.5807 253.05C76.4807 252.8 77.2307 251.95 77.2307 250.85V227.2C75.0807 227.4 72.8807 227.55 70.7307 227.6V227.2C73.3307 226.85 74.7307 226.7 78.3307 225.8C81.3307 225.05 83.4307 224.1 84.8807 223.2H85.3807C84.9807 225.45 84.9307 228.1 84.9307 231.1V250.6C84.9307 251.95 85.4807 252.6 86.3807 253C87.1307 253.35 89.3307 253.6 90.1807 253.65V254H71.5307ZM102.166 254.7C96.8662 254.7 92.0162 252.8 92.0162 248.35C92.0162 245.4 94.0162 244 96.0662 244C98.1662 244 99.7162 245.4 99.7162 247.15C99.7162 249.7 98.5662 250.75 97.9162 252.15C98.0662 253.25 100.166 254.25 102.116 254.25C105.716 254.25 108.016 249.1 108.016 243.65C108.016 238.75 106.266 235.7 102.466 235.7C99.7162 235.7 96.3662 237.95 95.0662 240.35L94.3662 240.15L98.1662 223.2H98.7662C99.4662 224 103.766 225.15 107.616 225.15C111.116 225.15 115.016 224.6 117.166 222.9L117.516 223.2C113.516 229.4 107.966 231.1 102.216 231.1C101.066 231.1 97.5662 230.95 97.2662 230.9L95.5162 238.6C96.9162 237.25 99.0662 234.85 104.766 234.85C111.366 234.85 116.416 238 116.416 243.8C116.416 251.1 110.566 254.7 102.166 254.7ZM134.024 254.8C125.024 254.8 120.124 247.7 120.124 239.55C120.124 229.25 127.074 222.95 134.624 222.95C143.674 222.95 148.574 229.95 148.574 238.2C148.574 248.45 141.724 254.8 134.024 254.8ZM134.224 254.25C138.274 254.25 140.174 247.85 140.174 238.85C140.174 230.75 139.074 223.5 134.424 223.5C130.474 223.5 128.524 229.85 128.524 238.9C128.524 247.25 129.624 254.25 134.224 254.25Z" fill="#FBA500"/>
<path d="M172.72 228.76C173.968 229.288 174.768 230.12 174.768 231.816C174.768 233.768 173.152 235.24 170.656 235.24C168.976 235.24 168.064 234.728 167.488 234.408L167.008 235.128H166.464L166.368 231.096H166.784C167.36 232.648 168.688 234.696 170.384 234.696C171.6 234.696 172.384 233.832 172.384 232.76C172.384 231.816 171.824 231.24 170.64 230.824C169.936 230.584 169.088 230.328 168.592 230.12C167.232 229.544 166.624 228.376 166.624 227.032C166.624 225.304 167.984 223.8 170.384 223.8C171.568 223.8 172.624 224.184 173.168 224.52L173.584 223.928H174.144L174.208 227.72H173.792C173.2 226.056 172.32 224.344 170.608 224.344C169.648 224.344 168.928 225.144 168.928 226.12C168.928 227.064 169.456 227.624 170.656 228.056C171.296 228.296 172.208 228.536 172.72 228.76ZM180.548 232.76H180.964C180.932 234.056 180.324 235.208 178.644 235.208C177.172 235.208 176.436 234.344 176.436 232.92V228.312H175.076V227.624H176.468V225.304H178.74V227.624H180.756V228.312H178.74V232.808C178.74 233.448 178.948 234.104 179.668 234.104C180.42 234.104 180.516 233.464 180.548 232.76ZM190.113 234.52V234.84L186.737 235.064L186.625 234.952V233.96H186.577C186.033 234.568 185.425 235.208 184.081 235.208C182.625 235.208 182.033 234.104 182.033 232.6V229.08C182.033 228.744 181.873 228.44 181.617 228.264C181.425 228.136 181.105 228.04 180.817 228.024V227.688L184.273 227.496L184.369 227.608V232.712C184.369 233.752 184.721 234.232 185.265 234.232C186.081 234.232 186.449 233.64 186.609 233.336V229.064C186.609 228.744 186.481 228.456 186.257 228.28C186.097 228.152 185.697 228.056 185.329 228.04V227.688L188.801 227.496L188.913 227.608V233.512C188.913 233.864 189.073 234.12 189.313 234.296C189.505 234.44 189.873 234.504 190.113 234.52ZM194.63 234.312C195.238 234.312 195.494 234.088 195.83 233.656V229.048C195.702 228.568 195.382 227.88 194.598 227.88C193.67 227.88 193.094 229.24 193.094 231.352C193.094 232.872 193.446 234.312 194.63 234.312ZM199.462 234.52V234.84L195.958 235.064L195.846 234.952V234.216L195.782 234.2C195.43 234.568 194.71 235.224 193.734 235.224C191.894 235.224 190.55 233.656 190.55 231.208C190.55 228.968 192.182 227.4 194.022 227.4C194.886 227.4 195.542 227.656 195.83 227.784V224.84C195.83 224.488 195.686 224.088 195.43 223.928C195.142 223.736 194.486 223.608 194.038 223.576V223.256L198.022 223.064L198.134 223.176V233.512C198.134 233.864 198.294 234.104 198.534 234.28C198.71 234.408 199.19 234.504 199.462 234.52ZM206.62 232.808L206.94 233.048C206.348 234.264 205.18 235.24 203.58 235.24C200.956 235.24 199.74 233.48 199.74 231.272C199.74 229.208 201.052 227.4 203.468 227.4C205.916 227.4 206.764 228.92 206.764 230.584V230.808H202.236C202.22 230.808 202.236 230.984 202.236 231C202.236 232.888 202.828 234.28 204.38 234.28C205.356 234.28 206.044 233.928 206.62 232.808ZM202.236 230.36L204.284 230.328C204.284 229.08 204.268 227.816 203.356 227.816C202.62 227.816 202.284 228.744 202.236 230.36ZM216.488 234.664V235H212.248V234.664C212.456 234.648 212.68 234.616 212.84 234.536C213.048 234.424 213.08 234.184 213.08 233.832V229.976C213.08 228.872 212.712 228.424 212.152 228.424C211.336 228.424 210.92 229.032 210.744 229.384V233.752C210.744 234.104 210.808 234.344 211.016 234.472C211.224 234.6 211.416 234.632 211.624 234.664V235H207.352V234.664C207.608 234.648 207.816 234.616 208.024 234.536C208.312 234.424 208.424 234.184 208.424 233.832V229.096C208.424 228.76 208.248 228.408 208.008 228.248C207.816 228.12 207.496 228.024 207.24 228.008V227.688L210.632 227.496L210.744 227.608V228.712H210.776C211.352 228.104 211.896 227.4 213.24 227.4C214.696 227.4 215.432 228.392 215.432 229.912V233.768C215.432 234.12 215.512 234.344 215.8 234.472C216.024 234.568 216.2 234.632 216.488 234.664ZM221.911 232.76H222.327C222.295 234.056 221.687 235.208 220.007 235.208C218.535 235.208 217.799 234.344 217.799 232.92V228.312H216.439V227.624H217.831V225.304H220.103V227.624H222.119V228.312H220.103V232.808C220.103 233.448 220.311 234.104 221.031 234.104C221.783 234.104 221.879 233.464 221.911 232.76ZM226.672 230.312C227.936 230.728 228.816 231.448 228.816 232.76C228.816 234.376 227.472 235.24 225.744 235.24C224.72 235.24 223.872 234.808 223.552 234.552L223.264 235.096H222.784L222.704 232.328H223.024C223.344 233.288 224.32 234.824 225.632 234.824C226.448 234.824 226.832 234.344 226.832 233.592C226.832 232.76 226.096 232.488 225.008 232.12C223.936 231.752 222.912 231.144 222.912 229.656C222.912 228.424 223.968 227.4 225.744 227.4C226.528 227.4 227.232 227.608 227.68 227.832L227.888 227.384H228.352L228.448 229.912H228.144C227.792 228.808 226.88 227.816 225.984 227.816C225.216 227.816 224.912 228.296 224.912 228.888C224.912 229.72 225.424 229.896 226.672 230.312ZM171.968 243.072C174.688 243.072 176.048 243.936 176.048 245.792C176.048 248.192 173.728 249.2 171.28 249.2H170.56V252.592C170.56 252.944 170.688 253.216 171.04 253.376C171.232 253.456 171.904 253.6 172.208 253.632V254H166.192V253.632C166.48 253.616 167.216 253.504 167.408 253.424C167.792 253.28 167.888 252.992 167.888 252.64V244.528C167.888 244.176 167.808 243.904 167.408 243.744C167.104 243.632 166.464 243.472 166.192 243.44V243.072H171.968ZM170.848 248.688C172.592 248.688 173.184 247.632 173.184 246.176C173.184 244.56 172.64 243.552 171.072 243.552H170.56V248.688H170.848ZM182.672 251.808L182.992 252.048C182.4 253.264 181.232 254.24 179.632 254.24C177.008 254.24 175.792 252.48 175.792 250.272C175.792 248.208 177.104 246.4 179.52 246.4C181.968 246.4 182.816 247.92 182.816 249.584V249.808H178.288C178.272 249.808 178.288 249.984 178.288 250C178.288 251.888 178.88 253.28 180.432 253.28C181.408 253.28 182.096 252.928 182.672 251.808ZM178.288 249.36L180.336 249.328C180.336 248.08 180.32 246.816 179.408 246.816C178.672 246.816 178.336 247.744 178.288 249.36ZM188.891 246.432C189.691 246.432 190.283 247.008 190.283 247.888C190.283 248.64 189.787 249.264 189.051 249.264C188.363 249.264 187.867 248.88 187.867 248.224C187.867 247.936 188.011 247.648 188.059 247.456C187.371 247.472 186.923 248 186.795 248.224V252.768C186.795 253.12 186.955 253.36 187.227 253.472C187.483 253.584 188.043 253.648 188.283 253.664V254H183.403V253.664C183.659 253.648 183.867 253.616 184.075 253.536C184.379 253.424 184.475 253.184 184.475 252.832V248.096C184.475 247.792 184.299 247.424 184.059 247.248C183.883 247.12 183.531 247.024 183.259 247.008V246.688L186.683 246.496L186.795 246.608V247.68H186.827C187.467 246.848 188.123 246.432 188.891 246.432ZM201.48 246.608V246.928C201.064 247.008 200.552 247.152 200.28 247.856C199.704 249.312 198.04 253.632 197.768 254.336C196.84 256.672 196.024 257.648 194.712 257.648C194.152 257.648 193.256 257.296 193.256 256.272C193.256 255.696 193.736 255.104 194.44 255.104C194.872 255.104 195.512 255.328 195.512 256.08C195.512 256.192 195.464 256.624 195.448 256.72C196.264 256.48 196.824 255.456 197.24 254.384C196.872 253.6 194.488 248.224 194.264 247.728C194.072 247.312 193.576 247.008 193.128 246.944V246.608H197.512V246.944C197.176 246.96 196.632 247.04 196.632 247.312C196.632 247.36 196.696 247.52 196.744 247.648C196.872 247.968 198.072 250.752 198.376 251.44L198.408 251.392C198.648 250.864 199.336 248.848 199.592 248.224C199.672 247.952 199.736 247.696 199.736 247.52C199.736 247.168 198.824 246.976 198.552 246.928V246.608H201.48ZM208.171 251.808L208.491 252.048C207.899 253.264 206.731 254.24 205.131 254.24C202.507 254.24 201.291 252.48 201.291 250.272C201.291 248.208 202.603 246.4 205.019 246.4C207.467 246.4 208.315 247.92 208.315 249.584V249.808H203.787C203.771 249.808 203.787 249.984 203.787 250C203.787 251.888 204.379 253.28 205.931 253.28C206.907 253.28 207.595 252.928 208.171 251.808ZM203.787 249.36L205.835 249.328C205.835 248.08 205.819 246.816 204.907 246.816C204.171 246.816 203.835 247.744 203.787 249.36ZM213.175 252.624L213.239 249.84C212.135 250.272 211.431 250.624 211.431 251.968C211.431 252.912 211.783 253.232 212.231 253.232C212.775 253.232 212.935 252.992 213.175 252.624ZM216.663 251.872H217.063C217.031 253.216 216.551 254.208 215.111 254.208C214.087 254.208 213.591 253.76 213.271 253.168H213.223C212.695 253.728 212.183 254.24 210.935 254.24C209.847 254.24 208.999 253.472 208.999 252.416C208.999 251.056 209.767 250.64 210.567 250.352C211.527 250 212.823 249.632 213.223 249.328V248.4C213.223 247.856 213.223 246.784 212.311 246.784C211.911 246.784 211.655 246.96 211.527 247.088C211.575 247.344 211.815 247.808 211.815 248.304C211.815 248.656 211.335 249.216 210.503 249.216C209.671 249.216 209.351 248.64 209.351 248.112C209.351 247.12 211.063 246.4 212.439 246.4C214.151 246.4 215.559 246.672 215.559 248.8C215.559 250.256 215.463 251.968 215.463 252.496C215.463 252.752 215.639 253.248 216.039 253.248C216.519 253.248 216.647 252.592 216.663 251.872ZM222.613 246.432C223.413 246.432 224.005 247.008 224.005 247.888C224.005 248.64 223.509 249.264 222.773 249.264C222.085 249.264 221.589 248.88 221.589 248.224C221.589 247.936 221.733 247.648 221.781 247.456C221.093 247.472 220.645 248 220.517 248.224V252.768C220.517 253.12 220.677 253.36 220.949 253.472C221.205 253.584 221.765 253.648 222.005 253.664V254H217.125V253.664C217.381 253.648 217.589 253.616 217.797 253.536C218.101 253.424 218.197 253.184 218.197 252.832V248.096C218.197 247.792 218.021 247.424 217.781 247.248C217.605 247.12 217.253 247.024 216.981 247.008V246.688L220.405 246.496L220.517 246.608V247.68H220.549C221.189 246.848 221.845 246.432 222.613 246.432ZM228.254 249.312C229.518 249.728 230.398 250.448 230.398 251.76C230.398 253.376 229.054 254.24 227.326 254.24C226.302 254.24 225.454 253.808 225.134 253.552L224.846 254.096H224.366L224.286 251.328H224.606C224.926 252.288 225.902 253.824 227.214 253.824C228.03 253.824 228.414 253.344 228.414 252.592C228.414 251.76 227.678 251.488 226.59 251.12C225.518 250.752 224.494 250.144 224.494 248.656C224.494 247.424 225.55 246.4 227.326 246.4C228.11 246.4 228.814 246.608 229.262 246.832L229.47 246.384H229.934L230.03 248.912H229.726C229.374 247.808 228.462 246.816 227.566 246.816C226.798 246.816 226.494 247.296 226.494 247.888C226.494 248.72 227.006 248.896 228.254 249.312Z" fill="#FBA500"/>
<path d="M9.0959 287.175C10.3459 287.175 11.2709 288.075 11.2709 289.45C11.2709 290.625 10.4959 291.6 9.3459 291.6C8.2709 291.6 7.4959 291 7.4959 289.975C7.4959 289.525 7.7209 289.075 7.7959 288.775C6.7209 288.8 6.0209 289.625 5.8209 289.975V297.075C5.8209 297.625 6.0709 298 6.4959 298.175C6.8959 298.35 7.7709 298.45 8.1459 298.475V299H0.520898V298.475C0.920898 298.45 1.2459 298.4 1.5709 298.275C2.0459 298.1 2.1959 297.725 2.1959 297.175V289.775C2.1959 289.3 1.9209 288.725 1.5459 288.45C1.2709 288.25 0.720898 288.1 0.295898 288.075V287.575L5.6459 287.275L5.8209 287.45V289.125H5.8709C6.8709 287.825 7.8959 287.175 9.0959 287.175ZM22.534 295.575L23.034 295.95C22.109 297.85 20.284 299.375 17.784 299.375C13.684 299.375 11.784 296.625 11.784 293.175C11.784 289.95 13.834 287.125 17.609 287.125C21.434 287.125 22.759 289.5 22.759 292.1V292.45H15.684C15.659 292.45 15.684 292.725 15.684 292.75C15.684 295.7 16.609 297.875 19.034 297.875C20.559 297.875 21.634 297.325 22.534 295.575ZM15.684 291.75L18.884 291.7C18.884 289.75 18.859 287.775 17.434 287.775C16.284 287.775 15.759 289.225 15.684 291.75ZM33.9771 295.5L34.5271 295.85C33.7521 297.8 31.9021 299.375 29.6521 299.375C25.6521 299.375 23.7771 296.675 23.7771 293.175C23.7771 290.025 25.9271 287.125 29.8271 287.125C32.6771 287.125 34.0271 288.375 34.0271 290.05C34.0271 291.05 33.3771 291.85 32.1021 291.85C30.9021 291.85 30.1771 291.125 30.1771 290.075C30.1771 289.6 30.6271 288.85 30.7271 288.475C30.6521 288.1 30.4521 287.75 29.8521 287.75C28.6521 287.75 27.7271 289.325 27.7271 292.975C27.7271 295.825 28.9271 297.825 30.6771 297.825C32.3771 297.825 33.2771 297.05 33.9771 295.5ZM45.91 295.575L46.41 295.95C45.485 297.85 43.66 299.375 41.16 299.375C37.06 299.375 35.16 296.625 35.16 293.175C35.16 289.95 37.21 287.125 40.985 287.125C44.81 287.125 46.135 289.5 46.135 292.1V292.45H39.06C39.035 292.45 39.06 292.725 39.06 292.75C39.06 295.7 39.985 297.875 42.41 297.875C43.935 297.875 45.01 297.325 45.91 295.575ZM39.06 291.75L42.26 291.7C42.26 289.75 42.235 287.775 40.81 287.775C39.66 287.775 39.135 289.225 39.06 291.75ZM48.0781 282.65C48.0781 281.4 49.0531 280.5 50.2781 280.5C51.5031 280.5 52.4531 281.425 52.4531 282.65C52.4531 283.875 51.5031 284.8 50.2781 284.8C49.0531 284.8 48.0781 283.875 48.0781 282.65ZM54.1281 298.475V299H47.0281V298.475C47.4531 298.45 47.7781 298.4 48.1031 298.275C48.5531 298.1 48.7531 297.7 48.7531 297.175V289.775C48.7531 289.225 48.5281 288.8 48.1281 288.525C47.8281 288.325 47.1031 288.1 46.6531 288.075V287.575L52.2031 287.275L52.3781 287.45V297.05C52.3781 297.575 52.6031 297.975 53.0531 298.175C53.4031 298.375 53.7281 298.425 54.1281 298.475ZM66.7 287.45V287.95C66.125 288.05 65.225 288.4 64.8 289.4C64.375 290.425 62.675 294.875 62.175 296.075C61.75 297.075 61.45 298.075 61.125 299.15H59.25C58.475 297.15 56.125 291.025 55.375 289.2C55.075 288.475 54.35 288.075 53.65 287.975V287.45H60.5V287.975C59.95 288 59.1 288.15 59.1 288.55C59.1 288.575 59.15 288.8 59.25 289.075C59.425 289.6 61.125 294.275 61.625 295.3L61.675 295.4C62.025 294.6 63.325 290.975 63.7 290C63.825 289.675 63.95 289.075 63.95 288.875C63.925 288.325 62.525 288.025 62.1 287.95V287.45H66.7ZM77.0799 295.575L77.5799 295.95C76.6549 297.85 74.8299 299.375 72.3299 299.375C68.2299 299.375 66.3299 296.625 66.3299 293.175C66.3299 289.95 68.3799 287.125 72.1549 287.125C75.9799 287.125 77.3049 289.5 77.3049 292.1V292.45H70.2299C70.2049 292.45 70.2299 292.725 70.2299 292.75C70.2299 295.7 71.1549 297.875 73.5799 297.875C75.1049 297.875 76.1799 297.325 77.0799 295.575ZM70.2299 291.75L73.4299 291.7C73.4299 289.75 73.4049 287.775 71.9799 287.775C70.8299 287.775 70.3049 289.225 70.2299 291.75ZM84.723 297.925C85.673 297.925 86.073 297.575 86.598 296.9V289.7C86.398 288.95 85.898 287.875 84.673 287.875C83.223 287.875 82.323 290 82.323 293.3C82.323 295.675 82.873 297.925 84.723 297.925ZM92.273 298.25V298.75L86.798 299.1L86.623 298.925V297.775L86.523 297.75C85.973 298.325 84.848 299.35 83.323 299.35C80.448 299.35 78.348 296.9 78.348 293.075C78.348 289.575 80.898 287.125 83.773 287.125C85.123 287.125 86.148 287.525 86.598 287.725V283.125C86.598 282.575 86.373 281.95 85.973 281.7C85.523 281.4 84.498 281.2 83.798 281.15V280.65L90.023 280.35L90.198 280.525V296.675C90.198 297.225 90.448 297.6 90.823 297.875C91.098 298.075 91.848 298.225 92.273 298.25ZM108.64 295.575L109.14 295.95C108.215 297.85 106.39 299.375 103.89 299.375C99.7904 299.375 97.8904 296.625 97.8904 293.175C97.8904 289.95 99.9404 287.125 103.715 287.125C107.54 287.125 108.865 289.5 108.865 292.1V292.45H101.79C101.765 292.45 101.79 292.725 101.79 292.75C101.79 295.7 102.715 297.875 105.14 297.875C106.665 297.875 107.74 297.325 108.64 295.575ZM101.79 291.75L104.99 291.7C104.99 289.75 104.965 287.775 103.54 287.775C102.39 287.775 101.865 289.225 101.79 291.75ZM116.284 297.925C117.234 297.925 117.634 297.575 118.159 296.9V289.7C117.959 288.95 117.459 287.875 116.234 287.875C114.784 287.875 113.884 290 113.884 293.3C113.884 295.675 114.434 297.925 116.284 297.925ZM123.834 298.25V298.75L118.359 299.1L118.184 298.925V297.775L118.084 297.75C117.534 298.325 116.409 299.35 114.884 299.35C112.009 299.35 109.909 296.9 109.909 293.075C109.909 289.575 112.459 287.125 115.334 287.125C116.684 287.125 117.709 287.525 118.159 287.725V283.125C118.159 282.575 117.934 281.95 117.534 281.7C117.084 281.4 116.059 281.2 115.359 281.15V280.65L121.584 280.35L121.759 280.525V296.675C121.759 297.225 122.009 297.6 122.384 297.875C122.659 298.075 123.409 298.225 123.834 298.25ZM138.144 298.25V298.75L132.869 299.1L132.694 298.925V297.375H132.619C131.769 298.325 130.819 299.325 128.719 299.325C126.444 299.325 125.519 297.6 125.519 295.25V289.75C125.519 289.225 125.269 288.75 124.869 288.475C124.569 288.275 124.069 288.125 123.619 288.1V287.575L129.019 287.275L129.169 287.45V295.425C129.169 297.05 129.719 297.8 130.569 297.8C131.844 297.8 132.419 296.875 132.669 296.4V289.725C132.669 289.225 132.469 288.775 132.119 288.5C131.869 288.3 131.244 288.15 130.669 288.125V287.575L136.094 287.275L136.269 287.45V296.675C136.269 297.225 136.519 297.625 136.894 297.9C137.194 298.125 137.769 298.225 138.144 298.25ZM149.002 295.5L149.552 295.85C148.777 297.8 146.927 299.375 144.677 299.375C140.677 299.375 138.802 296.675 138.802 293.175C138.802 290.025 140.952 287.125 144.852 287.125C147.702 287.125 149.052 288.375 149.052 290.05C149.052 291.05 148.402 291.85 147.127 291.85C145.927 291.85 145.202 291.125 145.202 290.075C145.202 289.6 145.652 288.85 145.752 288.475C145.677 288.1 145.477 287.75 144.877 287.75C143.677 287.75 142.752 289.325 142.752 292.975C142.752 295.825 143.952 297.825 145.702 297.825C147.402 297.825 148.302 297.05 149.002 295.5ZM156.759 296.85L156.859 292.5C155.134 293.175 154.034 293.725 154.034 295.825C154.034 297.3 154.584 297.8 155.284 297.8C156.134 297.8 156.384 297.425 156.759 296.85ZM162.209 295.675H162.834C162.784 297.775 162.034 299.325 159.784 299.325C158.184 299.325 157.409 298.625 156.909 297.7H156.834C156.009 298.575 155.209 299.375 153.259 299.375C151.559 299.375 150.234 298.175 150.234 296.525C150.234 294.4 151.434 293.75 152.684 293.3C154.184 292.75 156.209 292.175 156.834 291.7V290.25C156.834 289.4 156.834 287.725 155.409 287.725C154.784 287.725 154.384 288 154.184 288.2C154.259 288.6 154.634 289.325 154.634 290.1C154.634 290.65 153.884 291.525 152.584 291.525C151.284 291.525 150.784 290.625 150.784 289.8C150.784 288.25 153.459 287.125 155.609 287.125C158.284 287.125 160.484 287.55 160.484 290.875C160.484 293.15 160.334 295.825 160.334 296.65C160.334 297.05 160.609 297.825 161.234 297.825C161.984 297.825 162.184 296.8 162.209 295.675ZM170.635 295.5H171.285C171.235 297.525 170.285 299.325 167.66 299.325C165.36 299.325 164.21 297.975 164.21 295.75V288.55H162.085V287.475H164.26V283.85H167.81V287.475H170.96V288.55H167.81V295.575C167.81 296.575 168.135 297.6 169.26 297.6C170.435 297.6 170.585 296.6 170.635 295.5ZM172.63 282.65C172.63 281.4 173.605 280.5 174.83 280.5C176.055 280.5 177.005 281.425 177.005 282.65C177.005 283.875 176.055 284.8 174.83 284.8C173.605 284.8 172.63 283.875 172.63 282.65ZM178.68 298.475V299H171.58V298.475C172.005 298.45 172.33 298.4 172.655 298.275C173.105 298.1 173.305 297.7 173.305 297.175V289.775C173.305 289.225 173.08 288.8 172.68 288.525C172.38 288.325 171.655 288.1 171.205 288.075V287.575L176.755 287.275L176.93 287.45V297.05C176.93 297.575 177.155 297.975 177.605 298.175C177.955 298.375 178.28 298.425 178.68 298.475ZM185.627 287.125C189.527 287.125 191.827 289.65 191.827 293.15C191.827 296.625 189.702 299.375 185.527 299.375C182.152 299.375 179.377 297.05 179.377 293.225C179.377 289.65 181.802 287.125 185.627 287.125ZM185.627 298.725C187.327 298.725 187.802 296.15 187.802 293.125C187.802 290.5 187.502 287.725 185.652 287.725C183.702 287.725 183.427 290.675 183.427 293.075C183.427 296.075 183.852 298.725 185.627 298.725ZM207.156 298.475V299H200.531V298.475C200.856 298.45 201.206 298.4 201.456 298.275C201.781 298.1 201.831 297.725 201.831 297.175V291.15C201.831 289.425 201.256 288.725 200.381 288.725C199.106 288.725 198.456 289.675 198.181 290.225V297.05C198.181 297.6 198.281 297.975 198.606 298.175C198.931 298.375 199.231 298.425 199.556 298.475V299H192.881V298.475C193.281 298.45 193.606 298.4 193.931 298.275C194.381 298.1 194.556 297.725 194.556 297.175V289.775C194.556 289.25 194.281 288.7 193.906 288.45C193.606 288.25 193.106 288.1 192.706 288.075V287.575L198.006 287.275L198.181 287.45V289.175H198.231C199.131 288.225 199.981 287.125 202.081 287.125C204.356 287.125 205.506 288.675 205.506 291.05V297.075C205.506 297.625 205.631 297.975 206.081 298.175C206.431 298.325 206.706 298.425 207.156 298.475ZM219.211 291.675C221.186 292.325 222.561 293.45 222.561 295.5C222.561 298.025 220.461 299.375 217.761 299.375C216.161 299.375 214.836 298.7 214.336 298.3L213.886 299.15H213.136L213.011 294.825H213.511C214.011 296.325 215.536 298.725 217.586 298.725C218.861 298.725 219.461 297.975 219.461 296.8C219.461 295.5 218.311 295.075 216.611 294.5C214.936 293.925 213.336 292.975 213.336 290.65C213.336 288.725 214.986 287.125 217.761 287.125C218.986 287.125 220.086 287.45 220.786 287.8L221.111 287.1H221.836L221.986 291.05H221.511C220.961 289.325 219.536 287.775 218.136 287.775C216.936 287.775 216.461 288.525 216.461 289.45C216.461 290.75 217.261 291.025 219.211 291.675ZM237.489 298.25V298.75L232.214 299.1L232.039 298.925V297.375H231.964C231.114 298.325 230.164 299.325 228.064 299.325C225.789 299.325 224.864 297.6 224.864 295.25V289.75C224.864 289.225 224.614 288.75 224.214 288.475C223.914 288.275 223.414 288.125 222.964 288.1V287.575L228.364 287.275L228.514 287.45V295.425C228.514 297.05 229.064 297.8 229.914 297.8C231.189 297.8 231.764 296.875 232.014 296.4V289.725C232.014 289.225 231.814 288.775 231.464 288.5C231.214 288.3 230.589 288.15 230.014 288.125V287.575L235.439 287.275L235.614 287.45V296.675C235.614 297.225 235.864 297.625 236.239 297.9C236.539 298.125 237.114 298.225 237.489 298.25ZM245.046 298.55C246.446 298.55 247.296 296.6 247.296 293.35C247.296 291.05 246.771 288.6 244.921 288.6C244.021 288.6 243.571 288.95 243.071 289.575V296.75C243.321 297.525 243.796 298.55 245.046 298.55ZM246.396 287.125C249.221 287.125 251.271 289.575 251.271 293.325C251.271 296.775 248.721 299.3 245.871 299.3C244.496 299.3 243.746 298.95 243.171 298.525H243.071V302.55C243.071 303.175 243.321 303.525 243.771 303.7C244.146 303.85 245.146 304.075 245.596 304.125V304.65H237.471V304.125C237.921 304.1 238.546 304 238.846 303.875C239.321 303.7 239.471 303.25 239.471 302.725V289.725C239.471 289.2 239.246 288.75 238.846 288.475C238.546 288.275 237.971 288.1 237.521 288.075V287.575L242.921 287.275L243.096 287.425V288.725L243.196 288.75C243.746 288.125 244.871 287.125 246.396 287.125ZM259.334 298.55C260.734 298.55 261.584 296.6 261.584 293.35C261.584 291.05 261.059 288.6 259.209 288.6C258.309 288.6 257.859 288.95 257.359 289.575V296.75C257.609 297.525 258.084 298.55 259.334 298.55ZM260.684 287.125C263.509 287.125 265.559 289.575 265.559 293.325C265.559 296.775 263.009 299.3 260.159 299.3C258.784 299.3 258.034 298.95 257.459 298.525H257.359V302.55C257.359 303.175 257.609 303.525 258.059 303.7C258.434 303.85 259.434 304.075 259.884 304.125V304.65H251.759V304.125C252.209 304.1 252.834 304 253.134 303.875C253.609 303.7 253.759 303.25 253.759 302.725V289.725C253.759 289.2 253.534 288.75 253.134 288.475C252.834 288.275 252.259 288.1 251.809 288.075V287.575L257.209 287.275L257.384 287.425V288.725L257.484 288.75C258.034 288.125 259.159 287.125 260.684 287.125ZM272.972 287.125C276.872 287.125 279.172 289.65 279.172 293.15C279.172 296.625 277.047 299.375 272.872 299.375C269.497 299.375 266.722 297.05 266.722 293.225C266.722 289.65 269.147 287.125 272.972 287.125ZM272.972 298.725C274.672 298.725 275.147 296.15 275.147 293.125C275.147 290.5 274.847 287.725 272.997 287.725C271.047 287.725 270.772 290.675 270.772 293.075C270.772 296.075 271.197 298.725 272.972 298.725ZM288.802 287.175C290.052 287.175 290.977 288.075 290.977 289.45C290.977 290.625 290.202 291.6 289.052 291.6C287.977 291.6 287.202 291 287.202 289.975C287.202 289.525 287.427 289.075 287.502 288.775C286.427 288.8 285.727 289.625 285.527 289.975V297.075C285.527 297.625 285.777 298 286.202 298.175C286.602 298.35 287.477 298.45 287.852 298.475V299H280.227V298.475C280.627 298.45 280.952 298.4 281.277 298.275C281.752 298.1 281.902 297.725 281.902 297.175V289.775C281.902 289.3 281.627 288.725 281.252 288.45C280.977 288.25 280.427 288.1 280.002 288.075V287.575L285.352 287.275L285.527 287.45V289.125H285.577C286.577 287.825 287.602 287.175 288.802 287.175ZM299.459 295.5H300.109C300.059 297.525 299.109 299.325 296.484 299.325C294.184 299.325 293.034 297.975 293.034 295.75V288.55H290.909V287.475H293.084V283.85H296.634V287.475H299.784V288.55H296.634V295.575C296.634 296.575 296.959 297.6 298.084 297.6C299.259 297.6 299.409 296.6 299.459 295.5ZM54.6311 325.5H55.2811C55.2311 327.525 54.2811 329.325 51.6561 329.325C49.3561 329.325 48.2061 327.975 48.2061 325.75V318.55H46.0811V317.475H48.2561V313.85H51.8061V317.475H54.9561V318.55H51.8061V325.575C51.8061 326.575 52.1311 327.6 53.2561 327.6C54.4311 327.6 54.5811 326.6 54.6311 325.5ZM69.601 328.475V329H63.001V328.475C63.301 328.45 63.676 328.425 63.926 328.275C64.251 328.1 64.301 327.725 64.301 327.175V321.175C64.301 319.525 63.701 318.725 62.851 318.725C61.526 318.725 60.876 319.675 60.626 320.25V327.05C60.626 327.6 60.701 327.95 61.076 328.175C61.351 328.35 61.726 328.45 62.026 328.475V329H55.326V328.475C55.776 328.45 56.076 328.4 56.401 328.275C56.876 328.1 57.026 327.725 57.026 327.175V313C57.026 312.45 56.776 311.85 56.376 311.575C56.076 311.375 55.151 311.175 54.701 311.15V310.65L60.476 310.35L60.626 310.525V319.175H60.676C61.601 318.225 62.476 317.125 64.576 317.125C66.876 317.125 67.951 318.675 67.951 321.05V327.1C67.951 327.65 68.076 328 68.526 328.2C68.851 328.35 69.176 328.425 69.601 328.475ZM78.8547 317.175C80.1047 317.175 81.0297 318.075 81.0297 319.45C81.0297 320.625 80.2547 321.6 79.1047 321.6C78.0297 321.6 77.2547 321 77.2547 319.975C77.2547 319.525 77.4797 319.075 77.5547 318.775C76.4797 318.8 75.7797 319.625 75.5797 319.975V327.075C75.5797 327.625 75.8297 328 76.2547 328.175C76.6547 328.35 77.5297 328.45 77.9047 328.475V329H70.2797V328.475C70.6797 328.45 71.0047 328.4 71.3297 328.275C71.8047 328.1 71.9547 327.725 71.9547 327.175V319.775C71.9547 319.3 71.6797 318.725 71.3047 318.45C71.0297 318.25 70.4797 318.1 70.0547 318.075V317.575L75.4047 317.275L75.5797 317.45V319.125H75.6297C76.6297 317.825 77.6547 317.175 78.8547 317.175ZM87.7928 317.125C91.6928 317.125 93.9928 319.65 93.9928 323.15C93.9928 326.625 91.8678 329.375 87.6928 329.375C84.3178 329.375 81.5428 327.05 81.5428 323.225C81.5428 319.65 83.9678 317.125 87.7928 317.125ZM87.7928 328.725C89.4928 328.725 89.9678 326.15 89.9678 323.125C89.9678 320.5 89.6678 317.725 87.8178 317.725C85.8678 317.725 85.5928 320.675 85.5928 323.075C85.5928 326.075 86.0178 328.725 87.7928 328.725ZM109.022 328.25V328.75L103.747 329.1L103.572 328.925V327.375H103.497C102.647 328.325 101.697 329.325 99.5973 329.325C97.3223 329.325 96.3973 327.6 96.3973 325.25V319.75C96.3973 319.225 96.1473 318.75 95.7473 318.475C95.4473 318.275 94.9473 318.125 94.4973 318.1V317.575L99.8973 317.275L100.047 317.45V325.425C100.047 327.05 100.597 327.8 101.447 327.8C102.722 327.8 103.297 326.875 103.547 326.4V319.725C103.547 319.225 103.347 318.775 102.997 318.5C102.747 318.3 102.122 318.15 101.547 318.125V317.575L106.972 317.275L107.147 317.45V326.675C107.147 327.225 107.397 327.625 107.772 327.9C108.072 328.125 108.647 328.225 109.022 328.25ZM109.929 320.925C109.929 318.275 112.779 317.125 115.129 317.125C116.729 317.125 117.804 317.45 118.229 317.7C118.854 316.1 119.704 315.1 120.804 315.1C121.504 315.1 122.179 315.6 122.179 316.425C122.179 317.225 121.654 317.825 120.879 317.825C120.379 317.825 119.854 317.575 119.479 317C119.154 317.125 118.854 317.575 118.704 318C118.754 318.025 118.804 318.05 118.879 318.125C119.854 318.95 120.304 320 120.304 321.05C120.304 323.3 117.929 324.725 115.354 324.725H113.679C113.429 324.95 113.179 325.15 113.179 325.475C113.179 326.475 114.154 326.375 115.504 326.425C116.304 326.45 117.754 326.525 118.429 326.55C119.979 326.625 121.929 327.825 121.929 330.2C121.929 332.7 119.829 334.7 115.154 334.7C110.904 334.7 109.254 333.475 109.254 331.625C109.254 330.275 110.579 329.325 113.229 329.225V329.125C112.029 328.775 110.529 328.1 110.529 326.7C110.529 325.275 112.029 324.775 113.179 324.55V324.45C111.029 323.8 109.929 322.525 109.929 320.925ZM116.754 320.95C116.754 319.275 116.354 317.75 115.104 317.75C113.879 317.75 113.579 319.2 113.579 320.875C113.579 322.625 114.104 324.15 115.129 324.15C116.329 324.15 116.754 322.525 116.754 320.95ZM118.679 331.125C118.679 330.575 118.479 329.875 117.579 329.55C117.129 329.475 115.629 329.425 113.904 329.425C113.379 329.7 112.779 330.35 112.779 331.625C112.779 332.575 113.529 334 115.729 334C117.579 334 118.679 332.9 118.679 331.125ZM136.378 328.475V329H129.778V328.475C130.078 328.45 130.453 328.425 130.703 328.275C131.028 328.1 131.078 327.725 131.078 327.175V321.175C131.078 319.525 130.478 318.725 129.628 318.725C128.303 318.725 127.653 319.675 127.403 320.25V327.05C127.403 327.6 127.478 327.95 127.853 328.175C128.128 328.35 128.503 328.45 128.803 328.475V329H122.103V328.475C122.553 328.45 122.853 328.4 123.178 328.275C123.653 328.1 123.803 327.725 123.803 327.175V313C123.803 312.45 123.553 311.85 123.153 311.575C122.853 311.375 121.928 311.175 121.478 311.15V310.65L127.253 310.35L127.403 310.525V319.175H127.453C128.378 318.225 129.253 317.125 131.353 317.125C133.653 317.125 134.728 318.675 134.728 321.05V327.1C134.728 327.65 134.853 328 135.303 328.2C135.628 328.35 135.953 328.425 136.378 328.475ZM143.264 312.65C143.264 311.4 144.239 310.5 145.464 310.5C146.689 310.5 147.639 311.425 147.639 312.65C147.639 313.875 146.689 314.8 145.464 314.8C144.239 314.8 143.264 313.875 143.264 312.65ZM149.314 328.475V329H142.214V328.475C142.639 328.45 142.964 328.4 143.289 328.275C143.739 328.1 143.939 327.7 143.939 327.175V319.775C143.939 319.225 143.714 318.8 143.314 318.525C143.014 318.325 142.289 318.1 141.839 318.075V317.575L147.389 317.275L147.564 317.45V327.05C147.564 327.575 147.789 327.975 148.239 328.175C148.589 328.375 148.914 328.425 149.314 328.475ZM164.186 328.475V329H157.561V328.475C157.886 328.45 158.236 328.4 158.486 328.275C158.811 328.1 158.861 327.725 158.861 327.175V321.15C158.861 319.425 158.286 318.725 157.411 318.725C156.136 318.725 155.486 319.675 155.211 320.225V327.05C155.211 327.6 155.311 327.975 155.636 328.175C155.961 328.375 156.261 328.425 156.586 328.475V329H149.911V328.475C150.311 328.45 150.636 328.4 150.961 328.275C151.411 328.1 151.586 327.725 151.586 327.175V319.775C151.586 319.25 151.311 318.7 150.936 318.45C150.636 318.25 150.136 318.1 149.736 318.075V317.575L155.036 317.275L155.211 317.45V319.175H155.261C156.161 318.225 157.011 317.125 159.111 317.125C161.386 317.125 162.536 318.675 162.536 321.05V327.075C162.536 327.625 162.661 327.975 163.111 328.175C163.461 328.325 163.736 328.425 164.186 328.475ZM165.858 312.65C165.858 311.4 166.833 310.5 168.058 310.5C169.283 310.5 170.233 311.425 170.233 312.65C170.233 313.875 169.283 314.8 168.058 314.8C166.833 314.8 165.858 313.875 165.858 312.65ZM171.908 328.475V329H164.808V328.475C165.233 328.45 165.558 328.4 165.883 328.275C166.333 328.1 166.533 327.7 166.533 327.175V319.775C166.533 319.225 166.308 318.8 165.908 318.525C165.608 318.325 164.883 318.1 164.433 318.075V317.575L169.983 317.275L170.158 317.45V327.05C170.158 327.575 170.383 327.975 170.833 328.175C171.183 328.375 171.508 328.425 171.908 328.475ZM180.33 325.5H180.98C180.93 327.525 179.98 329.325 177.355 329.325C175.055 329.325 173.905 327.975 173.905 325.75V318.55H171.78V317.475H173.955V313.85H177.505V317.475H180.655V318.55H177.505V325.575C177.505 326.575 177.83 327.6 178.955 327.6C180.13 327.6 180.28 326.6 180.33 325.5ZM182.325 312.65C182.325 311.4 183.3 310.5 184.525 310.5C185.75 310.5 186.7 311.425 186.7 312.65C186.7 313.875 185.75 314.8 184.525 314.8C183.3 314.8 182.325 313.875 182.325 312.65ZM188.375 328.475V329H181.275V328.475C181.7 328.45 182.025 328.4 182.35 328.275C182.8 328.1 183 327.7 183 327.175V319.775C183 319.225 182.775 318.8 182.375 318.525C182.075 318.325 181.35 318.1 180.9 318.075V317.575L186.45 317.275L186.625 317.45V327.05C186.625 327.575 186.85 327.975 187.3 328.175C187.65 328.375 187.975 328.425 188.375 328.475ZM195.647 326.85L195.747 322.5C194.022 323.175 192.922 323.725 192.922 325.825C192.922 327.3 193.472 327.8 194.172 327.8C195.022 327.8 195.272 327.425 195.647 326.85ZM201.097 325.675H201.722C201.672 327.775 200.922 329.325 198.672 329.325C197.072 329.325 196.297 328.625 195.797 327.7H195.722C194.897 328.575 194.097 329.375 192.147 329.375C190.447 329.375 189.122 328.175 189.122 326.525C189.122 324.4 190.322 323.75 191.572 323.3C193.072 322.75 195.097 322.175 195.722 321.7V320.25C195.722 319.4 195.722 317.725 194.297 317.725C193.672 317.725 193.272 318 193.072 318.2C193.147 318.6 193.522 319.325 193.522 320.1C193.522 320.65 192.772 321.525 191.472 321.525C190.172 321.525 189.672 320.625 189.672 319.8C189.672 318.25 192.347 317.125 194.497 317.125C197.172 317.125 199.372 317.55 199.372 320.875C199.372 323.15 199.222 325.825 199.222 326.65C199.222 327.05 199.497 327.825 200.122 327.825C200.872 327.825 201.072 326.8 201.097 325.675ZM209.523 325.5H210.173C210.123 327.525 209.173 329.325 206.548 329.325C204.248 329.325 203.098 327.975 203.098 325.75V318.55H200.973V317.475H203.148V313.85H206.698V317.475H209.848V318.55H206.698V325.575C206.698 326.575 207.023 327.6 208.148 327.6C209.323 327.6 209.473 326.6 209.523 325.5ZM211.518 312.65C211.518 311.4 212.493 310.5 213.718 310.5C214.943 310.5 215.893 311.425 215.893 312.65C215.893 313.875 214.943 314.8 213.718 314.8C212.493 314.8 211.518 313.875 211.518 312.65ZM217.568 328.475V329H210.468V328.475C210.893 328.45 211.218 328.4 211.543 328.275C211.993 328.1 212.193 327.7 212.193 327.175V319.775C212.193 319.225 211.968 318.8 211.568 318.525C211.268 318.325 210.543 318.1 210.093 318.075V317.575L215.643 317.275L215.818 317.45V327.05C215.818 327.575 216.043 327.975 216.493 328.175C216.843 328.375 217.168 328.425 217.568 328.475ZM230.139 317.45V317.95C229.564 318.05 228.664 318.4 228.239 319.4C227.814 320.425 226.114 324.875 225.614 326.075C225.189 327.075 224.889 328.075 224.564 329.15H222.689C221.914 327.15 219.564 321.025 218.814 319.2C218.514 318.475 217.789 318.075 217.089 317.975V317.45H223.939V317.975C223.389 318 222.539 318.15 222.539 318.55C222.539 318.575 222.589 318.8 222.689 319.075C222.864 319.6 224.564 324.275 225.064 325.3L225.114 325.4C225.464 324.6 226.764 320.975 227.139 320C227.264 319.675 227.389 319.075 227.389 318.875C227.364 318.325 225.964 318.025 225.539 317.95V317.45H230.139ZM240.519 325.575L241.019 325.95C240.094 327.85 238.269 329.375 235.769 329.375C231.669 329.375 229.769 326.625 229.769 323.175C229.769 319.95 231.819 317.125 235.594 317.125C239.419 317.125 240.744 319.5 240.744 322.1V322.45H233.669C233.644 322.45 233.669 322.725 233.669 322.75C233.669 325.7 234.594 327.875 237.019 327.875C238.544 327.875 239.619 327.325 240.519 325.575ZM233.669 321.75L236.869 321.7C236.869 319.75 236.844 317.775 235.419 317.775C234.269 317.775 233.744 319.225 233.669 321.75ZM248.058 321.675C250.033 322.325 251.408 323.45 251.408 325.5C251.408 328.025 249.308 329.375 246.608 329.375C245.008 329.375 243.683 328.7 243.183 328.3L242.733 329.15H241.983L241.858 324.825H242.358C242.858 326.325 244.383 328.725 246.433 328.725C247.708 328.725 248.308 327.975 248.308 326.8C248.308 325.5 247.158 325.075 245.458 324.5C243.783 323.925 242.183 322.975 242.183 320.65C242.183 318.725 243.833 317.125 246.608 317.125C247.833 317.125 248.933 317.45 249.633 317.8L249.958 317.1H250.683L250.833 321.05H250.358C249.808 319.325 248.383 317.775 246.983 317.775C245.783 317.775 245.308 318.525 245.308 319.45C245.308 320.75 246.108 321.025 248.058 321.675ZM253.137 327.125C253.137 325.875 254.162 324.925 255.387 324.925C256.612 324.925 257.637 325.875 257.637 327.125C257.637 328.375 256.612 329.325 255.387 329.325C254.162 329.325 253.137 328.375 253.137 327.125Z" fill="#FBA500"/>
</svg>
