<svg width="315" height="336" viewBox="0 0 315 336" fill="none" xmlns="http://www.w3.org/2000/svg">
<path d="M241.1 101.684C239.128 101.268 237.171 100.715 235.178 100.467C230.415 99.8755 225.644 99.2121 220.853 98.9649C210.981 98.4553 201.302 100.067 191.82 102.59C182.237 105.138 172.765 108.109 163.247 110.899C154.539 113.45 145.752 115.681 136.717 116.695C128.953 117.569 121.166 117.683 113.424 116.375C110.404 115.863 107.319 115.418 104.453 114.408C99.8164 112.778 96.8923 109.253 95.4658 104.601C92.2386 94.0577 89.0945 83.4909 85.914 72.9331C83.4533 64.7615 80.9794 56.5917 78.5352 48.4154C78.0951 46.9468 77.8835 45.4222 79.2164 44.2681C80.5245 43.134 82.0472 43.1646 83.6749 43.6019C85.8168 44.1778 87.9774 44.791 90.1702 45.041C94.9507 45.5896 99.753 46.237 104.548 46.2532C109.318 46.2667 114.123 45.7757 118.857 45.1197C129.558 43.643 139.837 40.4006 150.157 37.3459C158.391 34.9082 166.644 32.4885 174.996 30.5234C180.453 29.2399 186.085 28.5414 191.679 28.0348C198.161 27.4463 204.679 27.6462 211.108 28.9207C213.8 29.4554 216.581 29.7522 219.143 30.6559C223.679 32.2558 226.668 35.5981 228.076 40.1805C231.635 51.7533 235.121 63.3536 238.623 74.946C240.824 82.2279 243.008 89.5145 245.172 96.8085C245.799 98.921 245.505 100.282 244.085 101.105C243.229 101.603 242.143 101.712 241.161 101.996L241.103 101.688L241.1 101.684ZM135.466 69.3033C135.471 70.9474 135.346 72.6066 135.508 74.2353C136.296 82.1802 139.85 88.6867 146.15 93.5978C151.924 98.1025 158.493 100.244 165.85 99.1699C173.096 98.1127 178.797 94.3562 183.122 88.5585C186.97 83.3982 188.766 77.5365 188.197 71.1073C187.442 62.5516 183.481 55.7091 176.488 50.7078C170.658 46.5414 164.123 44.7475 157.015 46.0316C145.965 48.0275 136.636 57.7333 135.469 69.3036L135.466 69.3033Z" fill="#FBA500"/>
<path d="M113.99 144.73C110.031 143.945 105.999 143.424 102.137 142.311C97.3107 140.922 94.1502 137.465 92.6861 132.712C88.694 119.752 84.8318 106.754 80.913 93.7728C79.2041 88.1098 77.482 82.4485 75.7663 76.788C75.6494 76.4024 75.5424 76.0147 75.4452 75.6248C75.082 74.1612 75.1916 72.7705 76.4405 71.7684C77.6895 70.7662 79.185 70.9 80.6073 71.2962C80.9801 71.4003 81.3273 72.0163 81.4669 72.4622C83.6705 79.6575 85.837 86.8682 88.0172 94.0707C90.2785 101.542 92.4124 109.058 94.8643 116.467C96.2891 120.771 99.3835 123.88 103.736 125.268C106.753 126.23 109.969 126.563 113.103 127.158C118.136 128.116 123.242 128.124 128.319 127.948C136.026 127.683 143.643 126.495 151.083 124.497C159.492 122.242 167.836 119.745 176.184 117.274C185.658 114.47 195.141 111.674 204.974 110.458C209.679 109.876 214.465 109.493 219.189 109.669C224.741 109.875 230.268 110.777 235.801 111.409C236.556 111.496 237.318 111.702 238.015 112.002C238.349 112.144 238.646 112.597 238.761 112.969C239.932 116.777 241.05 120.601 242.205 124.414C243.355 128.21 240.927 129.922 237.486 129.269C232.927 128.403 228.367 127.447 223.761 126.923C215.535 125.985 207.349 126.668 199.205 128.07C187.319 130.112 175.905 133.89 164.405 137.359C154.795 140.258 145.137 142.949 135.149 144.218C129.468 144.941 123.754 145.312 118.017 144.813C116.69 144.697 115.356 144.654 114.025 144.577C114.013 144.627 114.002 144.677 113.987 144.727L113.99 144.73Z" fill="#FBA500"/>
<path d="M108.244 171.798C104.286 171.012 100.254 170.492 96.3915 169.379C91.5652 167.989 88.4047 164.532 86.9405 159.779C82.9485 146.819 79.0863 133.822 75.1675 120.84C73.4585 115.177 71.7365 109.516 70.0208 103.855C69.9038 103.47 69.7968 103.082 69.6997 102.692C69.3364 101.229 69.4461 99.8379 70.695 98.8357C71.9439 97.8336 73.4394 97.9674 74.8618 98.3636C75.2346 98.4677 75.5818 99.0837 75.7213 99.5295C77.9249 106.725 80.0914 113.936 82.2717 121.138C84.5329 128.61 86.6668 136.126 89.1187 143.534C90.5435 147.839 93.6379 150.948 97.9903 152.335C101.007 153.297 104.224 153.63 107.357 154.225C112.391 155.184 117.497 155.191 122.574 155.015C130.28 154.75 137.898 153.562 145.337 151.564C153.746 149.309 162.09 146.812 170.438 144.342C179.912 141.538 189.395 138.741 199.229 137.526C203.933 136.944 208.72 136.56 213.443 136.736C218.996 136.942 224.523 137.844 230.056 138.476C230.811 138.563 231.573 138.77 232.27 139.069C232.603 139.211 232.9 139.664 233.015 140.036C234.186 143.844 235.304 147.669 236.459 151.481C237.609 155.277 235.181 156.99 231.741 156.336C227.181 155.47 222.622 154.514 218.016 153.991C209.79 153.052 201.603 153.736 193.459 155.138C181.573 157.179 170.16 160.957 158.66 164.426C149.05 167.325 139.391 170.016 129.403 171.286C123.723 172.008 118.008 172.379 112.271 171.88C110.945 171.764 109.61 171.722 108.28 171.644C108.268 171.694 108.256 171.744 108.241 171.794L108.244 171.798Z" fill="#FBA500"/>
<path d="M175.431 77.88C175.077 81.6215 173.167 84.0424 170.499 85.9191C169.39 86.6982 169.11 87.4852 169.547 88.7702C170.69 92.1439 170.379 92.0014 167.484 92.9213C167.1 93.0443 166.721 93.1808 166.329 93.2869C165.465 93.5228 164.804 93.3397 164.542 92.379C164.521 92.3028 164.484 92.2281 164.457 92.1512C163.364 89.2428 163.369 89.2851 160.241 89.6945C158.932 89.8668 157.593 89.8977 156.273 89.8405C154.709 89.7766 154.325 89.3271 154.208 87.7643C154.109 86.4833 154.029 85.2011 153.96 83.9168C153.895 82.7165 154.308 82.3168 155.557 82.4371C158.201 82.6902 160.793 82.407 163.313 81.6113C164.028 81.3852 164.686 80.9569 165.332 80.5626C166.153 80.0616 166.616 79.3455 166.401 78.3352C166.176 77.2722 165.352 76.7758 164.414 76.6468C162.658 76.4081 160.881 76.3118 159.11 76.1936C155.859 75.9754 152.725 75.3838 150.414 72.8505C147.512 69.6686 147.459 64.8352 150.264 61.3165C151.035 60.3502 151.976 59.4856 152.968 58.7423C153.935 58.0189 154.166 57.2169 153.861 56.1197C153.312 54.1485 154.026 52.8491 156.002 52.2215C156.386 52.0985 156.793 52.0357 157.167 51.889C158.032 51.5535 158.546 51.8785 158.893 52.6778C160.092 55.4336 160.092 55.4014 163.126 54.937C164.074 54.7905 165.053 54.8402 166.018 54.8081C167.147 54.771 167.61 55.4282 167.688 56.4465C167.787 57.7275 167.869 59.01 167.939 60.2943C168.009 61.5723 167.684 61.7788 166.425 61.8793C164.427 62.0393 162.426 62.2858 160.455 62.6449C159.653 62.7908 158.805 63.2022 158.2 63.7391C157.69 64.1929 157.2 65.038 157.264 65.6495C157.32 66.1766 158.094 66.8798 158.682 67.0519C159.981 67.4285 161.363 67.6853 162.71 67.694C165.496 67.7145 168.212 67.9818 170.701 69.3022C174.148 71.1302 175.803 74.3624 175.422 77.8758L175.431 77.88Z" fill="#FBA500"/>
<path d="M66.5266 260.05C64.3266 260.05 62.7266 258.75 62.7266 255.85C62.7266 252.65 64.5266 248.2 68.0766 242.7C71.1266 238 73.3266 235.15 76.7766 230.45H62.6266C60.4766 230.45 59.0766 231.55 57.0766 236.1L56.6266 236L59.9266 221.5H60.2266L61.1266 224.3H81.3266V224.85C78.0266 229.05 76.5766 231.65 74.3766 236.5C72.5266 240.6 71.2266 246.6 70.8266 254.1C70.6266 258.25 69.0766 260.05 66.5266 260.05ZM87.7734 254V253.6C88.6734 253.55 90.6734 253.4 91.3734 253.15C92.2734 252.85 92.9734 251.85 92.9734 250.75V243.9H79.7734V242.9L96.3734 222.6H100.623V242.4H103.623C104.673 242.4 105.623 241.85 106.023 240.95C106.373 240.2 106.723 238.95 106.773 238.05H107.173V248.6H106.773C106.723 247.7 106.473 246.2 106.223 245.5C105.923 244.6 104.973 243.9 103.873 243.9H100.623V250.65C100.623 251.65 101.173 252.65 102.073 253.05C102.823 253.4 104.523 253.55 105.423 253.6V254H87.7734ZM81.2734 242.4H92.9734V228.15L81.2734 242.4ZM112.61 263L112.36 262.5C115.66 260.9 117.76 257.75 118.06 254H116.46C112.61 254 111.56 251.8 111.56 249.8C111.56 247.9 113.01 245.85 115.51 245.85C119.36 245.85 120.91 248.7 120.91 252.7C120.91 256.65 117.46 261 112.61 263ZM138.838 254.8C129.838 254.8 124.938 247.7 124.938 239.55C124.938 229.25 131.888 222.95 139.438 222.95C148.488 222.95 153.388 229.95 153.388 238.2C153.388 248.45 146.538 254.8 138.838 254.8ZM139.038 254.25C143.088 254.25 144.988 247.85 144.988 238.85C144.988 230.75 143.888 223.5 139.238 223.5C135.288 223.5 133.338 229.85 133.338 238.9C133.338 247.25 134.438 254.25 139.038 254.25ZM170.783 254.8C161.783 254.8 156.883 247.7 156.883 239.55C156.883 229.25 163.833 222.95 171.383 222.95C180.433 222.95 185.333 229.95 185.333 238.2C185.333 248.45 178.483 254.8 170.783 254.8ZM170.983 254.25C175.033 254.25 176.933 247.85 176.933 238.85C176.933 230.75 175.833 223.5 171.183 223.5C167.233 223.5 165.283 229.85 165.283 238.9C165.283 247.25 166.383 254.25 170.983 254.25ZM202.728 254.8C193.728 254.8 188.828 247.7 188.828 239.55C188.828 229.25 195.778 222.95 203.328 222.95C212.378 222.95 217.278 229.95 217.278 238.2C217.278 248.45 210.428 254.8 202.728 254.8ZM202.928 254.25C206.978 254.25 208.878 247.85 208.878 238.85C208.878 230.75 207.778 223.5 203.128 223.5C199.178 223.5 197.228 229.85 197.228 238.9C197.228 247.25 198.328 254.25 202.928 254.25Z" fill="#FBA500"/>
<path d="M245.109 256.68V251.2C240.309 250.76 237.189 248.6 237.189 245.48C237.189 243.04 238.349 241.64 240.149 241.64C241.709 241.64 242.509 242.6 242.509 244.16C242.509 246.24 240.549 246.04 239.989 247.08C239.989 248.84 242.229 250.32 245.109 250.68V240.92C240.909 240.44 237.709 238.36 237.709 233.68C237.709 229.96 240.349 227.12 245.109 226.4V222.48H245.829V226.32C246.109 226.28 246.869 226.2 247.469 226.2C247.949 226.2 248.549 226.2 248.989 226.24V222.48H249.709V226.28C254.149 226.8 256.189 229 256.189 231.28C256.189 233.16 255.349 234.76 253.669 234.76C252.469 234.76 251.309 234.04 251.309 232.56C251.309 230.68 253.069 230.32 253.429 229.04C253.229 228.24 251.829 227.16 249.709 226.84V235.84C253.709 236.56 256.989 238.12 256.989 243.48C256.989 246.4 255.149 250.04 249.709 251.04V256.68H248.989V251.16C248.269 251.24 247.469 251.28 246.789 251.28H245.829V256.68H245.109ZM248.989 235.76V226.76C248.669 226.72 248.109 226.72 247.789 226.72C247.349 226.72 246.389 226.8 245.829 226.88V235.4C246.629 235.48 248.149 235.64 248.989 235.76ZM245.109 235.28V227.04C243.189 227.52 241.989 229.52 241.989 231.44C241.989 234.04 243.389 234.96 245.109 235.28ZM245.829 250.76H246.829C247.589 250.76 248.429 250.68 248.989 250.6V241.36C248.149 241.24 246.789 241.08 245.829 241V250.76ZM249.709 250.4C252.029 249.64 252.829 247.8 252.829 245.44C252.829 242.96 251.629 241.84 249.709 241.48V250.4Z" fill="#FBA500"/>
<path d="M1.77393 282.65C1.77393 281.4 2.74893 280.5 3.97393 280.5C5.19893 280.5 6.14893 281.425 6.14893 282.65C6.14893 283.875 5.19893 284.8 3.97393 284.8C2.74893 284.8 1.77393 283.875 1.77393 282.65ZM7.82393 298.475V299H0.723926V298.475C1.14893 298.45 1.47393 298.4 1.79893 298.275C2.24893 298.1 2.44893 297.7 2.44893 297.175V289.775C2.44893 289.225 2.22393 288.8 1.82393 288.525C1.52393 288.325 0.798926 288.1 0.348926 288.075V287.575L5.89893 287.275L6.07393 287.45V297.05C6.07393 297.575 6.29893 297.975 6.74893 298.175C7.09893 298.375 7.42393 298.425 7.82393 298.475ZM22.6958 298.475V299H16.0708V298.475C16.3958 298.45 16.7458 298.4 16.9958 298.275C17.3208 298.1 17.3708 297.725 17.3708 297.175V291.15C17.3708 289.425 16.7958 288.725 15.9208 288.725C14.6458 288.725 13.9958 289.675 13.7208 290.225V297.05C13.7208 297.6 13.8208 297.975 14.1458 298.175C14.4708 298.375 14.7708 298.425 15.0958 298.475V299H8.4208V298.475C8.8208 298.45 9.1458 298.4 9.4708 298.275C9.9208 298.1 10.0958 297.725 10.0958 297.175V289.775C10.0958 289.25 9.8208 288.7 9.4458 288.45C9.1458 288.25 8.6458 288.1 8.2458 288.075V287.575L13.5458 287.275L13.7208 287.45V289.175H13.7708C14.6708 288.225 15.5208 287.125 17.6208 287.125C19.8958 287.125 21.0458 288.675 21.0458 291.05V297.075C21.0458 297.625 21.1708 297.975 21.6208 298.175C21.9708 298.325 22.2458 298.425 22.6958 298.475ZM36.1503 280.325C38.8753 280.325 39.6003 281.725 39.6003 282.9C39.6003 283.65 38.9503 284.65 37.7753 284.65C37.0003 284.65 35.9503 284.225 35.9503 283.15C35.9503 282.575 36.1503 282.25 36.3003 281.525C36.3003 281.225 36.0753 280.975 35.7503 280.975C34.4753 280.975 33.9503 282.625 33.8253 285.875C33.8003 286.35 33.8253 287.475 33.8253 287.475H36.8753V288.55H33.8503V297.075C33.8503 297.6 34.0753 298 34.5253 298.175C34.9003 298.325 35.7003 298.45 36.1253 298.475V299H28.5003V298.475C28.9253 298.45 29.2503 298.4 29.5753 298.275C30.0253 298.1 30.2253 297.725 30.2253 297.175V288.55H27.8253V287.475H30.2253V287.025C30.2253 285 30.6753 283.375 31.9253 282.075C32.9753 281 34.3003 280.325 36.1503 280.325ZM50.9046 298.25V298.75L45.6296 299.1L45.4546 298.925V297.375H45.3796C44.5296 298.325 43.5796 299.325 41.4796 299.325C39.2046 299.325 38.2796 297.6 38.2796 295.25V289.75C38.2796 289.225 38.0296 288.75 37.6296 288.475C37.3296 288.275 36.8296 288.125 36.3796 288.1V287.575L41.7796 287.275L41.9296 287.45V295.425C41.9296 297.05 42.4796 297.8 43.3296 297.8C44.6046 297.8 45.1796 296.875 45.4296 296.4V289.725C45.4296 289.225 45.2296 288.775 44.8796 288.5C44.6296 288.3 44.0046 288.15 43.4296 288.125V287.575L48.8546 287.275L49.0296 287.45V296.675C49.0296 297.225 49.2796 297.625 49.6546 297.9C49.9546 298.125 50.5296 298.225 50.9046 298.25ZM65.7368 298.475V299H59.1118V298.475C59.4368 298.45 59.7868 298.4 60.0368 298.275C60.3618 298.1 60.4118 297.725 60.4118 297.175V291.15C60.4118 289.425 59.8368 288.725 58.9618 288.725C57.6868 288.725 57.0368 289.675 56.7618 290.225V297.05C56.7618 297.6 56.8618 297.975 57.1868 298.175C57.5118 298.375 57.8118 298.425 58.1368 298.475V299H51.4618V298.475C51.8618 298.45 52.1868 298.4 52.5118 298.275C52.9618 298.1 53.1368 297.725 53.1368 297.175V289.775C53.1368 289.25 52.8618 288.7 52.4868 288.45C52.1868 288.25 51.6868 288.1 51.2868 288.075V287.575L56.5868 287.275L56.7618 287.45V289.175H56.8118C57.7118 288.225 58.5618 287.125 60.6618 287.125C62.9368 287.125 64.0868 288.675 64.0868 291.05V297.075C64.0868 297.625 64.2118 297.975 64.6618 298.175C65.0118 298.325 65.2868 298.425 65.7368 298.475ZM72.8847 297.925C73.8347 297.925 74.2347 297.575 74.7597 296.9V289.7C74.5597 288.95 74.0597 287.875 72.8347 287.875C71.3847 287.875 70.4847 290 70.4847 293.3C70.4847 295.675 71.0347 297.925 72.8847 297.925ZM80.4347 298.25V298.75L74.9597 299.1L74.7847 298.925V297.775L74.6847 297.75C74.1347 298.325 73.0097 299.35 71.4847 299.35C68.6097 299.35 66.5097 296.9 66.5097 293.075C66.5097 289.575 69.0597 287.125 71.9347 287.125C73.2847 287.125 74.3097 287.525 74.7597 287.725V283.125C74.7597 282.575 74.5347 281.95 74.1347 281.7C73.6847 281.4 72.6597 281.2 71.9597 281.15V280.65L78.1847 280.35L78.3597 280.525V296.675C78.3597 297.225 78.6097 297.6 78.9847 297.875C79.2597 298.075 80.0097 298.225 80.4347 298.25ZM81.7954 282.65C81.7954 281.4 82.7704 280.5 83.9954 280.5C85.2204 280.5 86.1704 281.425 86.1704 282.65C86.1704 283.875 85.2204 284.8 83.9954 284.8C82.7704 284.8 81.7954 283.875 81.7954 282.65ZM87.8454 298.475V299H80.7454V298.475C81.1704 298.45 81.4954 298.4 81.8204 298.275C82.2704 298.1 82.4704 297.7 82.4704 297.175V289.775C82.4704 289.225 82.2454 288.8 81.8454 288.525C81.5454 288.325 80.8204 288.1 80.3704 288.075V287.575L85.9204 287.275L86.0954 287.45V297.05C86.0954 297.575 86.3204 297.975 86.7704 298.175C87.1204 298.375 87.4454 298.425 87.8454 298.475ZM102.717 298.475V299H96.0923V298.475C96.4173 298.45 96.7673 298.4 97.0173 298.275C97.3423 298.1 97.3923 297.725 97.3923 297.175V291.15C97.3923 289.425 96.8173 288.725 95.9423 288.725C94.6673 288.725 94.0173 289.675 93.7423 290.225V297.05C93.7423 297.6 93.8423 297.975 94.1673 298.175C94.4923 298.375 94.7923 298.425 95.1173 298.475V299H88.4423V298.475C88.8423 298.45 89.1673 298.4 89.4923 298.275C89.9423 298.1 90.1173 297.725 90.1173 297.175V289.775C90.1173 289.25 89.8423 288.7 89.4673 288.45C89.1673 288.25 88.6673 288.1 88.2673 288.075V287.575L93.5673 287.275L93.7423 287.45V289.175H93.7923C94.6923 288.225 95.5423 287.125 97.6423 287.125C99.9173 287.125 101.067 288.675 101.067 291.05V297.075C101.067 297.625 101.192 297.975 101.642 298.175C101.992 298.325 102.267 298.425 102.717 298.475ZM103.715 290.925C103.715 288.275 106.565 287.125 108.915 287.125C110.515 287.125 111.59 287.45 112.015 287.7C112.64 286.1 113.49 285.1 114.59 285.1C115.29 285.1 115.965 285.6 115.965 286.425C115.965 287.225 115.44 287.825 114.665 287.825C114.165 287.825 113.64 287.575 113.265 287C112.94 287.125 112.64 287.575 112.49 288C112.54 288.025 112.59 288.05 112.665 288.125C113.64 288.95 114.09 290 114.09 291.05C114.09 293.3 111.715 294.725 109.14 294.725H107.465C107.215 294.95 106.965 295.15 106.965 295.475C106.965 296.475 107.94 296.375 109.29 296.425C110.09 296.45 111.54 296.525 112.215 296.55C113.765 296.625 115.715 297.825 115.715 300.2C115.715 302.7 113.615 304.7 108.94 304.7C104.69 304.7 103.04 303.475 103.04 301.625C103.04 300.275 104.365 299.325 107.015 299.225V299.125C105.815 298.775 104.315 298.1 104.315 296.7C104.315 295.275 105.815 294.775 106.965 294.55V294.45C104.815 293.8 103.715 292.525 103.715 290.925ZM110.54 290.95C110.54 289.275 110.14 287.75 108.89 287.75C107.665 287.75 107.365 289.2 107.365 290.875C107.365 292.625 107.89 294.15 108.915 294.15C110.115 294.15 110.54 292.525 110.54 290.95ZM112.465 301.125C112.465 300.575 112.265 299.875 111.365 299.55C110.915 299.475 109.415 299.425 107.69 299.425C107.165 299.7 106.565 300.35 106.565 301.625C106.565 302.575 107.315 304 109.515 304C111.365 304 112.465 302.9 112.465 301.125ZM129.921 287.175C131.171 287.175 132.096 288.075 132.096 289.45C132.096 290.625 131.321 291.6 130.171 291.6C129.096 291.6 128.321 291 128.321 289.975C128.321 289.525 128.546 289.075 128.621 288.775C127.546 288.8 126.846 289.625 126.646 289.975V297.075C126.646 297.625 126.896 298 127.321 298.175C127.721 298.35 128.596 298.45 128.971 298.475V299H121.346V298.475C121.746 298.45 122.071 298.4 122.396 298.275C122.871 298.1 123.021 297.725 123.021 297.175V289.775C123.021 289.3 122.746 288.725 122.371 288.45C122.096 288.25 121.546 288.1 121.121 288.075V287.575L126.471 287.275L126.646 287.45V289.125H126.696C127.696 287.825 128.721 287.175 129.921 287.175ZM139.062 296.85L139.162 292.5C137.437 293.175 136.337 293.725 136.337 295.825C136.337 297.3 136.887 297.8 137.587 297.8C138.437 297.8 138.687 297.425 139.062 296.85ZM144.512 295.675H145.137C145.087 297.775 144.337 299.325 142.087 299.325C140.487 299.325 139.712 298.625 139.212 297.7H139.137C138.312 298.575 137.512 299.375 135.562 299.375C133.862 299.375 132.537 298.175 132.537 296.525C132.537 294.4 133.737 293.75 134.987 293.3C136.487 292.75 138.512 292.175 139.137 291.7V290.25C139.137 289.4 139.137 287.725 137.712 287.725C137.087 287.725 136.687 288 136.487 288.2C136.562 288.6 136.937 289.325 136.937 290.1C136.937 290.65 136.187 291.525 134.887 291.525C133.587 291.525 133.087 290.625 133.087 289.8C133.087 288.25 135.762 287.125 137.912 287.125C140.587 287.125 142.787 287.55 142.787 290.875C142.787 293.15 142.637 295.825 142.637 296.65C142.637 297.05 142.912 297.825 143.537 297.825C144.287 297.825 144.487 296.8 144.512 295.675ZM146.259 282.65C146.259 281.4 147.234 280.5 148.459 280.5C149.684 280.5 150.634 281.425 150.634 282.65C150.634 283.875 149.684 284.8 148.459 284.8C147.234 284.8 146.259 283.875 146.259 282.65ZM152.309 298.475V299H145.209V298.475C145.634 298.45 145.959 298.4 146.284 298.275C146.734 298.1 146.934 297.7 146.934 297.175V289.775C146.934 289.225 146.709 288.8 146.309 288.525C146.009 288.325 145.284 288.1 144.834 288.075V287.575L150.384 287.275L150.559 287.45V297.05C150.559 297.575 150.784 297.975 151.234 298.175C151.584 298.375 151.909 298.425 152.309 298.475ZM159.131 291.675C161.106 292.325 162.481 293.45 162.481 295.5C162.481 298.025 160.381 299.375 157.681 299.375C156.081 299.375 154.756 298.7 154.256 298.3L153.806 299.15H153.056L152.931 294.825H153.431C153.931 296.325 155.456 298.725 157.506 298.725C158.781 298.725 159.381 297.975 159.381 296.8C159.381 295.5 158.231 295.075 156.531 294.5C154.856 293.925 153.256 292.975 153.256 290.65C153.256 288.725 154.906 287.125 157.681 287.125C158.906 287.125 160.006 287.45 160.706 287.8L161.031 287.1H161.756L161.906 291.05H161.431C160.881 289.325 159.456 287.775 158.056 287.775C156.856 287.775 156.381 288.525 156.381 289.45C156.381 290.75 157.181 291.025 159.131 291.675ZM174.284 295.575L174.784 295.95C173.859 297.85 172.034 299.375 169.534 299.375C165.434 299.375 163.534 296.625 163.534 293.175C163.534 289.95 165.584 287.125 169.359 287.125C173.184 287.125 174.509 289.5 174.509 292.1V292.45H167.434C167.409 292.45 167.434 292.725 167.434 292.75C167.434 295.7 168.359 297.875 170.784 297.875C172.309 297.875 173.384 297.325 174.284 295.575ZM167.434 291.75L170.634 291.7C170.634 289.75 170.609 287.775 169.184 287.775C168.034 287.775 167.509 289.225 167.434 291.75ZM181.928 297.925C182.878 297.925 183.278 297.575 183.803 296.9V289.7C183.603 288.95 183.103 287.875 181.878 287.875C180.428 287.875 179.528 290 179.528 293.3C179.528 295.675 180.078 297.925 181.928 297.925ZM189.478 298.25V298.75L184.003 299.1L183.828 298.925V297.775L183.728 297.75C183.178 298.325 182.053 299.35 180.528 299.35C177.653 299.35 175.553 296.9 175.553 293.075C175.553 289.575 178.103 287.125 180.978 287.125C182.328 287.125 183.353 287.525 183.803 287.725V283.125C183.803 282.575 183.578 281.95 183.178 281.7C182.728 281.4 181.703 281.2 181.003 281.15V280.65L187.228 280.35L187.403 280.525V296.675C187.403 297.225 187.653 297.6 188.028 297.875C188.303 298.075 189.053 298.225 189.478 298.25ZM202.82 295.5H203.47C203.42 297.525 202.47 299.325 199.845 299.325C197.545 299.325 196.395 297.975 196.395 295.75V288.55H194.27V287.475H196.445V283.85H199.995V287.475H203.145V288.55H199.995V295.575C199.995 296.575 200.32 297.6 201.445 297.6C202.62 297.6 202.77 296.6 202.82 295.5ZM210.14 287.125C214.04 287.125 216.34 289.65 216.34 293.15C216.34 296.625 214.215 299.375 210.04 299.375C206.665 299.375 203.89 297.05 203.89 293.225C203.89 289.65 206.315 287.125 210.14 287.125ZM210.14 298.725C211.84 298.725 212.315 296.15 212.315 293.125C212.315 290.5 212.015 287.725 210.165 287.725C208.215 287.725 207.94 290.675 207.94 293.075C207.94 296.075 208.365 298.725 210.14 298.725ZM228.801 291.675C230.776 292.325 232.151 293.45 232.151 295.5C232.151 298.025 230.051 299.375 227.351 299.375C225.751 299.375 224.426 298.7 223.926 298.3L223.476 299.15H222.726L222.601 294.825H223.101C223.601 296.325 225.126 298.725 227.176 298.725C228.451 298.725 229.051 297.975 229.051 296.8C229.051 295.5 227.901 295.075 226.201 294.5C224.526 293.925 222.926 292.975 222.926 290.65C222.926 288.725 224.576 287.125 227.351 287.125C228.576 287.125 229.676 287.45 230.376 287.8L230.701 287.1H231.426L231.576 291.05H231.101C230.551 289.325 229.126 287.775 227.726 287.775C226.526 287.775 226.051 288.525 226.051 289.45C226.051 290.75 226.851 291.025 228.801 291.675ZM247.079 298.25V298.75L241.804 299.1L241.629 298.925V297.375H241.554C240.704 298.325 239.754 299.325 237.654 299.325C235.379 299.325 234.454 297.6 234.454 295.25V289.75C234.454 289.225 234.204 288.75 233.804 288.475C233.504 288.275 233.004 288.125 232.554 288.1V287.575L237.954 287.275L238.104 287.45V295.425C238.104 297.05 238.654 297.8 239.504 297.8C240.779 297.8 241.354 296.875 241.604 296.4V289.725C241.604 289.225 241.404 288.775 241.054 288.5C240.804 288.3 240.179 288.15 239.604 288.125V287.575L245.029 287.275L245.204 287.45V296.675C245.204 297.225 245.454 297.625 245.829 297.9C246.129 298.125 246.704 298.225 247.079 298.25ZM254.637 298.55C256.037 298.55 256.887 296.6 256.887 293.35C256.887 291.05 256.362 288.6 254.512 288.6C253.612 288.6 253.162 288.95 252.662 289.575V296.75C252.912 297.525 253.387 298.55 254.637 298.55ZM255.987 287.125C258.812 287.125 260.862 289.575 260.862 293.325C260.862 296.775 258.312 299.3 255.462 299.3C254.087 299.3 253.337 298.95 252.762 298.525H252.662V302.55C252.662 303.175 252.912 303.525 253.362 303.7C253.737 303.85 254.737 304.075 255.187 304.125V304.65H247.062V304.125C247.512 304.1 248.137 304 248.437 303.875C248.912 303.7 249.062 303.25 249.062 302.725V289.725C249.062 289.2 248.837 288.75 248.437 288.475C248.137 288.275 247.562 288.1 247.112 288.075V287.575L252.512 287.275L252.687 287.425V288.725L252.787 288.75C253.337 288.125 254.462 287.125 255.987 287.125ZM268.925 298.55C270.325 298.55 271.175 296.6 271.175 293.35C271.175 291.05 270.65 288.6 268.8 288.6C267.9 288.6 267.45 288.95 266.95 289.575V296.75C267.2 297.525 267.675 298.55 268.925 298.55ZM270.275 287.125C273.1 287.125 275.15 289.575 275.15 293.325C275.15 296.775 272.6 299.3 269.75 299.3C268.375 299.3 267.625 298.95 267.05 298.525H266.95V302.55C266.95 303.175 267.2 303.525 267.65 303.7C268.025 303.85 269.025 304.075 269.475 304.125V304.65H261.35V304.125C261.8 304.1 262.425 304 262.725 303.875C263.2 303.7 263.35 303.25 263.35 302.725V289.725C263.35 289.2 263.125 288.75 262.725 288.475C262.425 288.275 261.85 288.1 261.4 288.075V287.575L266.8 287.275L266.975 287.425V288.725L267.075 288.75C267.625 288.125 268.75 287.125 270.275 287.125ZM282.563 287.125C286.463 287.125 288.763 289.65 288.763 293.15C288.763 296.625 286.638 299.375 282.463 299.375C279.088 299.375 276.313 297.05 276.313 293.225C276.313 289.65 278.738 287.125 282.563 287.125ZM282.563 298.725C284.263 298.725 284.738 296.15 284.738 293.125C284.738 290.5 284.438 287.725 282.588 287.725C280.638 287.725 280.363 290.675 280.363 293.075C280.363 296.075 280.788 298.725 282.563 298.725ZM298.392 287.175C299.642 287.175 300.567 288.075 300.567 289.45C300.567 290.625 299.792 291.6 298.642 291.6C297.567 291.6 296.792 291 296.792 289.975C296.792 289.525 297.017 289.075 297.092 288.775C296.017 288.8 295.317 289.625 295.117 289.975V297.075C295.117 297.625 295.367 298 295.792 298.175C296.192 298.35 297.067 298.45 297.442 298.475V299H289.817V298.475C290.217 298.45 290.542 298.4 290.867 298.275C291.342 298.1 291.492 297.725 291.492 297.175V289.775C291.492 289.3 291.217 288.725 290.842 288.45C290.567 288.25 290.017 288.1 289.592 288.075V287.575L294.942 287.275L295.117 287.45V289.125H295.167C296.167 287.825 297.192 287.175 298.392 287.175ZM309.05 295.5H309.7C309.65 297.525 308.7 299.325 306.075 299.325C303.775 299.325 302.625 297.975 302.625 295.75V288.55H300.5V287.475H302.675V283.85H306.225V287.475H309.375V288.55H306.225V295.575C306.225 296.575 306.55 297.6 307.675 297.6C308.85 297.6 309 296.6 309.05 295.5ZM68.0118 325.5L68.5618 325.85C67.7868 327.8 65.9368 329.375 63.6868 329.375C59.6868 329.375 57.8118 326.675 57.8118 323.175C57.8118 320.025 59.9618 317.125 63.8618 317.125C66.7118 317.125 68.0618 318.375 68.0618 320.05C68.0618 321.05 67.4118 321.85 66.1368 321.85C64.9368 321.85 64.2118 321.125 64.2118 320.075C64.2118 319.6 64.6618 318.85 64.7618 318.475C64.6868 318.1 64.4868 317.75 63.8868 317.75C62.6868 317.75 61.7618 319.325 61.7618 322.975C61.7618 325.825 62.9618 327.825 64.7118 327.825C66.4118 327.825 67.3118 327.05 68.0118 325.5ZM83.0946 328.475V329H76.4946V328.475C76.7946 328.45 77.1696 328.425 77.4196 328.275C77.7446 328.1 77.7946 327.725 77.7946 327.175V321.175C77.7946 319.525 77.1946 318.725 76.3446 318.725C75.0196 318.725 74.3696 319.675 74.1196 320.25V327.05C74.1196 327.6 74.1946 327.95 74.5696 328.175C74.8446 328.35 75.2196 328.45 75.5196 328.475V329H68.8196V328.475C69.2696 328.45 69.5696 328.4 69.8946 328.275C70.3696 328.1 70.5196 327.725 70.5196 327.175V313C70.5196 312.45 70.2696 311.85 69.8696 311.575C69.5696 311.375 68.6446 311.175 68.1946 311.15V310.65L73.9696 310.35L74.1196 310.525V319.175H74.1696C75.0946 318.225 75.9696 317.125 78.0696 317.125C80.3696 317.125 81.4446 318.675 81.4446 321.05V327.1C81.4446 327.65 81.5696 328 82.0196 328.2C82.3446 328.35 82.6696 328.425 83.0946 328.475ZM90.4483 326.85L90.5483 322.5C88.8233 323.175 87.7233 323.725 87.7233 325.825C87.7233 327.3 88.2733 327.8 88.9733 327.8C89.8233 327.8 90.0733 327.425 90.4483 326.85ZM95.8983 325.675H96.5233C96.4733 327.775 95.7233 329.325 93.4733 329.325C91.8733 329.325 91.0983 328.625 90.5983 327.7H90.5233C89.6983 328.575 88.8983 329.375 86.9483 329.375C85.2483 329.375 83.9233 328.175 83.9233 326.525C83.9233 324.4 85.1233 323.75 86.3733 323.3C87.8733 322.75 89.8983 322.175 90.5233 321.7V320.25C90.5233 319.4 90.5233 317.725 89.0983 317.725C88.4733 317.725 88.0733 318 87.8733 318.2C87.9483 318.6 88.3233 319.325 88.3233 320.1C88.3233 320.65 87.5733 321.525 86.2733 321.525C84.9733 321.525 84.4733 320.625 84.4733 319.8C84.4733 318.25 87.1483 317.125 89.2983 317.125C91.9733 317.125 94.1733 317.55 94.1733 320.875C94.1733 323.15 94.0233 325.825 94.0233 326.65C94.0233 327.05 94.2983 327.825 94.9233 327.825C95.6733 327.825 95.8733 326.8 95.8983 325.675ZM110.896 328.475V329H104.271V328.475C104.596 328.45 104.946 328.4 105.196 328.275C105.521 328.1 105.571 327.725 105.571 327.175V321.15C105.571 319.425 104.996 318.725 104.121 318.725C102.846 318.725 102.196 319.675 101.921 320.225V327.05C101.921 327.6 102.021 327.975 102.346 328.175C102.671 328.375 102.971 328.425 103.296 328.475V329H96.621V328.475C97.021 328.45 97.346 328.4 97.671 328.275C98.121 328.1 98.296 327.725 98.296 327.175V319.775C98.296 319.25 98.021 318.7 97.646 318.45C97.346 318.25 96.846 318.1 96.446 318.075V317.575L101.746 317.275L101.921 317.45V319.175H101.971C102.871 318.225 103.721 317.125 105.821 317.125C108.096 317.125 109.246 318.675 109.246 321.05V327.075C109.246 327.625 109.371 327.975 109.821 328.175C110.171 328.325 110.446 328.425 110.896 328.475ZM111.894 320.925C111.894 318.275 114.744 317.125 117.094 317.125C118.694 317.125 119.769 317.45 120.194 317.7C120.819 316.1 121.669 315.1 122.769 315.1C123.469 315.1 124.144 315.6 124.144 316.425C124.144 317.225 123.619 317.825 122.844 317.825C122.344 317.825 121.819 317.575 121.444 317C121.119 317.125 120.819 317.575 120.669 318C120.719 318.025 120.769 318.05 120.844 318.125C121.819 318.95 122.269 320 122.269 321.05C122.269 323.3 119.894 324.725 117.319 324.725H115.644C115.394 324.95 115.144 325.15 115.144 325.475C115.144 326.475 116.119 326.375 117.469 326.425C118.269 326.45 119.719 326.525 120.394 326.55C121.944 326.625 123.894 327.825 123.894 330.2C123.894 332.7 121.794 334.7 117.119 334.7C112.869 334.7 111.219 333.475 111.219 331.625C111.219 330.275 112.544 329.325 115.194 329.225V329.125C113.994 328.775 112.494 328.1 112.494 326.7C112.494 325.275 113.994 324.775 115.144 324.55V324.45C112.994 323.8 111.894 322.525 111.894 320.925ZM118.719 320.95C118.719 319.275 118.319 317.75 117.069 317.75C115.844 317.75 115.544 319.2 115.544 320.875C115.544 322.625 116.069 324.15 117.094 324.15C118.294 324.15 118.719 322.525 118.719 320.95ZM120.644 331.125C120.644 330.575 120.444 329.875 119.544 329.55C119.094 329.475 117.594 329.425 115.869 329.425C115.344 329.7 114.744 330.35 114.744 331.625C114.744 332.575 115.494 334 117.694 334C119.544 334 120.644 332.9 120.644 331.125ZM134.826 325.575L135.326 325.95C134.401 327.85 132.576 329.375 130.076 329.375C125.976 329.375 124.076 326.625 124.076 323.175C124.076 319.95 126.126 317.125 129.901 317.125C133.726 317.125 135.051 319.5 135.051 322.1V322.45H127.976C127.951 322.45 127.976 322.725 127.976 322.75C127.976 325.7 128.901 327.875 131.326 327.875C132.851 327.875 133.926 327.325 134.826 325.575ZM127.976 321.75L131.176 321.7C131.176 319.75 131.151 317.775 129.726 317.775C128.576 317.775 128.051 319.225 127.976 321.75ZM142.176 312.65C142.176 311.4 143.151 310.5 144.376 310.5C145.601 310.5 146.551 311.425 146.551 312.65C146.551 313.875 145.601 314.8 144.376 314.8C143.151 314.8 142.176 313.875 142.176 312.65ZM148.226 328.475V329H141.126V328.475C141.551 328.45 141.876 328.4 142.201 328.275C142.651 328.1 142.851 327.7 142.851 327.175V319.775C142.851 319.225 142.626 318.8 142.226 318.525C141.926 318.325 141.201 318.1 140.751 318.075V317.575L146.301 317.275L146.476 317.45V327.05C146.476 327.575 146.701 327.975 147.151 328.175C147.501 328.375 147.826 328.425 148.226 328.475ZM163.098 328.475V329H156.473V328.475C156.798 328.45 157.148 328.4 157.398 328.275C157.723 328.1 157.773 327.725 157.773 327.175V321.15C157.773 319.425 157.198 318.725 156.323 318.725C155.048 318.725 154.398 319.675 154.123 320.225V327.05C154.123 327.6 154.223 327.975 154.548 328.175C154.873 328.375 155.173 328.425 155.498 328.475V329H148.823V328.475C149.223 328.45 149.548 328.4 149.873 328.275C150.323 328.1 150.498 327.725 150.498 327.175V319.775C150.498 319.25 150.223 318.7 149.848 318.45C149.548 318.25 149.048 318.1 148.648 318.075V317.575L153.948 317.275L154.123 317.45V319.175H154.173C155.073 318.225 155.923 317.125 158.023 317.125C160.298 317.125 161.448 318.675 161.448 321.05V327.075C161.448 327.625 161.573 327.975 162.023 328.175C162.373 328.325 162.648 328.425 163.098 328.475ZM164.771 312.65C164.771 311.4 165.746 310.5 166.971 310.5C168.196 310.5 169.146 311.425 169.146 312.65C169.146 313.875 168.196 314.8 166.971 314.8C165.746 314.8 164.771 313.875 164.771 312.65ZM170.821 328.475V329H163.721V328.475C164.146 328.45 164.471 328.4 164.796 328.275C165.246 328.1 165.446 327.7 165.446 327.175V319.775C165.446 319.225 165.221 318.8 164.821 318.525C164.521 318.325 163.796 318.1 163.346 318.075V317.575L168.896 317.275L169.071 317.45V327.05C169.071 327.575 169.296 327.975 169.746 328.175C170.096 328.375 170.421 328.425 170.821 328.475ZM179.243 325.5H179.893C179.843 327.525 178.893 329.325 176.268 329.325C173.968 329.325 172.818 327.975 172.818 325.75V318.55H170.693V317.475H172.868V313.85H176.418V317.475H179.568V318.55H176.418V325.575C176.418 326.575 176.743 327.6 177.868 327.6C179.043 327.6 179.193 326.6 179.243 325.5ZM181.238 312.65C181.238 311.4 182.213 310.5 183.438 310.5C184.663 310.5 185.613 311.425 185.613 312.65C185.613 313.875 184.663 314.8 183.438 314.8C182.213 314.8 181.238 313.875 181.238 312.65ZM187.288 328.475V329H180.188V328.475C180.613 328.45 180.938 328.4 181.263 328.275C181.713 328.1 181.913 327.7 181.913 327.175V319.775C181.913 319.225 181.688 318.8 181.288 318.525C180.988 318.325 180.263 318.1 179.813 318.075V317.575L185.363 317.275L185.538 317.45V327.05C185.538 327.575 185.763 327.975 186.213 328.175C186.563 328.375 186.888 328.425 187.288 328.475ZM194.56 326.85L194.66 322.5C192.935 323.175 191.835 323.725 191.835 325.825C191.835 327.3 192.385 327.8 193.085 327.8C193.935 327.8 194.185 327.425 194.56 326.85ZM200.01 325.675H200.635C200.585 327.775 199.835 329.325 197.585 329.325C195.985 329.325 195.21 328.625 194.71 327.7H194.635C193.81 328.575 193.01 329.375 191.06 329.375C189.36 329.375 188.035 328.175 188.035 326.525C188.035 324.4 189.235 323.75 190.485 323.3C191.985 322.75 194.01 322.175 194.635 321.7V320.25C194.635 319.4 194.635 317.725 193.21 317.725C192.585 317.725 192.185 318 191.985 318.2C192.06 318.6 192.435 319.325 192.435 320.1C192.435 320.65 191.685 321.525 190.385 321.525C189.085 321.525 188.585 320.625 188.585 319.8C188.585 318.25 191.26 317.125 193.41 317.125C196.085 317.125 198.285 317.55 198.285 320.875C198.285 323.15 198.135 325.825 198.135 326.65C198.135 327.05 198.41 327.825 199.035 327.825C199.785 327.825 199.985 326.8 200.01 325.675ZM208.435 325.5H209.085C209.035 327.525 208.085 329.325 205.46 329.325C203.16 329.325 202.01 327.975 202.01 325.75V318.55H199.885V317.475H202.06V313.85H205.61V317.475H208.76V318.55H205.61V325.575C205.61 326.575 205.935 327.6 207.06 327.6C208.235 327.6 208.385 326.6 208.435 325.5ZM210.43 312.65C210.43 311.4 211.405 310.5 212.63 310.5C213.855 310.5 214.805 311.425 214.805 312.65C214.805 313.875 213.855 314.8 212.63 314.8C211.405 314.8 210.43 313.875 210.43 312.65ZM216.48 328.475V329H209.38V328.475C209.805 328.45 210.13 328.4 210.455 328.275C210.905 328.1 211.105 327.7 211.105 327.175V319.775C211.105 319.225 210.88 318.8 210.48 318.525C210.18 318.325 209.455 318.1 209.005 318.075V317.575L214.555 317.275L214.73 317.45V327.05C214.73 327.575 214.955 327.975 215.405 328.175C215.755 328.375 216.08 328.425 216.48 328.475ZM229.052 317.45V317.95C228.477 318.05 227.577 318.4 227.152 319.4C226.727 320.425 225.027 324.875 224.527 326.075C224.102 327.075 223.802 328.075 223.477 329.15H221.602C220.827 327.15 218.477 321.025 217.727 319.2C217.427 318.475 216.702 318.075 216.002 317.975V317.45H222.852V317.975C222.302 318 221.452 318.15 221.452 318.55C221.452 318.575 221.502 318.8 221.602 319.075C221.777 319.6 223.477 324.275 223.977 325.3L224.027 325.4C224.377 324.6 225.677 320.975 226.052 320C226.177 319.675 226.302 319.075 226.302 318.875C226.277 318.325 224.877 318.025 224.452 317.95V317.45H229.052ZM239.432 325.575L239.932 325.95C239.007 327.85 237.182 329.375 234.682 329.375C230.582 329.375 228.682 326.625 228.682 323.175C228.682 319.95 230.732 317.125 234.507 317.125C238.332 317.125 239.657 319.5 239.657 322.1V322.45H232.582C232.557 322.45 232.582 322.725 232.582 322.75C232.582 325.7 233.507 327.875 235.932 327.875C237.457 327.875 238.532 327.325 239.432 325.575ZM232.582 321.75L235.782 321.7C235.782 319.75 235.757 317.775 234.332 317.775C233.182 317.775 232.657 319.225 232.582 321.75ZM246.971 321.675C248.946 322.325 250.321 323.45 250.321 325.5C250.321 328.025 248.221 329.375 245.521 329.375C243.921 329.375 242.596 328.7 242.096 328.3L241.646 329.15H240.896L240.771 324.825H241.271C241.771 326.325 243.296 328.725 245.346 328.725C246.621 328.725 247.221 327.975 247.221 326.8C247.221 325.5 246.071 325.075 244.371 324.5C242.696 323.925 241.096 322.975 241.096 320.65C241.096 318.725 242.746 317.125 245.521 317.125C246.746 317.125 247.846 317.45 248.546 317.8L248.871 317.1H249.596L249.746 321.05H249.271C248.721 319.325 247.296 317.775 245.896 317.775C244.696 317.775 244.221 318.525 244.221 319.45C244.221 320.75 245.021 321.025 246.971 321.675ZM252.049 327.125C252.049 325.875 253.074 324.925 254.299 324.925C255.524 324.925 256.549 325.875 256.549 327.125C256.549 328.375 255.524 329.325 254.299 329.325C253.074 329.325 252.049 328.375 252.049 327.125Z" fill="#FBA500"/>
</svg>
