<svg width="313" height="336" viewBox="0 0 313 336" fill="none" xmlns="http://www.w3.org/2000/svg">
<path d="M156.374 182.999C110.982 183.169 72.4623 145.905 73.5213 97.9567C74.488 54.1061 110.308 16.1187 158.572 17.0156C202.017 17.8243 241.158 53.9126 239.446 103.409C237.964 146.231 202.606 183.118 156.374 182.999ZM186.426 143.524C186.052 146.537 184.355 148.808 182.916 151.211C181.146 154.164 178.588 156.022 175.245 156.779C174.074 157.044 172.854 157.106 171.688 157.39C170.262 157.736 169.134 158.508 168.582 159.977C167.963 161.625 167.529 161.769 166.036 160.758C162.988 158.695 161.059 155.85 160.561 152.193C160.196 149.52 159.916 146.868 158.64 144.414C158.075 143.328 158.05 142.128 158.445 140.9C159.186 138.605 159.433 136.222 158.801 133.882C158.178 131.567 157.506 129.268 155.319 127.739C153.794 126.672 152.727 125.123 152.104 123.315C151.135 120.497 150.145 117.692 148.25 115.314C147.131 113.907 145.724 113.399 143.999 113.774C141.374 114.344 138.802 115.305 136.057 115.017C132.453 114.638 128.934 113.815 125.456 112.812C123.577 112.27 122.266 110.973 121.216 109.41C120.548 108.414 120.337 107.403 121.332 106.353C121.97 105.68 122.187 104.779 121.959 103.768C121.637 102.334 121.171 100.89 121.682 99.387C121.948 98.6041 121.852 97.8126 121.716 97.0039C121.495 95.679 121.454 94.352 122.243 93.154C122.971 92.0485 123.19 90.8053 123.327 89.5127C123.484 88.0566 123.779 86.4757 125.044 85.6563C126.758 84.5465 127.658 83 128.352 81.2084C128.777 80.1115 129.527 79.4641 130.781 79.3544C131.987 79.249 133.129 78.8146 134.18 78.1844C134.788 77.8187 135.355 77.3413 135.297 76.5906C135.241 75.8701 134.592 75.5626 133.963 75.3539C133.391 75.1647 132.809 75.0033 132.229 74.8399C130.726 74.4162 130.463 74.0957 130.876 72.616C131.241 71.3083 131.299 70.0027 131.28 68.6735C131.269 67.8283 131.248 66.9787 131.293 66.1356C131.364 64.8171 132.109 64.273 133.385 64.5569C133.935 64.6795 134.5 64.7591 135.026 64.9505C135.971 65.2925 136.83 65.0172 137.531 64.4838C138.487 63.7568 139.331 62.8814 140.02 61.8705C140.289 61.4748 140.356 61.2425 139.799 61.1113C138.536 60.8167 137.559 60.0703 136.693 59.1369C136.128 58.5282 135.436 58.3045 134.609 58.6035C134.233 58.739 133.834 58.8143 133.439 58.8852C132.64 59.0293 132.161 58.7476 132.257 57.8679C132.433 56.2699 132.665 54.6998 133.546 53.2759C135.335 50.3853 138.278 49.0195 141.069 47.4387C141.662 47.1031 142.022 47.372 142.355 47.8882C143.307 49.3615 144.031 50.9165 144.183 52.6845C144.224 53.1447 144.33 53.5276 144.65 53.8825C145.707 55.0633 147.01 55.9386 148.261 56.885C148.652 57.1818 148.942 57.2098 149.163 56.6462C150.078 54.3234 151.227 52.1081 152.323 49.8669C153.075 48.3312 153.251 46.7354 152.797 45.0556C152.08 42.3972 152.868 40.0872 154.741 38.1988C157.609 35.306 159.418 34.9081 162.634 36.7427C163.66 37.3277 164.737 37.4804 165.869 36.9578C166.853 36.5018 167.862 36.1018 168.867 35.6931C170.76 34.9253 172.579 33.9187 174.708 33.9187C176.678 33.9187 176.891 34.0564 176.811 36.0566C176.74 37.8224 177.522 38.9796 179.022 39.7302C180.136 40.2872 181.288 40.769 182.403 41.3261C183.535 41.8917 184.66 41.995 185.906 41.6896C188.325 41.0981 190.325 39.8227 192.166 38.216C192.709 37.7428 192.623 37.3622 192.116 36.9406C188.815 34.1876 185.174 31.955 181.18 30.4086C173.956 27.6126 166.382 26.4296 158.681 26.064C153.893 25.836 149.116 26.2941 144.4 27.0856C135.022 28.6643 126.247 31.9314 118.114 36.8933C116.716 37.745 116.653 37.7536 117.459 39.2161C118.668 41.4121 119.115 43.5737 117.51 45.7696C116.836 46.6923 117.33 47.3956 117.88 48.1463C119.124 49.8454 119.858 51.7295 119.766 53.876C119.708 55.2246 119.25 55.5644 118.009 55.0417C116.812 54.5385 115.747 54.7213 114.696 55.373C113.472 56.1301 112.164 56.5215 110.701 56.5344C108.746 56.5538 107.908 57.4485 107.659 59.3971C107.537 60.3564 107.47 61.3113 107.421 62.277C107.296 64.6752 105.938 65.9334 103.545 65.9442C102.74 65.9485 101.934 65.9485 101.129 65.9485C98.6994 65.9463 96.7102 66.6518 95.8724 69.2155C95.6426 69.9167 95.1249 70.3146 94.4676 70.6136C93.6212 70.9986 92.7383 71.2588 91.8555 71.5319C89.2563 72.3363 87.3273 73.8677 86.4358 76.5519C83.7206 84.7142 82.4575 93.1023 82.5713 101.688C82.5993 103.764 82.8162 105.861 83.5165 107.859C84.1738 109.739 85.5808 110.791 87.4755 110.827C90.5816 110.889 91.7201 112.027 91.7137 115.18C91.7137 116.142 91.9801 116.91 92.7104 117.525C93.9649 118.583 95.1442 119.691 96.0744 121.08C96.809 122.179 97.9217 122.917 99.2858 122.166C100.905 121.276 102.302 121.497 103.754 122.523C105.227 123.562 106.909 124.334 107.947 125.902C109.64 128.457 109.227 131.318 108.993 134.103C108.74 137.112 108.226 140.087 109.769 142.949C110.398 144.117 110.31 145.427 109.414 146.472C108.432 147.617 107.739 148.929 106.98 150.204C106.192 151.529 106.454 152.772 107.67 153.721C108.05 154.015 108.484 154.243 108.869 154.534C109.296 154.856 109.698 155.252 109.605 155.837C109.438 156.884 110.046 157.489 110.763 158.039C115.566 161.719 120.638 164.939 126.187 167.408C137.453 172.42 149.195 174.631 161.521 173.745C166.711 173.37 171.797 172.527 176.798 171.099C187.818 167.952 197.532 162.468 206.056 154.833C206.361 154.559 206.485 154.258 206.47 153.882C206.395 152.084 207.048 150.499 207.871 148.952C208.419 147.922 208.904 146.881 208.945 145.657C208.975 144.741 209.628 144.126 210.502 144.076C213.529 143.906 215.492 141.848 217.66 140.162C219.015 139.106 219.587 137.658 219.548 135.921C219.505 133.963 219.125 132.03 219.514 130.038C220.076 127.165 221.565 125.519 224.4 125.085C224.811 125.022 225.333 124.917 225.427 124.551C225.827 123.018 227.172 122.031 227.567 120.456C228.231 117.804 228.892 115.157 229.35 112.462C230.185 107.534 230.559 102.572 230.402 97.5739C230.398 97.419 230.387 97.2491 230.149 97.2104C229.128 97.8943 229.279 99.0515 228.939 100.049C228.325 101.867 228.37 103.547 228.991 105.33C229.545 106.926 229.051 108.425 228.108 109.762C227.279 110.939 226.061 110.825 225.425 109.513C225.238 109.128 225.06 108.706 225.204 108.235C225.582 106.986 225.283 106.018 224.162 105.226C222.424 104 222.164 102.155 222.506 100.247C223.036 97.2943 222.237 94.681 220.762 92.1882C220.182 91.2075 219.277 90.7881 218.19 90.6117C216.852 90.3966 215.434 90.4289 214.248 89.6396C213.301 89.0072 212.848 89.5148 212.539 90.3171C212.047 91.5925 211.611 92.8873 211.389 94.2466C210.648 98.7955 208.309 100.604 204.043 101.848C202.561 102.28 200.928 102.172 199.405 102.504C198.344 102.736 197.824 102.531 197.394 101.51C196.799 100.095 195.968 98.7504 194.699 97.8556C191.951 95.9156 190.578 93.2249 190.022 89.9987C189.867 89.1019 189.816 88.1555 189.29 87.1962C188.387 92.3022 188.944 95.2639 191.53 99.6709C191.854 100.221 192.17 100.813 192.316 101.426C192.731 103.153 193.964 103.859 195.519 104.334C198.054 105.11 200.64 104.68 203.201 104.773C204.419 104.818 205.42 105.205 206.053 106.261C206.668 107.285 206.215 108.218 205.607 109.059C205.181 109.648 205.194 110.085 205.682 110.649C206.419 111.496 206.406 112.455 205.892 113.453C205.134 114.931 203.929 116.021 202.64 116.959C200.773 118.318 199.287 119.966 198.258 122.007C197.371 123.764 196.166 125.143 194.308 125.883C193.072 126.373 192.467 127.375 192.101 128.58C191.779 129.64 191.831 130.726 191.818 131.812C191.788 134.249 191.908 134.576 194.845 135.475C196.318 135.925 197.79 135.589 199.268 135.518C200.795 135.443 201.261 136.041 200.872 137.514C200.32 139.613 199.897 141.736 199.521 143.874C199.167 145.896 198.557 146.479 196.546 146.692C195.515 146.801 194.75 147.247 194.325 148.118C194.018 148.746 193.605 148.883 192.995 148.905C190.329 149.006 189.015 148.217 187.878 145.767C187.528 145.01 187.27 144.201 186.42 143.526L186.426 143.524ZM180.13 84.2324C180.875 84.2819 181.458 83.9894 181.984 83.4883C183.056 82.4666 183.477 81.146 183.855 79.7717C184.067 78.9995 183.909 78.4489 183.329 77.9456C181.397 76.2702 179.204 75.2249 176.644 74.8764C173.503 74.4484 170.363 74.0097 167.385 72.7923C166.328 72.36 165.211 71.7148 164.021 72.0697C162.726 72.4546 161.938 72.0223 161.358 70.9125C160.168 68.6413 157.635 68.409 155.71 67.2562C155.513 67.1379 155.049 67.2906 154.804 67.4583C152.937 68.7187 150.879 68.9037 148.699 68.7768C147.782 68.723 147.15 69.5919 146.933 70.3469C146.735 71.033 147.659 71.005 148.132 71.2222C149.919 72.0503 151.826 71.9234 153.715 71.8825C155.405 71.846 156.655 72.5428 157.549 73.9473C158.088 74.7947 158.61 75.655 159.182 76.4831C160.741 78.7479 161.766 79.0856 164.419 78.3199C166.752 77.6467 169.13 77.3391 171.568 77.4402C173.222 77.509 174.382 78.2145 175.127 79.6856C175.507 80.4363 175.907 81.1891 176.397 81.8687C177.316 83.1506 178.497 84.0754 180.136 84.2303L180.13 84.2324ZM159.121 50.5186C159.807 50.3874 160.528 50.2648 161.231 50.381C163.031 50.6756 164.618 49.953 166.223 49.3808C167.555 48.9077 168.021 47.3032 167.027 46.6794C165.381 45.6492 163.749 44.5652 161.869 43.7823C162.979 47.5247 161.942 48.5076 159.121 50.5165V50.5186ZM201.22 44.4792C199.656 43.4833 198.303 42.5477 196.877 41.7433C196.172 41.3476 195.369 40.8271 194.497 41.253C193.055 41.9584 191.65 42.737 190.239 43.4984C190.114 43.5651 189.955 43.7414 189.962 43.8576C190.022 44.9652 189.354 45.7911 188.875 46.7676C192.608 44.2017 196.748 44.0189 201.222 44.477L201.22 44.4792Z" fill="#FBA500"/>
<path d="M146.888 231.912L147.32 232.136C146.616 233.832 145.144 235.24 142.808 235.24C139.768 235.24 137.336 233.176 137.336 229.656C137.336 226.184 139.736 223.8 143.032 223.8C144.28 223.8 145.16 224.152 145.864 224.52L146.28 223.928H146.824L146.888 228.024H146.44C145.688 225.592 144.52 224.312 143.112 224.312C141.24 224.312 140.312 226.328 140.312 229.384C140.312 232.728 141.528 234.344 143.384 234.344C145.032 234.344 146.04 233.448 146.888 231.912ZM151.917 227.4C154.413 227.4 155.885 229.016 155.885 231.256C155.885 233.48 154.525 235.24 151.853 235.24C149.693 235.24 147.917 233.752 147.917 231.304C147.917 229.016 149.469 227.4 151.917 227.4ZM151.917 234.824C153.005 234.824 153.309 233.176 153.309 231.24C153.309 229.56 153.117 227.784 151.933 227.784C150.685 227.784 150.509 229.672 150.509 231.208C150.509 233.128 150.781 234.824 151.917 234.824ZM170.192 234.664V235H165.984V234.664C166.208 234.648 166.416 234.616 166.576 234.536C166.784 234.424 166.8 234.184 166.8 233.832V229.976C166.8 228.92 166.448 228.424 165.888 228.424C165.056 228.424 164.704 229 164.544 229.336V233.752C164.544 234.104 164.592 234.328 164.816 234.472C164.976 234.568 165.184 234.648 165.376 234.664V235H161.408V234.664C161.616 234.648 161.824 234.632 161.984 234.536C162.192 234.424 162.208 234.184 162.208 233.832V229.976C162.208 228.92 161.872 228.424 161.328 228.424C160.48 228.424 160.128 229.032 159.952 229.352V233.752C159.952 234.104 159.984 234.312 160.224 234.472C160.4 234.584 160.576 234.648 160.768 234.664V235H156.56V234.664C156.816 234.648 157.04 234.616 157.232 234.536C157.52 234.424 157.632 234.184 157.632 233.832V229.096C157.632 228.76 157.456 228.408 157.216 228.248C157.024 228.12 156.704 228.024 156.448 228.008V227.688L159.84 227.496L159.936 227.608V228.68H159.984C160.56 228.088 161.056 227.4 162.4 227.4C163.408 227.4 164.096 227.88 164.432 228.744C164.448 228.728 164.496 228.728 164.512 228.712C165.12 228.072 165.712 227.4 167.04 227.4C168.48 227.4 169.136 228.424 169.136 229.912V233.768C169.136 234.12 169.232 234.328 169.504 234.472C169.728 234.6 169.92 234.632 170.192 234.664ZM184.242 234.664V235H180.034V234.664C180.258 234.648 180.466 234.616 180.626 234.536C180.834 234.424 180.85 234.184 180.85 233.832V229.976C180.85 228.92 180.498 228.424 179.938 228.424C179.106 228.424 178.754 229 178.594 229.336V233.752C178.594 234.104 178.642 234.328 178.866 234.472C179.026 234.568 179.234 234.648 179.426 234.664V235H175.458V234.664C175.666 234.648 175.874 234.632 176.034 234.536C176.242 234.424 176.258 234.184 176.258 233.832V229.976C176.258 228.92 175.922 228.424 175.378 228.424C174.53 228.424 174.178 229.032 174.002 229.352V233.752C174.002 234.104 174.034 234.312 174.274 234.472C174.45 234.584 174.626 234.648 174.818 234.664V235H170.61V234.664C170.866 234.648 171.09 234.616 171.282 234.536C171.57 234.424 171.682 234.184 171.682 233.832V229.096C171.682 228.76 171.506 228.408 171.266 228.248C171.074 228.12 170.754 228.024 170.498 228.008V227.688L173.89 227.496L173.986 227.608V228.68H174.034C174.61 228.088 175.106 227.4 176.45 227.4C177.458 227.4 178.146 227.88 178.482 228.744C178.498 228.728 178.546 228.728 178.562 228.712C179.17 228.072 179.762 227.4 181.09 227.4C182.53 227.4 183.186 228.424 183.186 229.912V233.768C183.186 234.12 183.282 234.328 183.554 234.472C183.778 234.6 183.97 234.632 184.242 234.664ZM193.605 234.52V234.84L190.229 235.064L190.117 234.952V233.96H190.069C189.525 234.568 188.917 235.208 187.573 235.208C186.117 235.208 185.525 234.104 185.525 232.6V229.08C185.525 228.744 185.365 228.44 185.109 228.264C184.917 228.136 184.597 228.04 184.309 228.024V227.688L187.765 227.496L187.861 227.608V232.712C187.861 233.752 188.213 234.232 188.757 234.232C189.573 234.232 189.941 233.64 190.101 233.336V229.064C190.101 228.744 189.973 228.456 189.749 228.28C189.589 228.152 189.189 228.056 188.821 228.04V227.688L192.293 227.496L192.405 227.608V233.512C192.405 233.864 192.565 234.12 192.805 234.296C192.997 234.44 193.365 234.504 193.605 234.52ZM203.097 234.664V235H198.857V234.664C199.065 234.648 199.289 234.616 199.449 234.536C199.657 234.424 199.689 234.184 199.689 233.832V229.976C199.689 228.872 199.321 228.424 198.761 228.424C197.945 228.424 197.529 229.032 197.353 229.384V233.752C197.353 234.104 197.417 234.344 197.625 234.472C197.833 234.6 198.025 234.632 198.233 234.664V235H193.961V234.664C194.217 234.648 194.425 234.616 194.633 234.536C194.921 234.424 195.033 234.184 195.033 233.832V229.096C195.033 228.76 194.857 228.408 194.617 228.248C194.425 228.12 194.105 228.024 193.849 228.008V227.688L197.241 227.496L197.353 227.608V228.712H197.385C197.961 228.104 198.505 227.4 199.849 227.4C201.305 227.4 202.042 228.392 202.042 229.912V233.768C202.042 234.12 202.122 234.344 202.41 234.472C202.634 234.568 202.809 234.632 203.097 234.664ZM204.168 224.536C204.168 223.736 204.792 223.16 205.576 223.16C206.36 223.16 206.968 223.752 206.968 224.536C206.968 225.32 206.36 225.912 205.576 225.912C204.792 225.912 204.168 225.32 204.168 224.536ZM208.04 234.664V235H203.496V234.664C203.768 234.648 203.976 234.616 204.184 234.536C204.472 234.424 204.6 234.168 204.6 233.832V229.096C204.6 228.744 204.456 228.472 204.2 228.296C204.008 228.168 203.544 228.024 203.256 228.008V227.688L206.808 227.496L206.92 227.608V233.752C206.92 234.088 207.064 234.344 207.352 234.472C207.576 234.6 207.784 234.632 208.04 234.664ZM213.43 232.76H213.846C213.814 234.056 213.206 235.208 211.526 235.208C210.054 235.208 209.318 234.344 209.318 232.92V228.312H207.958V227.624H209.35V225.304H211.622V227.624H213.638V228.312H211.622V232.808C211.622 233.448 211.83 234.104 212.55 234.104C213.302 234.104 213.398 233.464 213.43 232.76ZM214.707 224.536C214.707 223.736 215.331 223.16 216.115 223.16C216.899 223.16 217.507 223.752 217.507 224.536C217.507 225.32 216.899 225.912 216.115 225.912C215.331 225.912 214.707 225.32 214.707 224.536ZM218.579 234.664V235H214.035V234.664C214.307 234.648 214.515 234.616 214.723 234.536C215.011 234.424 215.139 234.168 215.139 233.832V229.096C215.139 228.744 214.995 228.472 214.739 228.296C214.547 228.168 214.083 228.024 213.795 228.008V227.688L217.347 227.496L217.459 227.608V233.752C217.459 234.088 217.603 234.344 217.891 234.472C218.115 234.6 218.323 234.632 218.579 234.664ZM225.905 232.808L226.225 233.048C225.633 234.264 224.465 235.24 222.865 235.24C220.241 235.24 219.025 233.48 219.025 231.272C219.025 229.208 220.337 227.4 222.753 227.4C225.201 227.4 226.049 228.92 226.049 230.584V230.808H221.521C221.505 230.808 221.521 230.984 221.521 231C221.521 232.888 222.113 234.28 223.665 234.28C224.641 234.28 225.329 233.928 225.905 232.808ZM221.521 230.36L223.569 230.328C223.569 229.08 223.553 227.816 222.641 227.816C221.905 227.816 221.569 228.744 221.521 230.36ZM230.73 230.312C231.994 230.728 232.874 231.448 232.874 232.76C232.874 234.376 231.53 235.24 229.802 235.24C228.778 235.24 227.93 234.808 227.61 234.552L227.322 235.096H226.842L226.762 232.328H227.082C227.402 233.288 228.378 234.824 229.69 234.824C230.506 234.824 230.89 234.344 230.89 233.592C230.89 232.76 230.154 232.488 229.066 232.12C227.994 231.752 226.97 231.144 226.97 229.656C226.97 228.424 228.026 227.4 229.802 227.4C230.586 227.4 231.29 227.608 231.738 227.832L231.946 227.384H232.41L232.506 229.912H232.202C231.85 228.808 230.938 227.816 230.042 227.816C229.274 227.816 228.97 228.296 228.97 228.888C228.97 229.72 229.482 229.896 230.73 230.312ZM240.64 225.8C240.64 226.52 240.96 227.16 241.536 228.024C242.496 227.4 242.8 226.84 242.8 225.944C242.8 224.904 242.288 224.344 241.632 224.344C241.008 224.344 240.64 224.808 240.64 225.8ZM242.784 233.448C241.568 231.912 240.288 230.2 239.776 229.496C239.424 230.024 239.232 230.952 239.232 231.944C239.232 233.512 239.936 234.264 240.976 234.264C241.76 234.264 242.352 233.88 242.784 233.448ZM241.856 228.504C242.16 228.952 243.152 230.36 244.192 231.688C244.864 230.776 245.504 229.816 245.504 229.176C245.504 228.84 245.168 228.664 244.064 228.44V228.104H248.416V228.44C247.504 228.536 246.816 228.84 246.48 229.224C246.112 229.64 245.28 231.048 244.512 232.088C245.28 233 246.032 233.816 246.544 234.12C247.104 234.456 247.184 234.552 248.144 234.648V235H244.08C243.776 234.648 243.44 234.248 243.088 233.816C242.32 234.584 241.264 235.256 240.128 235.256C238.32 235.256 236.752 234.456 236.752 232.616C236.752 231.016 237.984 230.024 239.488 229.096C239.056 228.456 238.32 227.272 238.32 226.312C238.32 224.856 239.568 223.848 241.6 223.848C242.96 223.848 243.536 224.76 243.536 225.96C243.536 226.904 242.896 227.672 241.76 228.376C241.76 228.376 241.824 228.456 241.856 228.504ZM147.032 244.224C148.104 245.2 148.808 246.624 148.808 248.464C148.808 250.24 148.168 251.824 147 252.88C145.992 253.792 144.68 254.288 143.016 254.288C141.48 254.288 140.056 253.744 139.016 252.768C137.976 251.792 137.336 250.384 137.336 248.656C137.336 246.736 138.04 245.232 139.176 244.224C140.2 243.312 141.56 242.784 143.08 242.784C144.584 242.784 145.992 243.28 147.032 244.224ZM143.08 253.744C145.064 253.744 145.8 251.376 145.8 248.512C145.8 246.016 145.192 243.328 143.08 243.328C141.256 243.328 140.344 245.376 140.344 248.576C140.344 251.344 141.08 253.744 143.08 253.744ZM155.013 246.432C155.813 246.432 156.405 247.008 156.405 247.888C156.405 248.64 155.909 249.264 155.173 249.264C154.485 249.264 153.989 248.88 153.989 248.224C153.989 247.936 154.133 247.648 154.181 247.456C153.493 247.472 153.045 248 152.917 248.224V252.768C152.917 253.12 153.077 253.36 153.349 253.472C153.605 253.584 154.165 253.648 154.405 253.664V254H149.525V253.664C149.781 253.648 149.989 253.616 150.197 253.536C150.501 253.424 150.597 253.184 150.597 252.832V248.096C150.597 247.792 150.421 247.424 150.181 247.248C150.005 247.12 149.653 247.024 149.381 247.008V246.688L152.805 246.496L152.917 246.608V247.68H152.949C153.589 246.848 154.245 246.432 155.013 246.432ZM156.893 248.832C156.893 247.136 158.717 246.4 160.221 246.4C161.245 246.4 161.933 246.608 162.205 246.768C162.605 245.744 163.149 245.104 163.853 245.104C164.301 245.104 164.733 245.424 164.733 245.952C164.733 246.464 164.397 246.848 163.901 246.848C163.581 246.848 163.245 246.688 163.005 246.32C162.797 246.4 162.605 246.688 162.509 246.96C162.541 246.976 162.573 246.992 162.621 247.04C163.245 247.568 163.533 248.24 163.533 248.912C163.533 250.352 162.013 251.264 160.365 251.264H159.293C159.133 251.408 158.973 251.536 158.973 251.744C158.973 252.384 159.597 252.32 160.461 252.352C160.973 252.368 161.901 252.416 162.333 252.432C163.325 252.48 164.573 253.248 164.573 254.768C164.573 256.368 163.229 257.648 160.237 257.648C157.517 257.648 156.461 256.864 156.461 255.68C156.461 254.816 157.309 254.208 159.005 254.144V254.08C158.237 253.856 157.277 253.424 157.277 252.528C157.277 251.616 158.237 251.296 158.973 251.152V251.088C157.597 250.672 156.893 249.856 156.893 248.832ZM161.261 248.848C161.261 247.776 161.005 246.8 160.205 246.8C159.421 246.8 159.229 247.728 159.229 248.8C159.229 249.92 159.565 250.896 160.221 250.896C160.989 250.896 161.261 249.856 161.261 248.848ZM162.493 255.36C162.493 255.008 162.365 254.56 161.789 254.352C161.501 254.304 160.541 254.272 159.437 254.272C159.101 254.448 158.717 254.864 158.717 255.68C158.717 256.288 159.197 257.2 160.605 257.2C161.789 257.2 162.493 256.496 162.493 255.36ZM168.976 252.624L169.04 249.84C167.936 250.272 167.232 250.624 167.232 251.968C167.232 252.912 167.584 253.232 168.032 253.232C168.576 253.232 168.736 252.992 168.976 252.624ZM172.464 251.872H172.864C172.832 253.216 172.352 254.208 170.912 254.208C169.888 254.208 169.392 253.76 169.072 253.168H169.024C168.496 253.728 167.984 254.24 166.736 254.24C165.648 254.24 164.8 253.472 164.8 252.416C164.8 251.056 165.568 250.64 166.368 250.352C167.328 250 168.624 249.632 169.024 249.328V248.4C169.024 247.856 169.024 246.784 168.112 246.784C167.712 246.784 167.456 246.96 167.328 247.088C167.376 247.344 167.616 247.808 167.616 248.304C167.616 248.656 167.136 249.216 166.304 249.216C165.472 249.216 165.152 248.64 165.152 248.112C165.152 247.12 166.864 246.4 168.24 246.4C169.952 246.4 171.36 246.672 171.36 248.8C171.36 250.256 171.264 251.968 171.264 252.496C171.264 252.752 171.44 253.248 171.84 253.248C172.32 253.248 172.448 252.592 172.464 251.872ZM182.062 253.664V254H177.822V253.664C178.03 253.648 178.254 253.616 178.414 253.536C178.622 253.424 178.654 253.184 178.654 252.832V248.976C178.654 247.872 178.286 247.424 177.726 247.424C176.91 247.424 176.494 248.032 176.318 248.384V252.752C176.318 253.104 176.382 253.344 176.59 253.472C176.798 253.6 176.99 253.632 177.198 253.664V254H172.926V253.664C173.182 253.648 173.39 253.616 173.598 253.536C173.886 253.424 173.998 253.184 173.998 252.832V248.096C173.998 247.76 173.822 247.408 173.582 247.248C173.39 247.12 173.07 247.024 172.814 247.008V246.688L176.206 246.496L176.318 246.608V247.712H176.35C176.926 247.104 177.47 246.4 178.814 246.4C180.27 246.4 181.007 247.392 181.007 248.912V252.768C181.007 253.12 181.087 253.344 181.375 253.472C181.599 253.568 181.774 253.632 182.062 253.664ZM183.133 243.536C183.133 242.736 183.757 242.16 184.541 242.16C185.325 242.16 185.933 242.752 185.933 243.536C185.933 244.32 185.325 244.912 184.541 244.912C183.757 244.912 183.133 244.32 183.133 243.536ZM187.005 253.664V254H182.461V253.664C182.733 253.648 182.941 253.616 183.149 253.536C183.437 253.424 183.565 253.168 183.565 252.832V248.096C183.565 247.744 183.421 247.472 183.165 247.296C182.973 247.168 182.509 247.024 182.221 247.008V246.688L185.773 246.496L185.885 246.608V252.752C185.885 253.088 186.029 253.344 186.317 253.472C186.541 253.6 186.749 253.632 187.005 253.664ZM193.915 251.232V254H187.227V253.648L191.147 247.088H190.267C189.579 247.088 189.099 247.152 188.747 247.312C188.347 247.488 188.075 248.32 187.899 249.024H187.515V246.608H193.803V246.896L189.883 253.52C190.267 253.536 190.603 253.536 190.987 253.536C191.531 253.536 191.915 253.504 192.219 253.472C192.587 253.424 192.875 253.264 193.035 252.864C193.243 252.336 193.435 251.616 193.547 251.232H193.915ZM198.647 252.624L198.711 249.84C197.607 250.272 196.903 250.624 196.903 251.968C196.903 252.912 197.255 253.232 197.703 253.232C198.247 253.232 198.407 252.992 198.647 252.624ZM202.135 251.872H202.535C202.503 253.216 202.023 254.208 200.583 254.208C199.559 254.208 199.063 253.76 198.743 253.168H198.695C198.167 253.728 197.655 254.24 196.407 254.24C195.319 254.24 194.471 253.472 194.471 252.416C194.471 251.056 195.239 250.64 196.039 250.352C196.999 250 198.295 249.632 198.695 249.328V248.4C198.695 247.856 198.695 246.784 197.783 246.784C197.383 246.784 197.127 246.96 196.999 247.088C197.047 247.344 197.287 247.808 197.287 248.304C197.287 248.656 196.807 249.216 195.975 249.216C195.143 249.216 194.823 248.64 194.823 248.112C194.823 247.12 196.535 246.4 197.911 246.4C199.623 246.4 201.031 246.672 201.031 248.8C201.031 250.256 200.935 251.968 200.935 252.496C200.935 252.752 201.111 253.248 201.511 253.248C201.991 253.248 202.119 252.592 202.135 251.872ZM207.528 251.76H207.944C207.912 253.056 207.304 254.208 205.624 254.208C204.152 254.208 203.416 253.344 203.416 251.92V247.312H202.056V246.624H203.448V244.304H205.72V246.624H207.736V247.312H205.72V251.808C205.72 252.448 205.928 253.104 206.648 253.104C207.4 253.104 207.496 252.464 207.528 251.76ZM208.804 243.536C208.804 242.736 209.428 242.16 210.212 242.16C210.996 242.16 211.604 242.752 211.604 243.536C211.604 244.32 210.996 244.912 210.212 244.912C209.428 244.912 208.804 244.32 208.804 243.536ZM212.676 253.664V254H208.132V253.664C208.404 253.648 208.612 253.616 208.82 253.536C209.108 253.424 209.236 253.168 209.236 252.832V248.096C209.236 247.744 209.092 247.472 208.836 247.296C208.644 247.168 208.18 247.024 207.892 247.008V246.688L211.444 246.496L211.556 246.608V252.752C211.556 253.088 211.7 253.344 211.988 253.472C212.212 253.6 212.42 253.632 212.676 253.664ZM217.122 246.4C219.618 246.4 221.09 248.016 221.09 250.256C221.09 252.48 219.73 254.24 217.058 254.24C214.898 254.24 213.122 252.752 213.122 250.304C213.122 248.016 214.674 246.4 217.122 246.4ZM217.122 253.824C218.21 253.824 218.514 252.176 218.514 250.24C218.514 248.56 218.322 246.784 217.138 246.784C215.89 246.784 215.714 248.672 215.714 250.208C215.714 252.128 215.986 253.824 217.122 253.824ZM230.901 253.664V254H226.661V253.664C226.869 253.648 227.093 253.616 227.253 253.536C227.461 253.424 227.493 253.184 227.493 252.832V248.976C227.493 247.872 227.125 247.424 226.565 247.424C225.749 247.424 225.333 248.032 225.157 248.384V252.752C225.157 253.104 225.221 253.344 225.429 253.472C225.637 253.6 225.829 253.632 226.037 253.664V254H221.765V253.664C222.021 253.648 222.229 253.616 222.437 253.536C222.725 253.424 222.837 253.184 222.837 252.832V248.096C222.837 247.76 222.661 247.408 222.421 247.248C222.229 247.12 221.909 247.024 221.653 247.008V246.688L225.045 246.496L225.157 246.608V247.712H225.189C225.765 247.104 226.309 246.4 227.653 246.4C229.109 246.4 229.845 247.392 229.845 248.912V252.768C229.845 253.12 229.925 253.344 230.213 253.472C230.437 253.568 230.613 253.632 230.901 253.664ZM235.3 249.312C236.564 249.728 237.444 250.448 237.444 251.76C237.444 253.376 236.1 254.24 234.372 254.24C233.348 254.24 232.5 253.808 232.18 253.552L231.892 254.096H231.412L231.332 251.328H231.652C231.972 252.288 232.948 253.824 234.26 253.824C235.076 253.824 235.46 253.344 235.46 252.592C235.46 251.76 234.724 251.488 233.636 251.12C232.564 250.752 231.54 250.144 231.54 248.656C231.54 247.424 232.596 246.4 234.372 246.4C235.156 246.4 235.86 246.608 236.308 246.832L236.516 246.384H236.98L237.076 248.912H236.772C236.42 247.808 235.508 246.816 234.612 246.816C233.844 246.816 233.54 247.296 233.54 247.888C233.54 248.72 234.052 248.896 235.3 249.312Z" fill="#FBA500"/>
<path d="M62.7986 254V250.95C66.3986 248.35 70.5486 245.45 74.3986 242.05C78.5986 238.3 80.1986 234.6 80.1986 229.65C80.1986 226 78.6486 223.55 75.3986 223.55C70.9986 223.55 68.7486 228.95 68.7486 233C68.7486 235.9 70.0986 237.05 72.0486 237.05C74.4486 237.05 75.8986 235.35 76.8486 234.3L77.1486 234.55C75.6986 237.1 73.0986 239.95 69.2486 239.95C65.0986 239.95 62.8486 237.4 62.8486 233.95C62.8486 228.45 68.6986 222.95 76.6486 222.95C82.7986 222.95 87.7486 225.95 87.7486 231C87.7486 237.5 80.6986 241.9 70.3986 246.45L68.2486 248.05H83.5486C86.1986 248.05 87.5986 245.2 88.5986 243.1L88.9986 243.25L85.8986 254H62.7986ZM105.856 254.8C96.8561 254.8 91.9561 247.7 91.9561 239.55C91.9561 229.25 98.9061 222.95 106.456 222.95C115.506 222.95 120.406 229.95 120.406 238.2C120.406 248.45 113.556 254.8 105.856 254.8ZM106.056 254.25C110.106 254.25 112.006 247.85 112.006 238.85C112.006 230.75 110.906 223.5 106.256 223.5C102.306 223.5 100.356 229.85 100.356 238.9C100.356 247.25 101.456 254.25 106.056 254.25Z" fill="#FBA500"/>
<path d="M7.76504 298.55C9.16504 298.55 10.015 296.6 10.015 293.35C10.015 291.05 9.49004 288.6 7.64004 288.6C6.74004 288.6 6.29004 288.95 5.79004 289.575V296.75C6.04004 297.525 6.51504 298.55 7.76504 298.55ZM9.11504 287.125C11.94 287.125 13.99 289.575 13.99 293.325C13.99 296.775 11.44 299.3 8.59004 299.3C7.21504 299.3 6.46504 298.95 5.89004 298.525H5.79004V302.55C5.79004 303.175 6.04004 303.525 6.49004 303.7C6.86504 303.85 7.86504 304.075 8.31504 304.125V304.65H0.190039V304.125C0.640039 304.1 1.26504 304 1.56504 303.875C2.04004 303.7 2.19004 303.25 2.19004 302.725V289.725C2.19004 289.2 1.96504 288.75 1.56504 288.475C1.26504 288.275 0.690039 288.1 0.240039 288.075V287.575L5.64004 287.275L5.81504 287.425V288.725L5.91504 288.75C6.46504 288.125 7.59004 287.125 9.11504 287.125ZM23.6281 287.175C24.8781 287.175 25.8031 288.075 25.8031 289.45C25.8031 290.625 25.0281 291.6 23.8781 291.6C22.8031 291.6 22.0281 291 22.0281 289.975C22.0281 289.525 22.2531 289.075 22.3281 288.775C21.2531 288.8 20.5531 289.625 20.3531 289.975V297.075C20.3531 297.625 20.6031 298 21.0281 298.175C21.4281 298.35 22.3031 298.45 22.6781 298.475V299H15.0531V298.475C15.4531 298.45 15.7781 298.4 16.1031 298.275C16.5781 298.1 16.7281 297.725 16.7281 297.175V289.775C16.7281 289.3 16.4531 288.725 16.0781 288.45C15.8031 288.25 15.2531 288.1 14.8281 288.075V287.575L20.1781 287.275L20.3531 287.45V289.125H20.4031C21.4031 287.825 22.4281 287.175 23.6281 287.175ZM32.5662 287.125C36.4662 287.125 38.7662 289.65 38.7662 293.15C38.7662 296.625 36.6412 299.375 32.4662 299.375C29.0912 299.375 26.3162 297.05 26.3162 293.225C26.3162 289.65 28.7412 287.125 32.5662 287.125ZM32.5662 298.725C34.2662 298.725 34.7412 296.15 34.7412 293.125C34.7412 290.5 34.4412 287.725 32.5912 287.725C30.6412 287.725 30.3662 290.675 30.3662 293.075C30.3662 296.075 30.7912 298.725 32.5662 298.725ZM51.7957 287.45V287.95C51.2207 288.05 50.3207 288.4 49.8957 289.4C49.4707 290.425 47.7707 294.875 47.2707 296.075C46.8457 297.075 46.5457 298.075 46.2207 299.15H44.3457C43.5707 297.15 41.2207 291.025 40.4707 289.2C40.1707 288.475 39.4457 288.075 38.7457 287.975V287.45H45.5957V287.975C45.0457 288 44.1957 288.15 44.1957 288.55C44.1957 288.575 44.2457 288.8 44.3457 289.075C44.5207 289.6 46.2207 294.275 46.7207 295.3L46.7707 295.4C47.1207 294.6 48.4207 290.975 48.7957 290C48.9207 289.675 49.0457 289.075 49.0457 288.875C49.0207 288.325 47.6207 288.025 47.1957 287.95V287.45H51.7957ZM52.4727 282.65C52.4727 281.4 53.4477 280.5 54.6727 280.5C55.8977 280.5 56.8477 281.425 56.8477 282.65C56.8477 283.875 55.8977 284.8 54.6727 284.8C53.4477 284.8 52.4727 283.875 52.4727 282.65ZM58.5227 298.475V299H51.4227V298.475C51.8477 298.45 52.1727 298.4 52.4977 298.275C52.9477 298.1 53.1477 297.7 53.1477 297.175V289.775C53.1477 289.225 52.9227 288.8 52.5227 288.525C52.2227 288.325 51.4977 288.1 51.0477 288.075V287.575L56.5977 287.275L56.7727 287.45V297.05C56.7727 297.575 56.9977 297.975 57.4477 298.175C57.7977 298.375 58.1227 298.425 58.5227 298.475ZM65.6195 297.925C66.5695 297.925 66.9695 297.575 67.4945 296.9V289.7C67.2945 288.95 66.7945 287.875 65.5695 287.875C64.1195 287.875 63.2195 290 63.2195 293.3C63.2195 295.675 63.7695 297.925 65.6195 297.925ZM73.1695 298.25V298.75L67.6945 299.1L67.5195 298.925V297.775L67.4195 297.75C66.8695 298.325 65.7445 299.35 64.2195 299.35C61.3445 299.35 59.2445 296.9 59.2445 293.075C59.2445 289.575 61.7945 287.125 64.6695 287.125C66.0195 287.125 67.0445 287.525 67.4945 287.725V283.125C67.4945 282.575 67.2695 281.95 66.8695 281.7C66.4195 281.4 65.3945 281.2 64.6945 281.15V280.65L70.9195 280.35L71.0945 280.525V296.675C71.0945 297.225 71.3445 297.6 71.7195 297.875C71.9945 298.075 72.7445 298.225 73.1695 298.25ZM74.5303 282.65C74.5303 281.4 75.5053 280.5 76.7303 280.5C77.9553 280.5 78.9053 281.425 78.9053 282.65C78.9053 283.875 77.9553 284.8 76.7303 284.8C75.5053 284.8 74.5303 283.875 74.5303 282.65ZM80.5803 298.475V299H73.4803V298.475C73.9053 298.45 74.2303 298.4 74.5553 298.275C75.0053 298.1 75.2053 297.7 75.2053 297.175V289.775C75.2053 289.225 74.9803 288.8 74.5803 288.525C74.2803 288.325 73.5553 288.1 73.1053 288.075V287.575L78.6553 287.275L78.8303 287.45V297.05C78.8303 297.575 79.0553 297.975 79.5053 298.175C79.8553 298.375 80.1803 298.425 80.5803 298.475ZM95.4521 298.475V299H88.8271V298.475C89.1521 298.45 89.5021 298.4 89.7521 298.275C90.0771 298.1 90.1271 297.725 90.1271 297.175V291.15C90.1271 289.425 89.5521 288.725 88.6771 288.725C87.4021 288.725 86.7521 289.675 86.4771 290.225V297.05C86.4771 297.6 86.5771 297.975 86.9021 298.175C87.2271 298.375 87.5271 298.425 87.8521 298.475V299H81.1771V298.475C81.5771 298.45 81.9021 298.4 82.2271 298.275C82.6771 298.1 82.8521 297.725 82.8521 297.175V289.775C82.8521 289.25 82.5771 288.7 82.2021 288.45C81.9021 288.25 81.4021 288.1 81.0021 288.075V287.575L86.3021 287.275L86.4771 287.45V289.175H86.5271C87.4271 288.225 88.2771 287.125 90.3771 287.125C92.6521 287.125 93.8021 288.675 93.8021 291.05V297.075C93.8021 297.625 93.9271 297.975 94.3771 298.175C94.7271 298.325 95.0021 298.425 95.4521 298.475ZM96.45 290.925C96.45 288.275 99.3 287.125 101.65 287.125C103.25 287.125 104.325 287.45 104.75 287.7C105.375 286.1 106.225 285.1 107.325 285.1C108.025 285.1 108.7 285.6 108.7 286.425C108.7 287.225 108.175 287.825 107.4 287.825C106.9 287.825 106.375 287.575 106 287C105.675 287.125 105.375 287.575 105.225 288C105.275 288.025 105.325 288.05 105.4 288.125C106.375 288.95 106.825 290 106.825 291.05C106.825 293.3 104.45 294.725 101.875 294.725H100.2C99.95 294.95 99.7 295.15 99.7 295.475C99.7 296.475 100.675 296.375 102.025 296.425C102.825 296.45 104.275 296.525 104.95 296.55C106.5 296.625 108.45 297.825 108.45 300.2C108.45 302.7 106.35 304.7 101.675 304.7C97.425 304.7 95.775 303.475 95.775 301.625C95.775 300.275 97.1 299.325 99.75 299.225V299.125C98.55 298.775 97.05 298.1 97.05 296.7C97.05 295.275 98.55 294.775 99.7 294.55V294.45C97.55 293.8 96.45 292.525 96.45 290.925ZM103.275 290.95C103.275 289.275 102.875 287.75 101.625 287.75C100.4 287.75 100.1 289.2 100.1 290.875C100.1 292.625 100.625 294.15 101.65 294.15C102.85 294.15 103.275 292.525 103.275 290.95ZM105.2 301.125C105.2 300.575 105 299.875 104.1 299.55C103.65 299.475 102.15 299.425 100.425 299.425C99.9 299.7 99.3 300.35 99.3 301.625C99.3 302.575 100.05 304 102.25 304C104.1 304 105.2 302.9 105.2 301.125ZM120.305 291.675C122.28 292.325 123.655 293.45 123.655 295.5C123.655 298.025 121.555 299.375 118.855 299.375C117.255 299.375 115.93 298.7 115.43 298.3L114.98 299.15H114.23L114.105 294.825H114.605C115.105 296.325 116.63 298.725 118.68 298.725C119.955 298.725 120.555 297.975 120.555 296.8C120.555 295.5 119.405 295.075 117.705 294.5C116.03 293.925 114.43 292.975 114.43 290.65C114.43 288.725 116.08 287.125 118.855 287.125C120.08 287.125 121.18 287.45 121.88 287.8L122.205 287.1H122.93L123.08 291.05H122.605C122.055 289.325 120.63 287.775 119.23 287.775C118.03 287.775 117.555 288.525 117.555 289.45C117.555 290.75 118.355 291.025 120.305 291.675ZM138.584 298.25V298.75L133.309 299.1L133.134 298.925V297.375H133.059C132.209 298.325 131.259 299.325 129.159 299.325C126.884 299.325 125.959 297.6 125.959 295.25V289.75C125.959 289.225 125.709 288.75 125.309 288.475C125.009 288.275 124.509 288.125 124.059 288.1V287.575L129.459 287.275L129.609 287.45V295.425C129.609 297.05 130.159 297.8 131.009 297.8C132.284 297.8 132.859 296.875 133.109 296.4V289.725C133.109 289.225 132.909 288.775 132.559 288.5C132.309 288.3 131.684 288.15 131.109 288.125V287.575L136.534 287.275L136.709 287.45V296.675C136.709 297.225 136.959 297.625 137.334 297.9C137.634 298.125 138.209 298.225 138.584 298.25ZM146.141 298.55C147.541 298.55 148.391 296.6 148.391 293.35C148.391 291.05 147.866 288.6 146.016 288.6C145.116 288.6 144.666 288.95 144.166 289.575V296.75C144.416 297.525 144.891 298.55 146.141 298.55ZM147.491 287.125C150.316 287.125 152.366 289.575 152.366 293.325C152.366 296.775 149.816 299.3 146.966 299.3C145.591 299.3 144.841 298.95 144.266 298.525H144.166V302.55C144.166 303.175 144.416 303.525 144.866 303.7C145.241 303.85 146.241 304.075 146.691 304.125V304.65H138.566V304.125C139.016 304.1 139.641 304 139.941 303.875C140.416 303.7 140.566 303.25 140.566 302.725V289.725C140.566 289.2 140.341 288.75 139.941 288.475C139.641 288.275 139.066 288.1 138.616 288.075V287.575L144.016 287.275L144.191 287.425V288.725L144.291 288.75C144.841 288.125 145.966 287.125 147.491 287.125ZM160.429 298.55C161.829 298.55 162.679 296.6 162.679 293.35C162.679 291.05 162.154 288.6 160.304 288.6C159.404 288.6 158.954 288.95 158.454 289.575V296.75C158.704 297.525 159.179 298.55 160.429 298.55ZM161.779 287.125C164.604 287.125 166.654 289.575 166.654 293.325C166.654 296.775 164.104 299.3 161.254 299.3C159.879 299.3 159.129 298.95 158.554 298.525H158.454V302.55C158.454 303.175 158.704 303.525 159.154 303.7C159.529 303.85 160.529 304.075 160.979 304.125V304.65H152.854V304.125C153.304 304.1 153.929 304 154.229 303.875C154.704 303.7 154.854 303.25 154.854 302.725V289.725C154.854 289.2 154.629 288.75 154.229 288.475C153.929 288.275 153.354 288.1 152.904 288.075V287.575L158.304 287.275L158.479 287.425V288.725L158.579 288.75C159.129 288.125 160.254 287.125 161.779 287.125ZM174.067 287.125C177.967 287.125 180.267 289.65 180.267 293.15C180.267 296.625 178.142 299.375 173.967 299.375C170.592 299.375 167.817 297.05 167.817 293.225C167.817 289.65 170.242 287.125 174.067 287.125ZM174.067 298.725C175.767 298.725 176.242 296.15 176.242 293.125C176.242 290.5 175.942 287.725 174.092 287.725C172.142 287.725 171.867 290.675 171.867 293.075C171.867 296.075 172.292 298.725 174.067 298.725ZM189.897 287.175C191.147 287.175 192.072 288.075 192.072 289.45C192.072 290.625 191.297 291.6 190.147 291.6C189.072 291.6 188.297 291 188.297 289.975C188.297 289.525 188.522 289.075 188.597 288.775C187.522 288.8 186.822 289.625 186.622 289.975V297.075C186.622 297.625 186.872 298 187.297 298.175C187.697 298.35 188.572 298.45 188.947 298.475V299H181.322V298.475C181.722 298.45 182.047 298.4 182.372 298.275C182.847 298.1 182.997 297.725 182.997 297.175V289.775C182.997 289.3 182.722 288.725 182.347 288.45C182.072 288.25 181.522 288.1 181.097 288.075V287.575L186.447 287.275L186.622 287.45V289.125H186.672C187.672 287.825 188.697 287.175 189.897 287.175ZM200.554 295.5H201.204C201.154 297.525 200.204 299.325 197.579 299.325C195.279 299.325 194.129 297.975 194.129 295.75V288.55H192.004V287.475H194.179V283.85H197.729V287.475H200.879V288.55H197.729V295.575C197.729 296.575 198.054 297.6 199.179 297.6C200.354 297.6 200.504 296.6 200.554 295.5ZM214.53 295.5H215.18C215.13 297.525 214.18 299.325 211.555 299.325C209.255 299.325 208.105 297.975 208.105 295.75V288.55H205.98V287.475H208.155V283.85H211.705V287.475H214.855V288.55H211.705V295.575C211.705 296.575 212.03 297.6 213.155 297.6C214.33 297.6 214.48 296.6 214.53 295.5ZM221.85 287.125C225.75 287.125 228.05 289.65 228.05 293.15C228.05 296.625 225.925 299.375 221.75 299.375C218.375 299.375 215.6 297.05 215.6 293.225C215.6 289.65 218.025 287.125 221.85 287.125ZM221.85 298.725C223.55 298.725 224.025 296.15 224.025 293.125C224.025 290.5 223.725 287.725 221.875 287.725C219.925 287.725 219.65 290.675 219.65 293.075C219.65 296.075 220.075 298.725 221.85 298.725ZM241.287 298.55C242.687 298.55 243.537 296.6 243.537 293.35C243.537 291.05 243.012 288.6 241.162 288.6C240.262 288.6 239.812 288.95 239.312 289.575V296.75C239.562 297.525 240.037 298.55 241.287 298.55ZM242.637 287.125C245.462 287.125 247.512 289.575 247.512 293.325C247.512 296.775 244.962 299.3 242.112 299.3C240.737 299.3 239.987 298.95 239.412 298.525H239.312V302.55C239.312 303.175 239.562 303.525 240.012 303.7C240.387 303.85 241.387 304.075 241.837 304.125V304.65H233.712V304.125C234.162 304.1 234.787 304 235.087 303.875C235.562 303.7 235.712 303.25 235.712 302.725V289.725C235.712 289.2 235.487 288.75 235.087 288.475C234.787 288.275 234.212 288.1 233.762 288.075V287.575L239.162 287.275L239.337 287.425V288.725L239.437 288.75C239.987 288.125 241.112 287.125 242.637 287.125ZM259.425 295.575L259.925 295.95C259 297.85 257.175 299.375 254.675 299.375C250.575 299.375 248.675 296.625 248.675 293.175C248.675 289.95 250.725 287.125 254.5 287.125C258.325 287.125 259.65 289.5 259.65 292.1V292.45H252.575C252.55 292.45 252.575 292.725 252.575 292.75C252.575 295.7 253.5 297.875 255.925 297.875C257.45 297.875 258.525 297.325 259.425 295.575ZM252.575 291.75L255.775 291.7C255.775 289.75 255.75 287.775 254.325 287.775C253.175 287.775 252.65 289.225 252.575 291.75ZM267.04 287.125C270.94 287.125 273.24 289.65 273.24 293.15C273.24 296.625 271.115 299.375 266.94 299.375C263.565 299.375 260.79 297.05 260.79 293.225C260.79 289.65 263.215 287.125 267.04 287.125ZM267.04 298.725C268.74 298.725 269.215 296.15 269.215 293.125C269.215 290.5 268.915 287.725 267.065 287.725C265.115 287.725 264.84 290.675 264.84 293.075C264.84 296.075 265.265 298.725 267.04 298.725ZM281.294 298.55C282.694 298.55 283.544 296.6 283.544 293.35C283.544 291.05 283.019 288.6 281.169 288.6C280.269 288.6 279.819 288.95 279.319 289.575V296.75C279.569 297.525 280.044 298.55 281.294 298.55ZM282.644 287.125C285.469 287.125 287.519 289.575 287.519 293.325C287.519 296.775 284.969 299.3 282.119 299.3C280.744 299.3 279.994 298.95 279.419 298.525H279.319V302.55C279.319 303.175 279.569 303.525 280.019 303.7C280.394 303.85 281.394 304.075 281.844 304.125V304.65H273.719V304.125C274.169 304.1 274.794 304 275.094 303.875C275.569 303.7 275.719 303.25 275.719 302.725V289.725C275.719 289.2 275.494 288.75 275.094 288.475C274.794 288.275 274.219 288.1 273.769 288.075V287.575L279.169 287.275L279.344 287.425V288.725L279.444 288.75C279.994 288.125 281.119 287.125 282.644 287.125ZM295.357 298.475V299H288.332V298.475C288.732 298.45 289.057 298.4 289.382 298.275C289.857 298.1 290.032 297.725 290.032 297.175V283.075C290.032 282.425 289.757 281.9 289.357 281.625C289.057 281.425 288.082 281.175 287.632 281.15V280.65L293.457 280.35L293.632 280.525V297.05C293.632 297.6 293.832 297.975 294.282 298.175C294.632 298.325 294.907 298.425 295.357 298.475ZM306.86 295.575L307.36 295.95C306.435 297.85 304.61 299.375 302.11 299.375C298.01 299.375 296.11 296.625 296.11 293.175C296.11 289.95 298.16 287.125 301.935 287.125C305.76 287.125 307.085 289.5 307.085 292.1V292.45H300.01C299.985 292.45 300.01 292.725 300.01 292.75C300.01 295.7 300.935 297.875 303.36 297.875C304.885 297.875 305.96 297.325 306.86 295.575ZM300.01 291.75L303.21 291.7C303.21 289.75 303.185 287.775 301.76 287.775C300.61 287.775 300.085 289.225 300.01 291.75ZM69.8746 326.85L69.9746 322.5C68.2496 323.175 67.1496 323.725 67.1496 325.825C67.1496 327.3 67.6996 327.8 68.3996 327.8C69.2496 327.8 69.4996 327.425 69.8746 326.85ZM75.3246 325.675H75.9496C75.8996 327.775 75.1496 329.325 72.8996 329.325C71.2996 329.325 70.5246 328.625 70.0246 327.7H69.9496C69.1246 328.575 68.3246 329.375 66.3746 329.375C64.6746 329.375 63.3496 328.175 63.3496 326.525C63.3496 324.4 64.5496 323.75 65.7996 323.3C67.2996 322.75 69.3246 322.175 69.9496 321.7V320.25C69.9496 319.4 69.9496 317.725 68.5246 317.725C67.8996 317.725 67.4996 318 67.2996 318.2C67.3746 318.6 67.7496 319.325 67.7496 320.1C67.7496 320.65 66.9996 321.525 65.6996 321.525C64.3996 321.525 63.8996 320.625 63.8996 319.8C63.8996 318.25 66.5746 317.125 68.7246 317.125C71.3996 317.125 73.5996 317.55 73.5996 320.875C73.5996 323.15 73.4496 325.825 73.4496 326.65C73.4496 327.05 73.7246 327.825 74.3496 327.825C75.0996 327.825 75.2996 326.8 75.3246 325.675ZM86.3473 325.5L86.8973 325.85C86.1223 327.8 84.2723 329.375 82.0223 329.375C78.0223 329.375 76.1473 326.675 76.1473 323.175C76.1473 320.025 78.2973 317.125 82.1973 317.125C85.0473 317.125 86.3973 318.375 86.3973 320.05C86.3973 321.05 85.7473 321.85 84.4723 321.85C83.2723 321.85 82.5473 321.125 82.5473 320.075C82.5473 319.6 82.9973 318.85 83.0973 318.475C83.0223 318.1 82.8223 317.75 82.2223 317.75C81.0223 317.75 80.0973 319.325 80.0973 322.975C80.0973 325.825 81.2973 327.825 83.0473 327.825C84.7473 327.825 85.6473 327.05 86.3473 325.5ZM96.0051 317.175C97.2551 317.175 98.1801 318.075 98.1801 319.45C98.1801 320.625 97.4051 321.6 96.2551 321.6C95.1801 321.6 94.4051 321 94.4051 319.975C94.4051 319.525 94.6301 319.075 94.7051 318.775C93.6301 318.8 92.9301 319.625 92.7301 319.975V327.075C92.7301 327.625 92.9801 328 93.4051 328.175C93.8051 328.35 94.6801 328.45 95.0551 328.475V329H87.4301V328.475C87.8301 328.45 88.1551 328.4 88.4801 328.275C88.9551 328.1 89.1051 327.725 89.1051 327.175V319.775C89.1051 319.3 88.8301 318.725 88.4551 318.45C88.1801 318.25 87.6301 318.1 87.2051 318.075V317.575L92.5551 317.275L92.7301 317.45V319.125H92.7801C93.7801 317.825 94.8051 317.175 96.0051 317.175ZM104.943 317.125C108.843 317.125 111.143 319.65 111.143 323.15C111.143 326.625 109.018 329.375 104.843 329.375C101.468 329.375 98.6932 327.05 98.6932 323.225C98.6932 319.65 101.118 317.125 104.943 317.125ZM104.943 328.725C106.643 328.725 107.118 326.15 107.118 323.125C107.118 320.5 106.818 317.725 104.968 317.725C103.018 317.725 102.743 320.675 102.743 323.075C102.743 326.075 103.168 328.725 104.943 328.725ZM118.423 321.675C120.398 322.325 121.773 323.45 121.773 325.5C121.773 328.025 119.673 329.375 116.973 329.375C115.373 329.375 114.048 328.7 113.548 328.3L113.098 329.15H112.348L112.223 324.825H112.723C113.223 326.325 114.748 328.725 116.798 328.725C118.073 328.725 118.673 327.975 118.673 326.8C118.673 325.5 117.523 325.075 115.823 324.5C114.148 323.925 112.548 322.975 112.548 320.65C112.548 318.725 114.198 317.125 116.973 317.125C118.198 317.125 119.298 317.45 119.998 317.8L120.323 317.1H121.048L121.198 321.05H120.723C120.173 319.325 118.748 317.775 117.348 317.775C116.148 317.775 115.673 318.525 115.673 319.45C115.673 320.75 116.473 321.025 118.423 321.675ZM128.951 321.675C130.926 322.325 132.301 323.45 132.301 325.5C132.301 328.025 130.201 329.375 127.501 329.375C125.901 329.375 124.576 328.7 124.076 328.3L123.626 329.15H122.876L122.751 324.825H123.251C123.751 326.325 125.276 328.725 127.326 328.725C128.601 328.725 129.201 327.975 129.201 326.8C129.201 325.5 128.051 325.075 126.351 324.5C124.676 323.925 123.076 322.975 123.076 320.65C123.076 318.725 124.726 317.125 127.501 317.125C128.726 317.125 129.826 317.45 130.526 317.8L130.851 317.1H131.576L131.726 321.05H131.251C130.701 319.325 129.276 317.775 127.876 317.775C126.676 317.775 126.201 318.525 126.201 319.45C126.201 320.75 127.001 321.025 128.951 321.675ZM146.261 325.5H146.911C146.861 327.525 145.911 329.325 143.286 329.325C140.986 329.325 139.836 327.975 139.836 325.75V318.55H137.711V317.475H139.886V313.85H143.436V317.475H146.586V318.55H143.436V325.575C143.436 326.575 143.761 327.6 144.886 327.6C146.061 327.6 146.211 326.6 146.261 325.5ZM161.231 328.475V329H154.631V328.475C154.931 328.45 155.306 328.425 155.556 328.275C155.881 328.1 155.931 327.725 155.931 327.175V321.175C155.931 319.525 155.331 318.725 154.481 318.725C153.156 318.725 152.506 319.675 152.256 320.25V327.05C152.256 327.6 152.331 327.95 152.706 328.175C152.981 328.35 153.356 328.45 153.656 328.475V329H146.956V328.475C147.406 328.45 147.706 328.4 148.031 328.275C148.506 328.1 148.656 327.725 148.656 327.175V313C148.656 312.45 148.406 311.85 148.006 311.575C147.706 311.375 146.781 311.175 146.331 311.15V310.65L152.106 310.35L152.256 310.525V319.175H152.306C153.231 318.225 154.106 317.125 156.206 317.125C158.506 317.125 159.581 318.675 159.581 321.05V327.1C159.581 327.65 159.706 328 160.156 328.2C160.481 328.35 160.806 328.425 161.231 328.475ZM172.76 325.575L173.26 325.95C172.335 327.85 170.51 329.375 168.01 329.375C163.91 329.375 162.01 326.625 162.01 323.175C162.01 319.95 164.06 317.125 167.835 317.125C171.66 317.125 172.985 319.5 172.985 322.1V322.45H165.91C165.885 322.45 165.91 322.725 165.91 322.75C165.91 325.7 166.835 327.875 169.26 327.875C170.785 327.875 171.86 327.325 172.76 325.575ZM165.91 321.75L169.11 321.7C169.11 319.75 169.085 317.775 167.66 317.775C166.51 317.775 165.985 319.225 165.91 321.75ZM197.684 317.45V317.925C197.034 318.05 196.234 318.275 195.784 319.4L193.159 326.075C192.759 327.125 192.409 328.075 192.084 329.15H190.409C189.859 327.625 188.459 323.575 187.884 322.025C187.759 322.25 186.584 325.375 186.334 326.075C185.959 327.125 185.609 328.125 185.334 329.15H183.534C182.759 327.175 180.509 321.05 179.759 319.225C179.459 318.475 178.734 318.05 178.034 317.975V317.45H184.559V317.975C184.084 318 183.434 318.15 183.434 318.55C183.434 318.6 183.484 318.8 183.584 319.075C183.759 319.6 185.384 324.15 185.809 325.2L185.909 325.275C186.209 324.6 187.234 321.675 187.484 321.025C187.409 320.8 186.934 319.5 186.809 319.225C186.534 318.375 185.934 318.05 185.309 317.975V317.45H191.809V317.975C191.259 318 190.409 318.125 190.409 318.575C190.409 318.6 190.434 318.8 190.534 319.075C190.734 319.6 192.259 324.15 192.684 325.175L192.759 325.25C193.084 324.45 194.309 320.975 194.684 320.025C194.809 319.725 194.934 319.1 194.934 318.9C194.934 318.325 193.484 318.025 193.059 317.95V317.45H197.684ZM203.555 317.125C207.455 317.125 209.755 319.65 209.755 323.15C209.755 326.625 207.63 329.375 203.455 329.375C200.08 329.375 197.305 327.05 197.305 323.225C197.305 319.65 199.73 317.125 203.555 317.125ZM203.555 328.725C205.255 328.725 205.73 326.15 205.73 323.125C205.73 320.5 205.43 317.725 203.58 317.725C201.63 317.725 201.355 320.675 201.355 323.075C201.355 326.075 201.78 328.725 203.555 328.725ZM219.385 317.175C220.635 317.175 221.56 318.075 221.56 319.45C221.56 320.625 220.785 321.6 219.635 321.6C218.56 321.6 217.785 321 217.785 319.975C217.785 319.525 218.01 319.075 218.085 318.775C217.01 318.8 216.31 319.625 216.11 319.975V327.075C216.11 327.625 216.36 328 216.785 328.175C217.185 328.35 218.06 328.45 218.435 328.475V329H210.81V328.475C211.21 328.45 211.535 328.4 211.86 328.275C212.335 328.1 212.485 327.725 212.485 327.175V319.775C212.485 319.3 212.21 318.725 211.835 318.45C211.56 318.25 211.01 318.1 210.585 318.075V317.575L215.935 317.275L216.11 317.45V319.125H216.16C217.16 317.825 218.185 317.175 219.385 317.175ZM228.748 328.475V329H221.723V328.475C222.123 328.45 222.448 328.4 222.773 328.275C223.248 328.1 223.423 327.725 223.423 327.175V313.075C223.423 312.425 223.148 311.9 222.748 311.625C222.448 311.425 221.473 311.175 221.023 311.15V310.65L226.848 310.35L227.023 310.525V327.05C227.023 327.6 227.223 327.975 227.673 328.175C228.023 328.325 228.298 328.425 228.748 328.475ZM235.901 327.925C236.851 327.925 237.251 327.575 237.776 326.9V319.7C237.576 318.95 237.076 317.875 235.851 317.875C234.401 317.875 233.501 320 233.501 323.3C233.501 325.675 234.051 327.925 235.901 327.925ZM243.451 328.25V328.75L237.976 329.1L237.801 328.925V327.775L237.701 327.75C237.151 328.325 236.026 329.35 234.501 329.35C231.626 329.35 229.526 326.9 229.526 323.075C229.526 319.575 232.076 317.125 234.951 317.125C236.301 317.125 237.326 317.525 237.776 317.725V313.125C237.776 312.575 237.551 311.95 237.151 311.7C236.701 311.4 235.676 311.2 234.976 311.15V310.65L241.201 310.35L241.376 310.525V326.675C241.376 327.225 241.626 327.6 242.001 327.875C242.276 328.075 243.026 328.225 243.451 328.25ZM244.562 327.125C244.562 325.875 245.587 324.925 246.812 324.925C248.037 324.925 249.062 325.875 249.062 327.125C249.062 328.375 248.037 329.325 246.812 329.325C245.587 329.325 244.562 328.375 244.562 327.125Z" fill="#FBA500"/>
</svg>
