<svg width="345" height="336" viewBox="0 0 345 336" fill="none" xmlns="http://www.w3.org/2000/svg">
<path d="M250.787 76.9001C250.787 78.6669 250.787 80.3069 250.787 81.9501C250.81 106.279 250.813 130.608 250.872 154.937C250.894 164.5 246.702 168.902 237.199 168.915C193.973 168.964 150.747 168.99 107.521 169C99.5247 169 95.1178 165.122 94.4766 157.137C94.0796 152.187 94.2032 147.193 94.1967 142.218C94.1674 121.299 94.1967 100.38 94.1284 79.4609C94.1219 77.5118 94.5352 76.604 96.6833 76.604C147.652 76.6528 198.624 76.6561 249.593 76.6756C249.856 76.6756 250.12 76.77 250.787 76.9001ZM172.404 156.401C191.024 156.961 206.611 142.24 207.613 123.925C208.7 104.089 192.121 86.987 174.572 86.8243C155.203 86.6454 138.308 100.79 137.82 118.374C137.204 140.575 151.011 155.76 172.401 156.401H172.404Z" fill="#FBA500"/>
<path d="M142.259 50.2901C142.259 46.0504 142.256 41.9115 142.259 37.7726C142.269 30.3538 146.646 25.3201 153.992 25.177C166.428 24.9329 178.878 24.9492 191.314 25.177C198.136 25.3006 202.497 30.1 202.64 36.9461C202.718 40.6295 202.705 44.3226 202.526 47.9994C202.425 50.0396 202.992 50.7066 205.117 50.6838C215.806 50.57 226.497 50.596 237.189 50.609C241.999 50.6155 246.208 51.7446 249.124 56.147C251.49 59.7198 250.647 63.6049 250.849 67.3956C250.868 67.7665 249.742 68.5116 249.114 68.5507C246.729 68.7101 244.327 68.6678 241.931 68.6678C195.665 68.6678 149.4 68.6678 103.134 68.6581C100.924 68.6581 98.7111 68.5409 96.5012 68.5539C94.9357 68.5605 94.0374 68.0821 94.2294 66.3055C94.4279 64.4769 94.4117 62.6189 94.6525 60.7968C95.3458 55.5744 98.8641 51.8487 104.166 51.1231C107.434 50.6741 110.776 50.6676 114.086 50.6416C123.209 50.5732 132.332 50.5992 141.455 50.5797C141.621 50.5797 141.784 50.4658 142.262 50.2869L142.259 50.2901ZM153.826 50.5244H190.907V38.3713C190.396 38.1208 190.237 37.9711 190.074 37.9711C178.676 37.8897 167.275 37.7791 155.877 37.8507C155.19 37.8539 153.976 39.2661 153.921 40.0828C153.696 43.4473 153.826 46.8378 153.826 50.5244Z" fill="#FBA500"/>
<path d="M179.971 129.085C179.971 133.65 179.88 137.874 180.01 142.091C180.075 144.115 179.323 144.977 177.364 144.961C174.233 144.935 171.105 144.954 167.974 144.922C166.23 144.906 165.27 144.141 165.296 142.234C165.354 138.007 165.315 133.781 165.315 129.121C161.26 129.121 157.712 129.128 154.161 129.121C149.504 129.108 148.937 128.545 148.898 123.886C148.882 122.044 148.882 120.199 148.898 118.357C148.928 115.143 149.686 114.261 152.944 114.101C155.424 113.981 157.92 114.098 160.407 114.131C165.169 114.196 165.13 114.202 165.11 109.292C165.1 106.624 165.221 103.953 165.315 101.285C165.393 99.0654 166.405 97.9298 168.794 98.086C171.275 98.2487 173.777 98.06 176.254 98.2617C179.76 98.5448 180.108 99.0036 180.114 102.498C180.121 105.446 180.176 108.404 179.994 111.342C179.867 113.421 180.612 114.16 182.659 114.088C185.882 113.974 189.114 114.144 192.336 114.014C194.868 113.913 195.929 115.27 195.994 117.472C196.082 120.508 195.971 123.554 195.828 126.59C195.747 128.285 194.91 129.186 192.98 129.131C188.752 129.01 184.518 129.092 179.971 129.092V129.085Z" fill="#FBA500"/>
<path d="M239.736 234.632V235H233.656V234.632C233.928 234.6 234.712 234.52 234.936 234.408C235.304 234.216 235.448 233.96 235.448 233.592V225.08L235.4 225.208L231.768 234.824H231.016C230.92 234.488 230.44 233.048 230.264 232.6L227.592 225.496L227.544 226.072V231.96C227.544 233.208 227.704 233.816 228.072 234.12C228.344 234.344 229.336 234.6 229.624 234.632V235H224.936V234.632C225.208 234.6 226.008 234.488 226.376 234.216C226.744 233.944 226.888 233.256 226.888 232.04V226.232C226.888 225.576 226.728 225.144 226.408 224.888C226.04 224.584 225.432 224.472 225.016 224.44V224.072H229.768L232.504 231.192L234.664 225.432C234.872 224.872 234.984 224.248 235 224.072H239.72V224.44C239.448 224.472 238.856 224.568 238.568 224.664C238.184 224.792 238.088 225.096 238.088 225.448V233.592C238.088 233.944 238.216 234.2 238.568 234.376C238.744 234.472 239.464 234.6 239.736 234.632ZM246.937 232.808L247.257 233.048C246.665 234.264 245.497 235.24 243.897 235.24C241.273 235.24 240.057 233.48 240.057 231.272C240.057 229.208 241.369 227.4 243.785 227.4C246.233 227.4 247.081 228.92 247.081 230.584V230.808H242.553C242.537 230.808 242.553 230.984 242.553 231C242.553 232.888 243.145 234.28 244.697 234.28C245.673 234.28 246.361 233.928 246.937 232.808ZM242.553 230.36L244.601 230.328C244.601 229.08 244.585 227.816 243.673 227.816C242.937 227.816 242.601 228.744 242.553 230.36ZM251.829 234.312C252.437 234.312 252.693 234.088 253.029 233.656V229.048C252.901 228.568 252.581 227.88 251.797 227.88C250.869 227.88 250.293 229.24 250.293 231.352C250.293 232.872 250.645 234.312 251.829 234.312ZM256.661 234.52V234.84L253.157 235.064L253.045 234.952V234.216L252.981 234.2C252.629 234.568 251.909 235.224 250.933 235.224C249.093 235.224 247.749 233.656 247.749 231.208C247.749 228.968 249.381 227.4 251.221 227.4C252.085 227.4 252.741 227.656 253.029 227.784V224.84C253.029 224.488 252.885 224.088 252.629 223.928C252.341 223.736 251.685 223.608 251.237 223.576V223.256L255.221 223.064L255.333 223.176V233.512C255.333 233.864 255.493 234.104 255.733 234.28C255.909 234.408 256.389 234.504 256.661 234.52ZM257.532 224.536C257.532 223.736 258.156 223.16 258.94 223.16C259.724 223.16 260.332 223.752 260.332 224.536C260.332 225.32 259.724 225.912 258.94 225.912C258.156 225.912 257.532 225.32 257.532 224.536ZM261.404 234.664V235H256.86V234.664C257.132 234.648 257.34 234.616 257.548 234.536C257.836 234.424 257.964 234.168 257.964 233.832V229.096C257.964 228.744 257.82 228.472 257.564 228.296C257.372 228.168 256.908 228.024 256.62 228.008V227.688L260.172 227.496L260.284 227.608V233.752C260.284 234.088 260.428 234.344 260.716 234.472C260.94 234.6 261.148 234.632 261.404 234.664ZM268.378 232.76L268.73 232.984C268.234 234.232 267.05 235.24 265.61 235.24C263.05 235.24 261.85 233.512 261.85 231.272C261.85 229.256 263.226 227.4 265.722 227.4C267.546 227.4 268.41 228.2 268.41 229.272C268.41 229.912 267.994 230.424 267.178 230.424C266.41 230.424 265.946 229.96 265.946 229.288C265.946 228.984 266.234 228.504 266.298 228.264C266.25 228.024 266.122 227.8 265.738 227.8C264.97 227.8 264.378 228.808 264.378 231.144C264.378 232.968 265.146 234.248 266.266 234.248C267.354 234.248 267.93 233.752 268.378 232.76ZM273.343 233.624L273.407 230.84C272.303 231.272 271.599 231.624 271.599 232.968C271.599 233.912 271.951 234.232 272.399 234.232C272.943 234.232 273.103 233.992 273.343 233.624ZM276.831 232.872H277.231C277.199 234.216 276.719 235.208 275.279 235.208C274.255 235.208 273.759 234.76 273.439 234.168H273.391C272.863 234.728 272.351 235.24 271.103 235.24C270.015 235.24 269.167 234.472 269.167 233.416C269.167 232.056 269.935 231.64 270.735 231.352C271.695 231 272.991 230.632 273.391 230.328V229.4C273.391 228.856 273.391 227.784 272.479 227.784C272.079 227.784 271.823 227.96 271.695 228.088C271.743 228.344 271.983 228.808 271.983 229.304C271.983 229.656 271.503 230.216 270.671 230.216C269.839 230.216 269.519 229.64 269.519 229.112C269.519 228.12 271.231 227.4 272.607 227.4C274.319 227.4 275.727 227.672 275.727 229.8C275.727 231.256 275.631 232.968 275.631 233.496C275.631 233.752 275.807 234.248 276.207 234.248C276.687 234.248 276.815 233.592 276.831 232.872ZM281.629 234.664V235H277.133V234.664C277.389 234.648 277.597 234.616 277.805 234.536C278.109 234.424 278.221 234.184 278.221 233.832V224.808C278.221 224.392 278.045 224.056 277.789 223.88C277.597 223.752 276.973 223.592 276.685 223.576V223.256L280.413 223.064L280.525 223.176V233.752C280.525 234.104 280.653 234.344 280.941 234.472C281.165 234.568 281.341 234.632 281.629 234.664ZM231.72 247.76C232.968 248.288 233.768 249.12 233.768 250.816C233.768 252.768 232.152 254.24 229.656 254.24C227.976 254.24 227.064 253.728 226.488 253.408L226.008 254.128H225.464L225.368 250.096H225.784C226.36 251.648 227.688 253.696 229.384 253.696C230.6 253.696 231.384 252.832 231.384 251.76C231.384 250.816 230.824 250.24 229.64 249.824C228.936 249.584 228.088 249.328 227.592 249.12C226.232 248.544 225.624 247.376 225.624 246.032C225.624 244.304 226.984 242.8 229.384 242.8C230.568 242.8 231.624 243.184 232.168 243.52L232.584 242.928H233.144L233.208 246.72H232.792C232.2 245.056 231.32 243.344 229.608 243.344C228.648 243.344 227.928 244.144 227.928 245.12C227.928 246.064 228.456 246.624 229.656 247.056C230.296 247.296 231.208 247.536 231.72 247.76ZM243.484 253.52V253.84L240.108 254.064L239.996 253.952V252.96H239.948C239.404 253.568 238.796 254.208 237.452 254.208C235.996 254.208 235.404 253.104 235.404 251.6V248.08C235.404 247.744 235.244 247.44 234.988 247.264C234.796 247.136 234.476 247.04 234.188 247.024V246.688L237.644 246.496L237.74 246.608V251.712C237.74 252.752 238.092 253.232 238.636 253.232C239.452 253.232 239.82 252.64 239.98 252.336V248.064C239.98 247.744 239.852 247.456 239.628 247.28C239.468 247.152 239.068 247.056 238.7 247.04V246.688L242.172 246.496L242.284 246.608V252.512C242.284 252.864 242.444 253.12 242.684 253.296C242.876 253.44 243.244 253.504 243.484 253.52ZM248.321 253.712C249.217 253.712 249.761 252.464 249.761 250.384C249.761 248.912 249.425 247.344 248.241 247.344C247.665 247.344 247.377 247.568 247.057 247.968V252.56C247.217 253.056 247.521 253.712 248.321 253.712ZM249.185 246.4C250.993 246.4 252.305 247.968 252.305 250.368C252.305 252.576 250.673 254.192 248.849 254.192C247.969 254.192 247.489 253.968 247.121 253.696H247.057V256.272C247.057 256.672 247.217 256.896 247.505 257.008C247.745 257.104 248.385 257.248 248.673 257.28V257.616H243.473V257.28C243.761 257.264 244.161 257.2 244.353 257.12C244.657 257.008 244.753 256.72 244.753 256.384V248.064C244.753 247.728 244.609 247.44 244.353 247.264C244.161 247.136 243.793 247.024 243.505 247.008V246.688L246.961 246.496L247.073 246.592V247.424L247.137 247.44C247.489 247.04 248.209 246.4 249.185 246.4ZM257.465 253.712C258.361 253.712 258.905 252.464 258.905 250.384C258.905 248.912 258.569 247.344 257.385 247.344C256.809 247.344 256.521 247.568 256.201 247.968V252.56C256.361 253.056 256.665 253.712 257.465 253.712ZM258.329 246.4C260.137 246.4 261.449 247.968 261.449 250.368C261.449 252.576 259.817 254.192 257.993 254.192C257.113 254.192 256.633 253.968 256.265 253.696H256.201V256.272C256.201 256.672 256.361 256.896 256.649 257.008C256.889 257.104 257.529 257.248 257.817 257.28V257.616H252.617V257.28C252.905 257.264 253.305 257.2 253.497 257.12C253.801 257.008 253.897 256.72 253.897 256.384V248.064C253.897 247.728 253.753 247.44 253.497 247.264C253.305 247.136 252.937 247.024 252.649 247.008V246.688L256.105 246.496L256.217 246.592V247.424L256.281 247.44C256.633 247.04 257.353 246.4 258.329 246.4ZM266.466 253.664V254H261.97V253.664C262.226 253.648 262.434 253.616 262.642 253.536C262.946 253.424 263.058 253.184 263.058 252.832V243.808C263.058 243.392 262.882 243.056 262.626 242.88C262.434 242.752 261.81 242.592 261.522 242.576V242.256L265.25 242.064L265.362 242.176V252.752C265.362 253.104 265.49 253.344 265.778 253.472C266.002 253.568 266.178 253.632 266.466 253.664ZM267.539 243.536C267.539 242.736 268.163 242.16 268.947 242.16C269.731 242.16 270.339 242.752 270.339 243.536C270.339 244.32 269.731 244.912 268.947 244.912C268.163 244.912 267.539 244.32 267.539 243.536ZM271.411 253.664V254H266.867V253.664C267.139 253.648 267.347 253.616 267.555 253.536C267.843 253.424 267.971 253.168 267.971 252.832V248.096C267.971 247.744 267.827 247.472 267.571 247.296C267.379 247.168 266.915 247.024 266.627 247.008V246.688L270.179 246.496L270.291 246.608V252.752C270.291 253.088 270.435 253.344 270.723 253.472C270.947 253.6 271.155 253.632 271.411 253.664ZM278.737 251.808L279.057 252.048C278.465 253.264 277.297 254.24 275.697 254.24C273.073 254.24 271.857 252.48 271.857 250.272C271.857 248.208 273.169 246.4 275.585 246.4C278.033 246.4 278.881 247.92 278.881 249.584V249.808H274.353C274.337 249.808 274.353 249.984 274.353 250C274.353 251.888 274.945 253.28 276.497 253.28C277.473 253.28 278.161 252.928 278.737 251.808ZM274.353 249.36L276.401 249.328C276.401 248.08 276.385 246.816 275.473 246.816C274.737 246.816 274.401 247.744 274.353 249.36ZM283.562 249.312C284.826 249.728 285.706 250.448 285.706 251.76C285.706 253.376 284.362 254.24 282.634 254.24C281.61 254.24 280.762 253.808 280.442 253.552L280.154 254.096H279.674L279.594 251.328H279.914C280.234 252.288 281.21 253.824 282.522 253.824C283.338 253.824 283.722 253.344 283.722 252.592C283.722 251.76 282.986 251.488 281.898 251.12C280.826 250.752 279.802 250.144 279.802 248.656C279.802 247.424 280.858 246.4 282.634 246.4C283.418 246.4 284.122 246.608 284.57 246.832L284.778 246.384H285.242L285.338 248.912H285.034C284.682 247.808 283.77 246.816 282.874 246.816C282.106 246.816 281.802 247.296 281.802 247.888C281.802 248.72 282.314 248.896 283.562 249.312Z" fill="#FBA500"/>
<path d="M60.5336 254V253.65C61.4336 253.6 63.5836 253.35 64.5836 253.05C65.4836 252.8 66.2336 251.95 66.2336 250.85V227.2C64.0836 227.4 61.8836 227.55 59.7336 227.6V227.2C62.3336 226.85 63.7336 226.7 67.3336 225.8C70.3336 225.05 72.4336 224.1 73.8836 223.2H74.3836C73.9836 225.45 73.9336 228.1 73.9336 231.1V250.6C73.9336 251.95 74.4836 252.6 75.3836 253C76.1336 253.35 78.3336 253.6 79.1836 253.65V254H60.5336ZM80.4672 254V253.65C81.3672 253.6 83.5172 253.35 84.5172 253.05C85.4172 252.8 86.1672 251.95 86.1672 250.85V227.2C84.0172 227.4 81.8172 227.55 79.6672 227.6V227.2C82.2672 226.85 83.6672 226.7 87.2672 225.8C90.2672 225.05 92.3672 224.1 93.8172 223.2H94.3172C93.9172 225.45 93.8672 228.1 93.8672 231.1V250.6C93.8672 251.95 94.4172 252.6 95.3172 253C96.0672 253.35 98.2672 253.6 99.1172 253.65V254H80.4672ZM103.403 263L103.153 262.5C106.453 260.9 108.553 257.75 108.853 254H107.253C103.403 254 102.353 251.8 102.353 249.8C102.353 247.9 103.803 245.85 106.303 245.85C110.153 245.85 111.703 248.7 111.703 252.7C111.703 256.65 108.253 261 103.403 263ZM129.63 254.8C120.63 254.8 115.73 247.7 115.73 239.55C115.73 229.25 122.68 222.95 130.23 222.95C139.28 222.95 144.18 229.95 144.18 238.2C144.18 248.45 137.33 254.8 129.63 254.8ZM129.83 254.25C133.88 254.25 135.78 247.85 135.78 238.85C135.78 230.75 134.68 223.5 130.03 223.5C126.08 223.5 124.13 229.85 124.13 238.9C124.13 247.25 125.23 254.25 129.83 254.25ZM161.576 254.8C152.576 254.8 147.676 247.7 147.676 239.55C147.676 229.25 154.626 222.95 162.176 222.95C171.226 222.95 176.126 229.95 176.126 238.2C176.126 248.45 169.276 254.8 161.576 254.8ZM161.776 254.25C165.826 254.25 167.726 247.85 167.726 238.85C167.726 230.75 166.626 223.5 161.976 223.5C158.026 223.5 156.076 229.85 156.076 238.9C156.076 247.25 157.176 254.25 161.776 254.25ZM193.521 254.8C184.521 254.8 179.621 247.7 179.621 239.55C179.621 229.25 186.571 222.95 194.121 222.95C203.171 222.95 208.071 229.95 208.071 238.2C208.071 248.45 201.221 254.8 193.521 254.8ZM193.721 254.25C197.771 254.25 199.671 247.85 199.671 238.85C199.671 230.75 198.571 223.5 193.921 223.5C189.971 223.5 188.021 229.85 188.021 238.9C188.021 247.25 189.121 254.25 193.721 254.25Z" fill="#FBA500"/>
<path d="M7.27725 297.925C8.22725 297.925 8.62725 297.575 9.15225 296.9V289.7C8.95225 288.95 8.45225 287.875 7.22725 287.875C5.77725 287.875 4.87725 290 4.87725 293.3C4.87725 295.675 5.42725 297.925 7.27725 297.925ZM14.8272 298.25V298.75L9.35225 299.1L9.17725 298.925V297.775L9.07725 297.75C8.52725 298.325 7.40225 299.35 5.87725 299.35C3.00225 299.35 0.902246 296.9 0.902246 293.075C0.902246 289.575 3.45225 287.125 6.32725 287.125C7.67725 287.125 8.70225 287.525 9.15225 287.725V283.125C9.15225 282.575 8.92725 281.95 8.52725 281.7C8.07725 281.4 7.05225 281.2 6.35225 281.15V280.65L12.5772 280.35L12.7522 280.525V296.675C12.7522 297.225 13.0022 297.6 13.3772 297.875C13.6522 298.075 14.4022 298.225 14.8272 298.25ZM21.513 287.125C25.413 287.125 27.713 289.65 27.713 293.15C27.713 296.625 25.588 299.375 21.413 299.375C18.038 299.375 15.263 297.05 15.263 293.225C15.263 289.65 17.688 287.125 21.513 287.125ZM21.513 298.725C23.213 298.725 23.688 296.15 23.688 293.125C23.688 290.5 23.388 287.725 21.538 287.725C19.588 287.725 19.313 290.675 19.313 293.075C19.313 296.075 19.738 298.725 21.513 298.725ZM43.0425 298.475V299H36.4175V298.475C36.7425 298.45 37.0925 298.4 37.3425 298.275C37.6675 298.1 37.7175 297.725 37.7175 297.175V291.15C37.7175 289.425 37.1425 288.725 36.2675 288.725C34.9925 288.725 34.3425 289.675 34.0675 290.225V297.05C34.0675 297.6 34.1675 297.975 34.4925 298.175C34.8175 298.375 35.1175 298.425 35.4425 298.475V299H28.7675V298.475C29.1675 298.45 29.4925 298.4 29.8175 298.275C30.2675 298.1 30.4425 297.725 30.4425 297.175V289.775C30.4425 289.25 30.1675 288.7 29.7925 288.45C29.4925 288.25 28.9925 288.1 28.5925 288.075V287.575L33.8925 287.275L34.0675 287.45V289.175H34.1175C35.0175 288.225 35.8675 287.125 37.9675 287.125C40.2425 287.125 41.3925 288.675 41.3925 291.05V297.075C41.3925 297.625 41.5175 297.975 41.9675 298.175C42.3175 298.325 42.5925 298.425 43.0425 298.475ZM50.3653 296.85L50.4653 292.5C48.7403 293.175 47.6403 293.725 47.6403 295.825C47.6403 297.3 48.1903 297.8 48.8903 297.8C49.7403 297.8 49.9903 297.425 50.3653 296.85ZM55.8153 295.675H56.4403C56.3903 297.775 55.6403 299.325 53.3903 299.325C51.7903 299.325 51.0153 298.625 50.5153 297.7H50.4403C49.6153 298.575 48.8153 299.375 46.8653 299.375C45.1653 299.375 43.8403 298.175 43.8403 296.525C43.8403 294.4 45.0403 293.75 46.2903 293.3C47.7903 292.75 49.8153 292.175 50.4403 291.7V290.25C50.4403 289.4 50.4403 287.725 49.0153 287.725C48.3903 287.725 47.9903 288 47.7903 288.2C47.8653 288.6 48.2403 289.325 48.2403 290.1C48.2403 290.65 47.4903 291.525 46.1903 291.525C44.8903 291.525 44.3903 290.625 44.3903 289.8C44.3903 288.25 47.0653 287.125 49.2153 287.125C51.8903 287.125 54.0903 287.55 54.0903 290.875C54.0903 293.15 53.9403 295.825 53.9403 296.65C53.9403 297.05 54.2153 297.825 54.8403 297.825C55.5903 297.825 55.7903 296.8 55.8153 295.675ZM64.2409 295.5H64.8909C64.8409 297.525 63.8909 299.325 61.2659 299.325C58.9659 299.325 57.8159 297.975 57.8159 295.75V288.55H55.6909V287.475H57.8659V283.85H61.4159V287.475H64.5659V288.55H61.4159V295.575C61.4159 296.575 61.7409 297.6 62.8659 297.6C64.0409 297.6 64.1909 296.6 64.2409 295.5ZM76.0608 295.575L76.5608 295.95C75.6358 297.85 73.8108 299.375 71.3108 299.375C67.2108 299.375 65.3108 296.625 65.3108 293.175C65.3108 289.95 67.3608 287.125 71.1358 287.125C74.9608 287.125 76.2858 289.5 76.2858 292.1V292.45H69.2108C69.1858 292.45 69.2108 292.725 69.2108 292.75C69.2108 295.7 70.1358 297.875 72.5608 297.875C74.0858 297.875 75.1608 297.325 76.0608 295.575ZM69.2108 291.75L72.4108 291.7C72.4108 289.75 72.3858 287.775 70.9608 287.775C69.8108 287.775 69.2858 289.225 69.2108 291.75ZM83.704 297.925C84.654 297.925 85.054 297.575 85.579 296.9V289.7C85.379 288.95 84.879 287.875 83.654 287.875C82.204 287.875 81.304 290 81.304 293.3C81.304 295.675 81.854 297.925 83.704 297.925ZM91.254 298.25V298.75L85.779 299.1L85.604 298.925V297.775L85.504 297.75C84.954 298.325 83.829 299.35 82.304 299.35C79.429 299.35 77.329 296.9 77.329 293.075C77.329 289.575 79.879 287.125 82.754 287.125C84.104 287.125 85.129 287.525 85.579 287.725V283.125C85.579 282.575 85.354 281.95 84.954 281.7C84.504 281.4 83.479 281.2 82.779 281.15V280.65L89.004 280.35L89.179 280.525V296.675C89.179 297.225 89.429 297.6 89.804 297.875C90.079 298.075 90.829 298.225 91.254 298.25ZM104.596 295.5H105.246C105.196 297.525 104.246 299.325 101.621 299.325C99.3214 299.325 98.1714 297.975 98.1714 295.75V288.55H96.0464V287.475H98.2214V283.85H101.771V287.475H104.921V288.55H101.771V295.575C101.771 296.575 102.096 297.6 103.221 297.6C104.396 297.6 104.546 296.6 104.596 295.5ZM111.916 287.125C115.816 287.125 118.116 289.65 118.116 293.15C118.116 296.625 115.991 299.375 111.816 299.375C108.441 299.375 105.666 297.05 105.666 293.225C105.666 289.65 108.091 287.125 111.916 287.125ZM111.916 298.725C113.616 298.725 114.091 296.15 114.091 293.125C114.091 290.5 113.791 287.725 111.941 287.725C109.991 287.725 109.716 290.675 109.716 293.075C109.716 296.075 110.141 298.725 111.916 298.725ZM132.177 295.5H132.827C132.777 297.525 131.827 299.325 129.202 299.325C126.902 299.325 125.752 297.975 125.752 295.75V288.55H123.627V287.475H125.802V283.85H129.352V287.475H132.502V288.55H129.352V295.575C129.352 296.575 129.677 297.6 130.802 297.6C131.977 297.6 132.127 296.6 132.177 295.5ZM147.147 298.475V299H140.547V298.475C140.847 298.45 141.222 298.425 141.472 298.275C141.797 298.1 141.847 297.725 141.847 297.175V291.175C141.847 289.525 141.247 288.725 140.397 288.725C139.072 288.725 138.422 289.675 138.172 290.25V297.05C138.172 297.6 138.247 297.95 138.622 298.175C138.897 298.35 139.272 298.45 139.572 298.475V299H132.872V298.475C133.322 298.45 133.622 298.4 133.947 298.275C134.422 298.1 134.572 297.725 134.572 297.175V283C134.572 282.45 134.322 281.85 133.922 281.575C133.622 281.375 132.697 281.175 132.247 281.15V280.65L138.022 280.35L138.172 280.525V289.175H138.222C139.147 288.225 140.022 287.125 142.122 287.125C144.422 287.125 145.497 288.675 145.497 291.05V297.1C145.497 297.65 145.622 298 146.072 298.2C146.397 298.35 146.722 298.425 147.147 298.475ZM158.676 295.575L159.176 295.95C158.251 297.85 156.426 299.375 153.926 299.375C149.826 299.375 147.926 296.625 147.926 293.175C147.926 289.95 149.976 287.125 153.751 287.125C157.576 287.125 158.901 289.5 158.901 292.1V292.45H151.826C151.801 292.45 151.826 292.725 151.826 292.75C151.826 295.7 152.751 297.875 155.176 297.875C156.701 297.875 157.776 297.325 158.676 295.575ZM151.826 291.75L155.026 291.7C155.026 289.75 155.001 287.775 153.576 287.775C152.426 287.775 151.901 289.225 151.826 291.75ZM173.576 287.175C174.826 287.175 175.751 288.075 175.751 289.45C175.751 290.625 174.976 291.6 173.826 291.6C172.751 291.6 171.976 291 171.976 289.975C171.976 289.525 172.201 289.075 172.276 288.775C171.201 288.8 170.501 289.625 170.301 289.975V297.075C170.301 297.625 170.551 298 170.976 298.175C171.376 298.35 172.251 298.45 172.626 298.475V299H165.001V298.475C165.401 298.45 165.726 298.4 166.051 298.275C166.526 298.1 166.676 297.725 166.676 297.175V289.775C166.676 289.3 166.401 288.725 166.026 288.45C165.751 288.25 165.201 288.1 164.776 288.075V287.575L170.126 287.275L170.301 287.45V289.125H170.351C171.351 287.825 172.376 287.175 173.576 287.175ZM177.189 282.65C177.189 281.4 178.164 280.5 179.389 280.5C180.614 280.5 181.564 281.425 181.564 282.65C181.564 283.875 180.614 284.8 179.389 284.8C178.164 284.8 177.189 283.875 177.189 282.65ZM183.239 298.475V299H176.139V298.475C176.564 298.45 176.889 298.4 177.214 298.275C177.664 298.1 177.864 297.7 177.864 297.175V289.775C177.864 289.225 177.639 288.8 177.239 288.525C176.939 288.325 176.214 288.1 175.764 288.075V287.575L181.314 287.275L181.489 287.45V297.05C181.489 297.575 181.714 297.975 182.164 298.175C182.514 298.375 182.839 298.425 183.239 298.475ZM184.186 290.925C184.186 288.275 187.036 287.125 189.386 287.125C190.986 287.125 192.061 287.45 192.486 287.7C193.111 286.1 193.961 285.1 195.061 285.1C195.761 285.1 196.436 285.6 196.436 286.425C196.436 287.225 195.911 287.825 195.136 287.825C194.636 287.825 194.111 287.575 193.736 287C193.411 287.125 193.111 287.575 192.961 288C193.011 288.025 193.061 288.05 193.136 288.125C194.111 288.95 194.561 290 194.561 291.05C194.561 293.3 192.186 294.725 189.611 294.725H187.936C187.686 294.95 187.436 295.15 187.436 295.475C187.436 296.475 188.411 296.375 189.761 296.425C190.561 296.45 192.011 296.525 192.686 296.55C194.236 296.625 196.186 297.825 196.186 300.2C196.186 302.7 194.086 304.7 189.411 304.7C185.161 304.7 183.511 303.475 183.511 301.625C183.511 300.275 184.836 299.325 187.486 299.225V299.125C186.286 298.775 184.786 298.1 184.786 296.7C184.786 295.275 186.286 294.775 187.436 294.55V294.45C185.286 293.8 184.186 292.525 184.186 290.925ZM191.011 290.95C191.011 289.275 190.611 287.75 189.361 287.75C188.136 287.75 187.836 289.2 187.836 290.875C187.836 292.625 188.361 294.15 189.386 294.15C190.586 294.15 191.011 292.525 191.011 290.95ZM192.936 301.125C192.936 300.575 192.736 299.875 191.836 299.55C191.386 299.475 189.886 299.425 188.161 299.425C187.636 299.7 187.036 300.35 187.036 301.625C187.036 302.575 187.786 304 189.986 304C191.836 304 192.936 302.9 192.936 301.125ZM210.635 298.475V299H204.035V298.475C204.335 298.45 204.71 298.425 204.96 298.275C205.285 298.1 205.335 297.725 205.335 297.175V291.175C205.335 289.525 204.735 288.725 203.885 288.725C202.56 288.725 201.91 289.675 201.66 290.25V297.05C201.66 297.6 201.735 297.95 202.11 298.175C202.385 298.35 202.76 298.45 203.06 298.475V299H196.36V298.475C196.81 298.45 197.11 298.4 197.435 298.275C197.91 298.1 198.06 297.725 198.06 297.175V283C198.06 282.45 197.81 281.85 197.41 281.575C197.11 281.375 196.185 281.175 195.735 281.15V280.65L201.51 280.35L201.66 280.525V289.175H201.71C202.635 288.225 203.51 287.125 205.61 287.125C207.91 287.125 208.985 288.675 208.985 291.05V297.1C208.985 297.65 209.11 298 209.56 298.2C209.885 298.35 210.21 298.425 210.635 298.475ZM219.138 295.5H219.788C219.738 297.525 218.788 299.325 216.163 299.325C213.863 299.325 212.713 297.975 212.713 295.75V288.55H210.588V287.475H212.763V283.85H216.313V287.475H219.463V288.55H216.313V295.575C216.313 296.575 216.638 297.6 217.763 297.6C218.938 297.6 219.088 296.6 219.138 295.5ZM239.29 298.475V299H232.69V298.475C232.99 298.45 233.365 298.425 233.615 298.275C233.94 298.1 233.99 297.725 233.99 297.175V291.175C233.99 289.525 233.39 288.725 232.54 288.725C231.215 288.725 230.565 289.675 230.315 290.25V297.05C230.315 297.6 230.39 297.95 230.765 298.175C231.04 298.35 231.415 298.45 231.715 298.475V299H225.015V298.475C225.465 298.45 225.765 298.4 226.09 298.275C226.565 298.1 226.715 297.725 226.715 297.175V283C226.715 282.45 226.465 281.85 226.065 281.575C225.765 281.375 224.84 281.175 224.39 281.15V280.65L230.165 280.35L230.315 280.525V289.175H230.365C231.29 288.225 232.165 287.125 234.265 287.125C236.565 287.125 237.64 288.675 237.64 291.05V297.1C237.64 297.65 237.765 298 238.215 298.2C238.54 298.35 238.865 298.425 239.29 298.475ZM246.644 296.85L246.744 292.5C245.019 293.175 243.919 293.725 243.919 295.825C243.919 297.3 244.469 297.8 245.169 297.8C246.019 297.8 246.269 297.425 246.644 296.85ZM252.094 295.675H252.719C252.669 297.775 251.919 299.325 249.669 299.325C248.069 299.325 247.294 298.625 246.794 297.7H246.719C245.894 298.575 245.094 299.375 243.144 299.375C241.444 299.375 240.119 298.175 240.119 296.525C240.119 294.4 241.319 293.75 242.569 293.3C244.069 292.75 246.094 292.175 246.719 291.7V290.25C246.719 289.4 246.719 287.725 245.294 287.725C244.669 287.725 244.269 288 244.069 288.2C244.144 288.6 244.519 289.325 244.519 290.1C244.519 290.65 243.769 291.525 242.469 291.525C241.169 291.525 240.669 290.625 240.669 289.8C240.669 288.25 243.344 287.125 245.494 287.125C248.169 287.125 250.369 287.55 250.369 290.875C250.369 293.15 250.219 295.825 250.219 296.65C250.219 297.05 250.494 297.825 251.119 297.825C251.869 297.825 252.069 296.8 252.094 295.675ZM267.091 298.475V299H260.466V298.475C260.791 298.45 261.141 298.4 261.391 298.275C261.716 298.1 261.766 297.725 261.766 297.175V291.15C261.766 289.425 261.191 288.725 260.316 288.725C259.041 288.725 258.391 289.675 258.116 290.225V297.05C258.116 297.6 258.216 297.975 258.541 298.175C258.866 298.375 259.166 298.425 259.491 298.475V299H252.816V298.475C253.216 298.45 253.541 298.4 253.866 298.275C254.316 298.1 254.491 297.725 254.491 297.175V289.775C254.491 289.25 254.216 288.7 253.841 288.45C253.541 288.25 253.041 288.1 252.641 288.075V287.575L257.941 287.275L258.116 287.45V289.175H258.166C259.066 288.225 259.916 287.125 262.016 287.125C264.291 287.125 265.441 288.675 265.441 291.05V297.075C265.441 297.625 265.566 297.975 266.016 298.175C266.366 298.325 266.641 298.425 267.091 298.475ZM274.239 297.925C275.189 297.925 275.589 297.575 276.114 296.9V289.7C275.914 288.95 275.414 287.875 274.189 287.875C272.739 287.875 271.839 290 271.839 293.3C271.839 295.675 272.389 297.925 274.239 297.925ZM281.789 298.25V298.75L276.314 299.1L276.139 298.925V297.775L276.039 297.75C275.489 298.325 274.364 299.35 272.839 299.35C269.964 299.35 267.864 296.9 267.864 293.075C267.864 289.575 270.414 287.125 273.289 287.125C274.639 287.125 275.664 287.525 276.114 287.725V283.125C276.114 282.575 275.889 281.95 275.489 281.7C275.039 281.4 274.014 281.2 273.314 281.15V280.65L279.539 280.35L279.714 280.525V296.675C279.714 297.225 279.964 297.6 280.339 297.875C280.614 298.075 281.364 298.225 281.789 298.25ZM288.35 291.675C290.325 292.325 291.7 293.45 291.7 295.5C291.7 298.025 289.6 299.375 286.9 299.375C285.3 299.375 283.975 298.7 283.475 298.3L283.025 299.15H282.275L282.15 294.825H282.65C283.15 296.325 284.675 298.725 286.725 298.725C288 298.725 288.6 297.975 288.6 296.8C288.6 295.5 287.45 295.075 285.75 294.5C284.075 293.925 282.475 292.975 282.475 290.65C282.475 288.725 284.125 287.125 286.9 287.125C288.125 287.125 289.225 287.45 289.925 287.8L290.25 287.1H290.975L291.125 291.05H290.65C290.1 289.325 288.675 287.775 287.275 287.775C286.075 287.775 285.6 288.525 285.6 289.45C285.6 290.75 286.4 291.025 288.35 291.675ZM304.51 296.85L304.61 292.5C302.885 293.175 301.785 293.725 301.785 295.825C301.785 297.3 302.335 297.8 303.035 297.8C303.885 297.8 304.135 297.425 304.51 296.85ZM309.96 295.675H310.585C310.535 297.775 309.785 299.325 307.535 299.325C305.935 299.325 305.16 298.625 304.66 297.7H304.585C303.76 298.575 302.96 299.375 301.01 299.375C299.31 299.375 297.985 298.175 297.985 296.525C297.985 294.4 299.185 293.75 300.435 293.3C301.935 292.75 303.96 292.175 304.585 291.7V290.25C304.585 289.4 304.585 287.725 303.16 287.725C302.535 287.725 302.135 288 301.935 288.2C302.01 288.6 302.385 289.325 302.385 290.1C302.385 290.65 301.635 291.525 300.335 291.525C299.035 291.525 298.535 290.625 298.535 289.8C298.535 288.25 301.21 287.125 303.36 287.125C306.035 287.125 308.235 287.55 308.235 290.875C308.235 293.15 308.085 295.825 308.085 296.65C308.085 297.05 308.36 297.825 308.985 297.825C309.735 297.825 309.935 296.8 309.96 295.675ZM324.958 298.475V299H318.333V298.475C318.658 298.45 319.008 298.4 319.258 298.275C319.583 298.1 319.633 297.725 319.633 297.175V291.15C319.633 289.425 319.058 288.725 318.183 288.725C316.908 288.725 316.258 289.675 315.983 290.225V297.05C315.983 297.6 316.083 297.975 316.408 298.175C316.733 298.375 317.033 298.425 317.358 298.475V299H310.683V298.475C311.083 298.45 311.408 298.4 311.733 298.275C312.183 298.1 312.358 297.725 312.358 297.175V289.775C312.358 289.25 312.083 288.7 311.708 288.45C311.408 288.25 310.908 288.1 310.508 288.075V287.575L315.808 287.275L315.983 287.45V289.175H316.033C316.933 288.225 317.783 287.125 319.883 287.125C322.158 287.125 323.308 288.675 323.308 291.05V297.075C323.308 297.625 323.433 297.975 323.883 298.175C324.233 298.325 324.508 298.425 324.958 298.475ZM332.105 297.925C333.055 297.925 333.455 297.575 333.98 296.9V289.7C333.78 288.95 333.28 287.875 332.055 287.875C330.605 287.875 329.705 290 329.705 293.3C329.705 295.675 330.255 297.925 332.105 297.925ZM339.655 298.25V298.75L334.18 299.1L334.005 298.925V297.775L333.905 297.75C333.355 298.325 332.23 299.35 330.705 299.35C327.83 299.35 325.73 296.9 325.73 293.075C325.73 289.575 328.28 287.125 331.155 287.125C332.505 287.125 333.53 287.525 333.98 287.725V283.125C333.98 282.575 333.755 281.95 333.355 281.7C332.905 281.4 331.88 281.2 331.18 281.15V280.65L337.405 280.35L337.58 280.525V296.675C337.58 297.225 337.83 297.6 338.205 297.875C338.48 298.075 339.23 298.225 339.655 298.25ZM51.7338 328.55C53.1338 328.55 53.9838 326.6 53.9838 323.35C53.9838 321.05 53.4588 318.6 51.6088 318.6C50.7088 318.6 50.2588 318.95 49.7588 319.575V326.75C50.0088 327.525 50.4838 328.55 51.7338 328.55ZM53.0838 317.125C55.9088 317.125 57.9588 319.575 57.9588 323.325C57.9588 326.775 55.4088 329.3 52.5588 329.3C51.1838 329.3 50.4338 328.95 49.8588 328.525H49.7588V332.55C49.7588 333.175 50.0088 333.525 50.4588 333.7C50.8338 333.85 51.8338 334.075 52.2838 334.125V334.65H44.1588V334.125C44.6088 334.1 45.2338 334 45.5338 333.875C46.0088 333.7 46.1588 333.25 46.1588 332.725V319.725C46.1588 319.2 45.9338 318.75 45.5338 318.475C45.2338 318.275 44.6588 318.1 44.2088 318.075V317.575L49.6088 317.275L49.7838 317.425V318.725L49.8838 318.75C50.4338 318.125 51.5588 317.125 53.0838 317.125ZM69.8719 325.575L70.3719 325.95C69.4469 327.85 67.6219 329.375 65.1219 329.375C61.0219 329.375 59.1219 326.625 59.1219 323.175C59.1219 319.95 61.1719 317.125 64.9469 317.125C68.7719 317.125 70.0969 319.5 70.0969 322.1V322.45H63.0219C62.9969 322.45 63.0219 322.725 63.0219 322.75C63.0219 325.7 63.9469 327.875 66.3719 327.875C67.8969 327.875 68.9719 327.325 69.8719 325.575ZM63.0219 321.75L66.2219 321.7C66.2219 319.75 66.1969 317.775 64.7719 317.775C63.6219 317.775 63.0969 319.225 63.0219 321.75ZM77.4871 317.125C81.3871 317.125 83.6871 319.65 83.6871 323.15C83.6871 326.625 81.5621 329.375 77.3871 329.375C74.0121 329.375 71.2371 327.05 71.2371 323.225C71.2371 319.65 73.6621 317.125 77.4871 317.125ZM77.4871 328.725C79.1871 328.725 79.6621 326.15 79.6621 323.125C79.6621 320.5 79.3621 317.725 77.5121 317.725C75.5621 317.725 75.2871 320.675 75.2871 323.075C75.2871 326.075 75.7121 328.725 77.4871 328.725ZM91.7416 328.55C93.1416 328.55 93.9916 326.6 93.9916 323.35C93.9916 321.05 93.4666 318.6 91.6166 318.6C90.7166 318.6 90.2666 318.95 89.7666 319.575V326.75C90.0166 327.525 90.4916 328.55 91.7416 328.55ZM93.0916 317.125C95.9166 317.125 97.9666 319.575 97.9666 323.325C97.9666 326.775 95.4166 329.3 92.5666 329.3C91.1916 329.3 90.4416 328.95 89.8666 328.525H89.7666V332.55C89.7666 333.175 90.0166 333.525 90.4666 333.7C90.8416 333.85 91.8416 334.075 92.2916 334.125V334.65H84.1666V334.125C84.6166 334.1 85.2416 334 85.5416 333.875C86.0166 333.7 86.1666 333.25 86.1666 332.725V319.725C86.1666 319.2 85.9416 318.75 85.5416 318.475C85.2416 318.275 84.6666 318.1 84.2166 318.075V317.575L89.6166 317.275L89.7916 317.425V318.725L89.8916 318.75C90.4416 318.125 91.5666 317.125 93.0916 317.125ZM105.805 328.475V329H98.7797V328.475C99.1797 328.45 99.5047 328.4 99.8297 328.275C100.305 328.1 100.48 327.725 100.48 327.175V313.075C100.48 312.425 100.205 311.9 99.8047 311.625C99.5047 311.425 98.5297 311.175 98.0797 311.15V310.65L103.905 310.35L104.08 310.525V327.05C104.08 327.6 104.28 327.975 104.73 328.175C105.08 328.325 105.355 328.425 105.805 328.475ZM117.307 325.575L117.807 325.95C116.882 327.85 115.057 329.375 112.557 329.375C108.457 329.375 106.557 326.625 106.557 323.175C106.557 319.95 108.607 317.125 112.382 317.125C116.207 317.125 117.532 319.5 117.532 322.1V322.45H110.457C110.432 322.45 110.457 322.725 110.457 322.75C110.457 325.7 111.382 327.875 113.807 327.875C115.332 327.875 116.407 327.325 117.307 325.575ZM110.457 321.75L113.657 321.7C113.657 319.75 113.632 317.775 112.207 317.775C111.057 317.775 110.532 319.225 110.457 321.75ZM124.657 312.65C124.657 311.4 125.632 310.5 126.857 310.5C128.082 310.5 129.032 311.425 129.032 312.65C129.032 313.875 128.082 314.8 126.857 314.8C125.632 314.8 124.657 313.875 124.657 312.65ZM130.707 328.475V329H123.607V328.475C124.032 328.45 124.357 328.4 124.682 328.275C125.132 328.1 125.332 327.7 125.332 327.175V319.775C125.332 319.225 125.107 318.8 124.707 318.525C124.407 318.325 123.682 318.1 123.232 318.075V317.575L128.782 317.275L128.957 317.45V327.05C128.957 327.575 129.182 327.975 129.632 328.175C129.982 328.375 130.307 328.425 130.707 328.475ZM145.579 328.475V329H138.954V328.475C139.279 328.45 139.629 328.4 139.879 328.275C140.204 328.1 140.254 327.725 140.254 327.175V321.15C140.254 319.425 139.679 318.725 138.804 318.725C137.529 318.725 136.879 319.675 136.604 320.225V327.05C136.604 327.6 136.704 327.975 137.029 328.175C137.354 328.375 137.654 328.425 137.979 328.475V329H131.304V328.475C131.704 328.45 132.029 328.4 132.354 328.275C132.804 328.1 132.979 327.725 132.979 327.175V319.775C132.979 319.25 132.704 318.7 132.329 318.45C132.029 318.25 131.529 318.1 131.129 318.075V317.575L136.429 317.275L136.604 317.45V319.175H136.654C137.554 318.225 138.404 317.125 140.504 317.125C142.779 317.125 143.929 318.675 143.929 321.05V327.075C143.929 327.625 144.054 327.975 144.504 328.175C144.854 328.325 145.129 328.425 145.579 328.475ZM165.384 328.25V328.75L160.109 329.1L159.934 328.925V327.375H159.859C159.009 328.325 158.059 329.325 155.959 329.325C153.684 329.325 152.759 327.6 152.759 325.25V319.75C152.759 319.225 152.509 318.75 152.109 318.475C151.809 318.275 151.309 318.125 150.859 318.1V317.575L156.259 317.275L156.409 317.45V325.425C156.409 327.05 156.959 327.8 157.809 327.8C159.084 327.8 159.659 326.875 159.909 326.4V319.725C159.909 319.225 159.709 318.775 159.359 318.5C159.109 318.3 158.484 318.15 157.909 318.125V317.575L163.334 317.275L163.509 317.45V326.675C163.509 327.225 163.759 327.625 164.134 327.9C164.434 328.125 165.009 328.225 165.384 328.25ZM174.516 317.175C175.766 317.175 176.691 318.075 176.691 319.45C176.691 320.625 175.916 321.6 174.766 321.6C173.691 321.6 172.916 321 172.916 319.975C172.916 319.525 173.141 319.075 173.216 318.775C172.141 318.8 171.441 319.625 171.241 319.975V327.075C171.241 327.625 171.491 328 171.916 328.175C172.316 328.35 173.191 328.45 173.566 328.475V329H165.941V328.475C166.341 328.45 166.666 328.4 166.991 328.275C167.466 328.1 167.616 327.725 167.616 327.175V319.775C167.616 319.3 167.341 318.725 166.966 318.45C166.691 318.25 166.141 318.1 165.716 318.075V317.575L171.066 317.275L171.241 317.45V319.125H171.291C172.291 317.825 173.316 317.175 174.516 317.175ZM177.454 320.925C177.454 318.275 180.304 317.125 182.654 317.125C184.254 317.125 185.329 317.45 185.754 317.7C186.379 316.1 187.229 315.1 188.329 315.1C189.029 315.1 189.704 315.6 189.704 316.425C189.704 317.225 189.179 317.825 188.404 317.825C187.904 317.825 187.379 317.575 187.004 317C186.679 317.125 186.379 317.575 186.229 318C186.279 318.025 186.329 318.05 186.404 318.125C187.379 318.95 187.829 320 187.829 321.05C187.829 323.3 185.454 324.725 182.879 324.725H181.204C180.954 324.95 180.704 325.15 180.704 325.475C180.704 326.475 181.679 326.375 183.029 326.425C183.829 326.45 185.279 326.525 185.954 326.55C187.504 326.625 189.454 327.825 189.454 330.2C189.454 332.7 187.354 334.7 182.679 334.7C178.429 334.7 176.779 333.475 176.779 331.625C176.779 330.275 178.104 329.325 180.754 329.225V329.125C179.554 328.775 178.054 328.1 178.054 326.7C178.054 325.275 179.554 324.775 180.704 324.55V324.45C178.554 323.8 177.454 322.525 177.454 320.925ZM184.279 320.95C184.279 319.275 183.879 317.75 182.629 317.75C181.404 317.75 181.104 319.2 181.104 320.875C181.104 322.625 181.629 324.15 182.654 324.15C183.854 324.15 184.279 322.525 184.279 320.95ZM186.204 331.125C186.204 330.575 186.004 329.875 185.104 329.55C184.654 329.475 183.154 329.425 181.429 329.425C180.904 329.7 180.304 330.35 180.304 331.625C180.304 332.575 181.054 334 183.254 334C185.104 334 186.204 332.9 186.204 331.125ZM200.387 325.575L200.887 325.95C199.962 327.85 198.137 329.375 195.637 329.375C191.537 329.375 189.637 326.625 189.637 323.175C189.637 319.95 191.687 317.125 195.462 317.125C199.287 317.125 200.612 319.5 200.612 322.1V322.45H193.537C193.512 322.45 193.537 322.725 193.537 322.75C193.537 325.7 194.462 327.875 196.887 327.875C198.412 327.875 199.487 327.325 200.387 325.575ZM193.537 321.75L196.737 321.7C196.737 319.75 196.712 317.775 195.287 317.775C194.137 317.775 193.612 319.225 193.537 321.75ZM215.805 328.475V329H209.18V328.475C209.505 328.45 209.855 328.4 210.105 328.275C210.43 328.1 210.48 327.725 210.48 327.175V321.15C210.48 319.425 209.905 318.725 209.03 318.725C207.755 318.725 207.105 319.675 206.83 320.225V327.05C206.83 327.6 206.93 327.975 207.255 328.175C207.58 328.375 207.88 328.425 208.205 328.475V329H201.53V328.475C201.93 328.45 202.255 328.4 202.58 328.275C203.03 328.1 203.205 327.725 203.205 327.175V319.775C203.205 319.25 202.93 318.7 202.555 318.45C202.255 318.25 201.755 318.1 201.355 318.075V317.575L206.655 317.275L206.83 317.45V319.175H206.88C207.78 318.225 208.63 317.125 210.73 317.125C213.005 317.125 214.155 318.675 214.155 321.05V327.075C214.155 327.625 214.28 327.975 214.73 328.175C215.08 328.325 215.355 328.425 215.805 328.475ZM224.278 325.5H224.928C224.878 327.525 223.928 329.325 221.303 329.325C219.003 329.325 217.853 327.975 217.853 325.75V318.55H215.728V317.475H217.903V313.85H221.453V317.475H224.603V318.55H221.453V325.575C221.453 326.575 221.778 327.6 222.903 327.6C224.078 327.6 224.228 326.6 224.278 325.5ZM244.704 328.475V329H238.079V328.475C238.404 328.45 238.754 328.4 239.004 328.275C239.329 328.1 239.379 327.725 239.379 327.175V321.15C239.379 319.425 238.804 318.725 237.929 318.725C236.654 318.725 236.004 319.675 235.729 320.225V327.05C235.729 327.6 235.829 327.975 236.154 328.175C236.479 328.375 236.779 328.425 237.104 328.475V329H230.429V328.475C230.829 328.45 231.154 328.4 231.479 328.275C231.929 328.1 232.104 327.725 232.104 327.175V319.775C232.104 319.25 231.829 318.7 231.454 318.45C231.154 318.25 230.654 318.1 230.254 318.075V317.575L235.554 317.275L235.729 317.45V319.175H235.779C236.679 318.225 237.529 317.125 239.629 317.125C241.904 317.125 243.054 318.675 243.054 321.05V327.075C243.054 327.625 243.179 327.975 243.629 328.175C243.979 328.325 244.254 328.425 244.704 328.475ZM256.202 325.575L256.702 325.95C255.777 327.85 253.952 329.375 251.452 329.375C247.352 329.375 245.452 326.625 245.452 323.175C245.452 319.95 247.502 317.125 251.277 317.125C255.102 317.125 256.427 319.5 256.427 322.1V322.45H249.352C249.327 322.45 249.352 322.725 249.352 322.75C249.352 325.7 250.277 327.875 252.702 327.875C254.227 327.875 255.302 327.325 256.202 325.575ZM249.352 321.75L252.552 321.7C252.552 319.75 252.527 317.775 251.102 317.775C249.952 317.775 249.427 319.225 249.352 321.75ZM268.195 325.575L268.695 325.95C267.77 327.85 265.945 329.375 263.445 329.375C259.345 329.375 257.445 326.625 257.445 323.175C257.445 319.95 259.495 317.125 263.27 317.125C267.095 317.125 268.42 319.5 268.42 322.1V322.45H261.345C261.32 322.45 261.345 322.725 261.345 322.75C261.345 325.7 262.27 327.875 264.695 327.875C266.22 327.875 267.295 327.325 268.195 325.575ZM261.345 321.75L264.545 321.7C264.545 319.75 264.52 317.775 263.095 317.775C261.945 317.775 261.42 319.225 261.345 321.75ZM275.838 327.925C276.788 327.925 277.188 327.575 277.713 326.9V319.7C277.513 318.95 277.013 317.875 275.788 317.875C274.338 317.875 273.438 320 273.438 323.3C273.438 325.675 273.988 327.925 275.838 327.925ZM283.388 328.25V328.75L277.913 329.1L277.738 328.925V327.775L277.638 327.75C277.088 328.325 275.963 329.35 274.438 329.35C271.563 329.35 269.463 326.9 269.463 323.075C269.463 319.575 272.013 317.125 274.888 317.125C276.238 317.125 277.263 317.525 277.713 317.725V313.125C277.713 312.575 277.488 311.95 277.088 311.7C276.638 311.4 275.613 311.2 274.913 311.15V310.65L281.138 310.35L281.313 310.525V326.675C281.313 327.225 281.563 327.6 281.938 327.875C282.213 328.075 282.963 328.225 283.388 328.25ZM289.949 321.675C291.924 322.325 293.299 323.45 293.299 325.5C293.299 328.025 291.199 329.375 288.499 329.375C286.899 329.375 285.574 328.7 285.074 328.3L284.624 329.15H283.874L283.749 324.825H284.249C284.749 326.325 286.274 328.725 288.324 328.725C289.599 328.725 290.199 327.975 290.199 326.8C290.199 325.5 289.049 325.075 287.349 324.5C285.674 323.925 284.074 322.975 284.074 320.65C284.074 318.725 285.724 317.125 288.499 317.125C289.724 317.125 290.824 317.45 291.524 317.8L291.849 317.1H292.574L292.724 321.05H292.249C291.699 319.325 290.274 317.775 288.874 317.775C287.674 317.775 287.199 318.525 287.199 319.45C287.199 320.75 287.999 321.025 289.949 321.675ZM295.027 327.125C295.027 325.875 296.052 324.925 297.277 324.925C298.502 324.925 299.527 325.875 299.527 327.125C299.527 328.375 298.502 329.325 297.277 329.325C296.052 329.325 295.027 328.375 295.027 327.125Z" fill="#FBA500"/>
</svg>
