<svg width="108" height="75" viewBox="0 0 108 75" fill="none" xmlns="http://www.w3.org/2000/svg">
<g clip-path="url(#clip0_254_13709)">
<path d="M95.0158 74.9999H78.8633C75.4382 32.6766 64.975 14.0271 61.1727 9.35137C57.3705 4.67565 53.095 5.2188 53.095 5.2188C54.1234 4.90641 55.1933 4.74316 56.3056 4.74316C79.3618 4.74316 95.0158 46.5828 95.0158 74.9999Z" fill="#F6A21E"/>
<path d="M108 75H95.0157C95.0157 46.5829 79.3618 4.74324 56.3056 4.74324C55.1933 4.74324 54.1234 4.90649 53.0949 5.21887C32.8156 11.3608 28.6382 75 28.6382 75H21.3169C21.3169 75 19.6989 55.2491 14.0896 55.2491C8.48022 55.2491 6.80865 75 6.80865 75H0C0 31.7093 22.5354 9.74949 39.1955 2.92938C45.2649 0.444395 52.3011 0 54.7079 0C63.721 0 73.3075 2.09601 87.2494 15.9892C108.303 36.9694 108 75 108 75Z" fill="white"/>
</g>
<defs>
<clipPath id="clip0_254_13709">
<rect width="108" height="75" fill="white"/>
</clipPath>
</defs>
</svg>
