<svg width="620" height="469" viewBox="0 0 620 469" fill="none" xmlns="http://www.w3.org/2000/svg">
<rect width="620" height="469" fill="#FBA500"/>
<g clip-path="url(#clip0_721_14668)">
<path d="M411.78 328H371.698C363.199 222.473 337.234 175.974 327.799 164.316C318.364 152.658 307.754 154.012 307.754 154.012C310.306 153.233 312.961 152.826 315.721 152.826C372.935 152.826 411.78 257.146 411.78 328Z" fill="#FFCB66"/>
<path d="M444 328H411.78C411.78 257.147 372.935 152.826 315.721 152.826C312.961 152.826 310.306 153.234 307.754 154.012C257.431 169.326 247.065 328 247.065 328H228.897C228.897 328 224.882 278.754 210.963 278.754C197.044 278.754 192.896 328 192.896 328H176C176 220.062 231.921 165.309 273.263 148.304C288.324 142.108 305.784 141 311.757 141C334.123 141 357.911 146.226 392.508 180.866C444.753 233.177 444 328 444 328Z" fill="white"/>
</g>
<defs>
<clipPath id="clip0_721_14668">
<rect width="268" height="187" fill="white" transform="translate(176 141)"/>
</clipPath>
</defs>
</svg>
