<svg width="314" height="632" viewBox="0 0 314 632" fill="none" xmlns="http://www.w3.org/2000/svg">
<g clip-path="url(#clip0_696_12914)">
<path d="M54.72 104L55.12 98.32C60.88 94.16 66.4 90.32 72.56 84.88C79.28 78.88 81.76 72.96 81.76 65.04C81.76 59.2 79.84 55.28 75.28 55.28C68.64 55.28 65.6 63.44 65.6 69.92C65.6 73.76 67.2 76.48 70.32 76.48C73.76 76.48 75.68 74.16 77.2 72.48L77.68 72.88C75.36 76.96 70.8 81.92 64.64 81.92C58 81.92 54.4 78 54.4 71.92C54.4 62.32 64.16 54.32 76.88 54.32C86.72 54.32 97.04 56.8 97.04 67.2C97.04 77.6 86.32 84.96 68.08 90.32L64.48 92.88H90.48C94.72 92.88 96.8 88.32 98.4 84.96L99.04 85.2L94.08 104H54.72ZM130.015 105.28C115.615 105.28 105.375 95.52 105.375 80.88C105.375 62.8 118.895 54.32 130.975 54.32C145.455 54.32 155.695 63.92 155.695 78.72C155.695 96.72 142.335 105.28 130.015 105.28ZM130.335 104.32C136.015 104.32 139.055 95.76 139.055 79.76C139.055 65.2 137.295 55.28 130.655 55.28C125.135 55.28 122.015 63.76 122.015 79.84C122.015 94.8 123.775 104.32 130.335 104.32ZM162.451 104L162.851 98.32C168.611 94.16 174.131 90.32 180.291 84.88C187.011 78.88 189.491 72.96 189.491 65.04C189.491 59.2 187.571 55.28 183.011 55.28C176.371 55.28 173.331 63.44 173.331 69.92C173.331 73.76 174.931 76.48 178.051 76.48C181.491 76.48 183.411 74.16 184.931 72.48L185.411 72.88C183.091 76.96 178.531 81.92 172.371 81.92C165.731 81.92 162.131 78 162.131 71.92C162.131 62.32 171.891 54.32 184.611 54.32C194.451 54.32 204.771 56.8 204.771 67.2C204.771 77.6 194.051 84.96 175.811 90.32L172.211 92.88H198.211C202.451 92.88 204.531 88.32 206.131 84.96L206.771 85.2L201.811 104H162.451ZM213.426 104L213.826 98.32C219.586 94.16 225.106 90.32 231.266 84.88C237.986 78.88 240.466 72.96 240.466 65.04C240.466 59.2 238.546 55.28 233.986 55.28C227.346 55.28 224.306 63.44 224.306 69.92C224.306 73.76 225.906 76.48 229.026 76.48C232.466 76.48 234.386 74.16 235.906 72.48L236.386 72.88C234.066 76.96 229.506 81.92 223.346 81.92C216.706 81.92 213.106 78 213.106 71.92C213.106 62.32 222.866 54.32 235.586 54.32C245.426 54.32 255.746 56.8 255.746 67.2C255.746 77.6 245.026 84.96 226.786 90.32L223.186 92.88H249.186C253.426 92.88 255.506 88.32 257.106 84.96L257.746 85.2L252.786 104H213.426Z" fill="#191919"/>
<path d="M54.72 104L53.7225 103.93L53.6471 105H54.72V104ZM55.12 98.32L54.5345 97.5093L54.1553 97.7832L54.1225 98.2498L55.12 98.32ZM72.56 84.88L73.222 85.6296L73.226 85.6259L72.56 84.88ZM77.2 72.48L77.8402 71.7118L77.1026 71.0971L76.4585 71.8091L77.2 72.48ZM77.68 72.88L78.5493 73.3743L78.9627 72.6472L78.3202 72.1118L77.68 72.88ZM68.08 90.32L67.7981 89.3606L67.6372 89.4079L67.5005 89.505L68.08 90.32ZM64.48 92.88L63.9005 92.065L61.3482 93.88H64.48V92.88ZM98.4 84.96L98.7511 84.0237L97.8917 83.7014L97.4971 84.5301L98.4 84.96ZM99.04 85.2L100.007 85.4551L100.238 84.5811L99.3911 84.2637L99.04 85.2ZM94.08 104V105H94.8504L95.0469 104.255L94.08 104ZM55.7175 104.07L56.1175 98.3902L54.1225 98.2498L53.7225 103.93L55.7175 104.07ZM55.7055 99.1307C61.4508 94.9813 67.0169 91.1093 73.2219 85.6296L71.8981 84.1304C65.7831 89.5307 60.3092 93.3387 54.5345 97.5093L55.7055 99.1307ZM73.226 85.6259C76.6636 82.5567 79.0603 79.4684 80.5908 76.0929C82.1222 72.7155 82.76 69.1084 82.76 65.04H80.76C80.76 68.8916 80.1578 72.2045 78.7692 75.267C77.3797 78.3316 75.1764 81.2033 71.894 84.1341L73.226 85.6259ZM82.76 65.04C82.76 62.0391 82.2716 59.3839 81.0822 57.4467C79.8498 55.4397 77.9066 54.28 75.28 54.28V56.28C77.2134 56.28 78.5102 57.0803 79.3778 58.4933C80.2884 59.9761 80.76 62.2009 80.76 65.04H82.76ZM75.28 54.28C71.4731 54.28 68.7731 56.6422 67.0767 59.6828C65.3867 62.712 64.6 66.5479 64.6 69.92H66.6C66.6 66.8121 67.3333 63.3279 68.8233 60.6572C70.3069 57.9978 72.4469 56.28 75.28 56.28V54.28ZM64.6 69.92C64.6 71.9589 65.0218 73.8202 65.9635 75.2029C66.9356 76.6303 68.4219 77.48 70.32 77.48V75.48C69.0981 75.48 68.2244 74.9697 67.6165 74.0771C66.9782 73.1398 66.6 71.7211 66.6 69.92H64.6ZM70.32 77.48C74.2708 77.48 76.4776 74.769 77.9415 73.1509L76.4585 71.8091C74.8824 73.551 73.2492 75.48 70.32 75.48V77.48ZM76.5598 73.2482L77.0398 73.6482L78.3202 72.1118L77.8402 71.7118L76.5598 73.2482ZM76.8107 72.3857C74.5445 76.3712 70.2452 80.92 64.64 80.92V82.92C71.3548 82.92 76.1755 77.5488 78.5493 73.3743L76.8107 72.3857ZM64.64 80.92C61.5174 80.92 59.2379 80.0024 57.7391 78.4949C56.2386 76.9857 55.4 74.764 55.4 71.92H53.4C53.4 75.156 54.3614 77.9343 56.3209 79.9051C58.2821 81.8776 61.1226 82.92 64.64 82.92V80.92ZM55.4 71.92C55.4 63.075 64.4849 55.32 76.88 55.32V53.32C63.8351 53.32 53.4 61.565 53.4 71.92H55.4ZM76.88 55.32C81.7483 55.32 86.5999 55.9388 90.2 57.753C91.9858 58.6529 93.4348 59.8325 94.4397 61.3517C95.4408 62.865 96.04 64.7734 96.04 67.2H98.04C98.04 64.4266 97.3492 62.125 96.1078 60.2483C94.8702 58.3775 93.1243 56.9871 91.1 55.967C87.0801 53.9412 81.8517 53.32 76.88 53.32V55.32ZM96.04 67.2C96.04 71.9987 93.5865 76.1732 88.7908 79.857C83.9734 83.5575 76.8695 86.6948 67.7981 89.3606L68.3619 91.2794C77.5305 88.5852 84.9066 85.3625 90.0092 81.443C95.1335 77.5068 98.04 72.8013 98.04 67.2H96.04ZM67.5005 89.505L63.9005 92.065L65.0595 93.695L68.6595 91.135L67.5005 89.505ZM64.48 93.88H90.48V91.88H64.48V93.88ZM90.48 93.88C93.0167 93.88 94.8549 92.4969 96.2104 90.8053C97.5477 89.1363 98.5173 87.0395 99.3029 85.3899L97.4971 84.5301C96.6827 86.2405 95.8123 88.1037 94.6496 89.5547C93.5051 90.9831 92.1833 91.88 90.48 91.88V93.88ZM98.0489 85.8963L98.6889 86.1363L99.3911 84.2637L98.7511 84.0237L98.0489 85.8963ZM98.0731 84.9449L93.1131 103.745L95.0469 104.255L100.007 85.4551L98.0731 84.9449ZM94.08 103H54.72V105H94.08V103ZM130.015 104.28C123.045 104.28 117.146 101.921 112.995 97.8556C108.846 93.7922 106.375 87.9588 106.375 80.88H104.375C104.375 88.4412 107.024 94.8078 111.595 99.2844C116.164 103.759 122.585 106.28 130.015 106.28V104.28ZM106.375 80.88C106.375 72.1114 109.643 65.7467 114.312 61.5649C119.001 57.3648 125.157 55.32 130.975 55.32V53.32C124.713 53.32 118.069 55.5152 112.978 60.0751C107.867 64.6533 104.375 71.5686 104.375 80.88H106.375ZM130.975 55.32C137.991 55.32 143.909 57.6425 148.068 61.6869C152.223 65.728 154.695 71.559 154.695 78.72H156.695C156.695 71.081 154.047 64.712 149.462 60.2531C144.881 55.7975 138.439 53.32 130.975 53.32V55.32ZM154.695 78.72C154.695 87.4513 151.465 93.816 146.806 98.0066C142.128 102.215 135.954 104.28 130.015 104.28V106.28C136.396 106.28 143.062 104.065 148.144 99.4934C153.245 94.904 156.695 87.9887 156.695 78.72H154.695ZM130.335 105.32C133.824 105.32 136.25 102.648 137.767 98.3746C139.294 94.0738 140.055 87.7987 140.055 79.76H138.055C138.055 87.7213 137.296 93.7262 135.883 97.7054C134.46 101.712 132.526 103.32 130.335 103.32V105.32ZM140.055 79.76C140.055 72.4696 139.618 66.2251 138.304 61.7767C137.646 59.5497 136.745 57.6868 135.494 56.369C134.214 55.0205 132.6 54.28 130.655 54.28V56.28C132.03 56.28 133.126 56.7795 134.043 57.746C134.99 58.7432 135.774 60.2703 136.386 62.3433C137.612 66.4949 138.055 72.4904 138.055 79.76H140.055ZM130.655 54.28C127.241 54.28 124.837 56.9395 123.323 61.1947C121.796 65.4847 121.015 71.7591 121.015 79.84H123.015C123.015 71.8409 123.794 65.8353 125.207 61.8653C126.633 57.8605 128.549 56.28 130.655 56.28V54.28ZM121.015 79.84C121.015 87.328 121.452 93.5744 122.756 97.9742C123.41 100.178 124.305 102.006 125.548 103.293C126.821 104.611 128.419 105.32 130.335 105.32V103.32C128.971 103.32 127.889 102.839 126.987 101.904C126.055 100.939 125.28 99.452 124.674 97.4058C123.458 93.3056 123.015 87.312 123.015 79.84H121.015ZM162.451 104L161.454 103.93L161.378 105H162.451V104ZM162.851 98.32L162.266 97.5093L161.887 97.7832L161.854 98.2498L162.851 98.32ZM180.291 84.88L180.953 85.6296L180.957 85.6259L180.291 84.88ZM184.931 72.48L185.571 71.7118L184.834 71.0971L184.19 71.8091L184.931 72.48ZM185.411 72.88L186.281 73.3743L186.694 72.6472L186.051 72.1118L185.411 72.88ZM175.811 90.32L175.529 89.3606L175.368 89.4079L175.232 89.505L175.811 90.32ZM172.211 92.88L171.632 92.065L169.079 93.88H172.211V92.88ZM206.131 84.96L206.482 84.0237L205.623 83.7014L205.228 84.5301L206.131 84.96ZM206.771 85.2L207.738 85.4551L207.969 84.5811L207.122 84.2637L206.771 85.2ZM201.811 104V105H202.582L202.778 104.255L201.811 104ZM163.449 104.07L163.849 98.3902L161.854 98.2498L161.454 103.93L163.449 104.07ZM163.437 99.1307C169.182 94.9813 174.748 91.1093 180.953 85.6296L179.629 84.1304C173.514 89.5307 168.04 93.3387 162.266 97.5093L163.437 99.1307ZM180.957 85.6259C184.395 82.5567 186.792 79.4684 188.322 76.0929C189.853 72.7155 190.491 69.1084 190.491 65.04H188.491C188.491 68.8916 187.889 72.2045 186.5 75.267C185.111 78.3316 182.908 81.2033 179.625 84.1341L180.957 85.6259ZM190.491 65.04C190.491 62.0391 190.003 59.3839 188.813 57.4467C187.581 55.4397 185.638 54.28 183.011 54.28V56.28C184.945 56.28 186.241 57.0803 187.109 58.4933C188.02 59.9761 188.491 62.2009 188.491 65.04H190.491ZM183.011 54.28C179.204 54.28 176.504 56.6422 174.808 59.6828C173.118 62.712 172.331 66.5479 172.331 69.92H174.331C174.331 66.8121 175.065 63.3279 176.555 60.6572C178.038 57.9978 180.178 56.28 183.011 56.28V54.28ZM172.331 69.92C172.331 71.9589 172.753 73.8202 173.695 75.2029C174.667 76.6303 176.153 77.48 178.051 77.48V75.48C176.829 75.48 175.956 74.9697 175.348 74.0771C174.709 73.1398 174.331 71.7211 174.331 69.92H172.331ZM178.051 77.48C182.002 77.48 184.209 74.769 185.673 73.1509L184.19 71.8091C182.614 73.551 180.98 75.48 178.051 75.48V77.48ZM184.291 73.2482L184.771 73.6482L186.051 72.1118L185.571 71.7118L184.291 73.2482ZM184.542 72.3857C182.276 76.3712 177.976 80.92 172.371 80.92V82.92C179.086 82.92 183.907 77.5488 186.281 73.3743L184.542 72.3857ZM172.371 80.92C169.249 80.92 166.969 80.0024 165.47 78.4949C163.97 76.9857 163.131 74.764 163.131 71.92H161.131C161.131 75.156 162.093 77.9343 164.052 79.9051C166.013 81.8776 168.854 82.92 172.371 82.92V80.92ZM163.131 71.92C163.131 63.075 172.216 55.32 184.611 55.32V53.32C171.566 53.32 161.131 61.565 161.131 71.92H163.131ZM184.611 55.32C189.48 55.32 194.331 55.9388 197.931 57.753C199.717 58.6529 201.166 59.8325 202.171 61.3517C203.172 62.865 203.771 64.7734 203.771 67.2H205.771C205.771 64.4266 205.08 62.125 203.839 60.2483C202.602 58.3775 200.855 56.9871 198.831 55.967C194.811 53.9412 189.583 53.32 184.611 53.32V55.32ZM203.771 67.2C203.771 71.9987 201.318 76.1732 196.522 79.857C191.705 83.5575 184.601 86.6948 175.529 89.3606L176.093 91.2794C185.262 88.5852 192.638 85.3625 197.74 81.443C202.865 77.5068 205.771 72.8013 205.771 67.2H203.771ZM175.232 89.505L171.632 92.065L172.791 93.695L176.391 91.135L175.232 89.505ZM172.211 93.88H198.211V91.88H172.211V93.88ZM198.211 93.88C200.748 93.88 202.586 92.4969 203.942 90.8053C205.279 89.1363 206.249 87.0395 207.034 85.3899L205.228 84.5301C204.414 86.2405 203.544 88.1037 202.381 89.5547C201.236 90.9831 199.915 91.88 198.211 91.88V93.88ZM205.78 85.8963L206.42 86.1363L207.122 84.2637L206.482 84.0237L205.78 85.8963ZM205.804 84.9449L200.844 103.745L202.778 104.255L207.738 85.4551L205.804 84.9449ZM201.811 103H162.451V105H201.811V103ZM213.426 104L212.429 103.93L212.353 105H213.426V104ZM213.826 98.32L213.241 97.5093L212.862 97.7832L212.829 98.2498L213.826 98.32ZM231.266 84.88L231.928 85.6296L231.932 85.6259L231.266 84.88ZM235.906 72.48L236.546 71.7118L235.809 71.0971L235.165 71.8091L235.906 72.48ZM236.386 72.88L237.256 73.3743L237.669 72.6472L237.026 72.1118L236.386 72.88ZM226.786 90.32L226.504 89.3606L226.343 89.4079L226.207 89.505L226.786 90.32ZM223.186 92.88L222.607 92.065L220.054 93.88H223.186V92.88ZM257.106 84.96L257.457 84.0237L256.598 83.7014L256.203 84.5301L257.106 84.96ZM257.746 85.2L258.713 85.4551L258.944 84.5811L258.097 84.2637L257.746 85.2ZM252.786 104V105H253.557L253.753 104.255L252.786 104ZM214.424 104.07L214.824 98.3902L212.829 98.2498L212.429 103.93L214.424 104.07ZM214.412 99.1307C220.157 94.9813 225.723 91.1093 231.928 85.6296L230.604 84.1304C224.489 89.5307 219.015 93.3387 213.241 97.5093L214.412 99.1307ZM231.932 85.6259C235.37 82.5567 237.767 79.4684 239.297 76.0929C240.828 72.7155 241.466 69.1084 241.466 65.04H239.466C239.466 68.8916 238.864 72.2045 237.475 75.267C236.086 78.3316 233.883 81.2033 230.6 84.1341L231.932 85.6259ZM241.466 65.04C241.466 62.0391 240.978 59.3839 239.788 57.4467C238.556 55.4397 236.613 54.28 233.986 54.28V56.28C235.92 56.28 237.216 57.0803 238.084 58.4933C238.995 59.9761 239.466 62.2009 239.466 65.04H241.466ZM233.986 54.28C230.179 54.28 227.479 56.6422 225.783 59.6828C224.093 62.712 223.306 66.5479 223.306 69.92H225.306C225.306 66.8121 226.04 63.3279 227.53 60.6572C229.013 57.9978 231.153 56.28 233.986 56.28V54.28ZM223.306 69.92C223.306 71.9589 223.728 73.8202 224.67 75.2029C225.642 76.6303 227.128 77.48 229.026 77.48V75.48C227.804 75.48 226.931 74.9697 226.323 74.0771C225.684 73.1398 225.306 71.7211 225.306 69.92H223.306ZM229.026 77.48C232.977 77.48 235.184 74.769 236.648 73.1509L235.165 71.8091C233.589 73.551 231.955 75.48 229.026 75.48V77.48ZM235.266 73.2482L235.746 73.6482L237.026 72.1118L236.546 71.7118L235.266 73.2482ZM235.517 72.3857C233.251 76.3712 228.951 80.92 223.346 80.92V82.92C230.061 82.92 234.882 77.5488 237.256 73.3743L235.517 72.3857ZM223.346 80.92C220.224 80.92 217.944 80.0024 216.445 78.4949C214.945 76.9857 214.106 74.764 214.106 71.92H212.106C212.106 75.156 213.068 77.9343 215.027 79.9051C216.988 81.8776 219.829 82.92 223.346 82.92V80.92ZM214.106 71.92C214.106 63.075 223.191 55.32 235.586 55.32V53.32C222.541 53.32 212.106 61.565 212.106 71.92H214.106ZM235.586 55.32C240.455 55.32 245.306 55.9388 248.906 57.753C250.692 58.6529 252.141 59.8325 253.146 61.3517C254.147 62.865 254.746 64.7734 254.746 67.2H256.746C256.746 64.4266 256.055 62.125 254.814 60.2483C253.577 58.3775 251.831 56.9871 249.806 55.967C245.786 53.9412 240.558 53.32 235.586 53.32V55.32ZM254.746 67.2C254.746 71.9987 252.293 76.1732 247.497 79.857C242.68 83.5575 235.576 86.6948 226.504 89.3606L227.068 91.2794C236.237 88.5852 243.613 85.3625 248.715 81.443C253.84 77.5068 256.746 72.8013 256.746 67.2H254.746ZM226.207 89.505L222.607 92.065L223.766 93.695L227.366 91.135L226.207 89.505ZM223.186 93.88H249.186V91.88H223.186V93.88ZM249.186 93.88C251.723 93.88 253.561 92.4969 254.917 90.8053C256.254 89.1363 257.224 87.0395 258.009 85.3899L256.203 84.5301C255.389 86.2405 254.519 88.1037 253.356 89.5547C252.211 90.9831 250.89 91.88 249.186 91.88V93.88ZM256.755 85.8963L257.395 86.1363L258.097 84.2637L257.457 84.0237L256.755 85.8963ZM256.779 84.9449L251.819 103.745L253.753 104.255L258.713 85.4551L256.779 84.9449ZM252.786 103H213.426V105H252.786V103Z" fill="#191919"/>
<path d="M54.72 564L55.12 558.32C60.88 554.16 66.4 550.32 72.56 544.88C79.28 538.88 81.76 532.96 81.76 525.04C81.76 519.2 79.84 515.28 75.28 515.28C68.64 515.28 65.6 523.44 65.6 529.92C65.6 533.76 67.2 536.48 70.32 536.48C73.76 536.48 75.68 534.16 77.2 532.48L77.68 532.88C75.36 536.96 70.8 541.92 64.64 541.92C58 541.92 54.4 538 54.4 531.92C54.4 522.32 64.16 514.32 76.88 514.32C86.72 514.32 97.04 516.8 97.04 527.2C97.04 537.6 86.32 544.96 68.08 550.32L64.48 552.88H90.48C94.72 552.88 96.8 548.32 98.4 544.96L99.04 545.2L94.08 564H54.72ZM130.015 565.28C115.615 565.28 105.375 555.52 105.375 540.88C105.375 522.8 118.895 514.32 130.975 514.32C145.455 514.32 155.695 523.92 155.695 538.72C155.695 556.72 142.335 565.28 130.015 565.28ZM130.335 564.32C136.015 564.32 139.055 555.76 139.055 539.76C139.055 525.2 137.295 515.28 130.655 515.28C125.135 515.28 122.015 523.76 122.015 539.84C122.015 554.8 123.775 564.32 130.335 564.32ZM162.451 564L162.851 558.32C168.611 554.16 174.131 550.32 180.291 544.88C187.011 538.88 189.491 532.96 189.491 525.04C189.491 519.2 187.571 515.28 183.011 515.28C176.371 515.28 173.331 523.44 173.331 529.92C173.331 533.76 174.931 536.48 178.051 536.48C181.491 536.48 183.411 534.16 184.931 532.48L185.411 532.88C183.091 536.96 178.531 541.92 172.371 541.92C165.731 541.92 162.131 538 162.131 531.92C162.131 522.32 171.891 514.32 184.611 514.32C194.451 514.32 204.771 516.8 204.771 527.2C204.771 537.6 194.051 544.96 175.811 550.32L172.211 552.88H198.211C202.451 552.88 204.531 548.32 206.131 544.96L206.771 545.2L201.811 564H162.451ZM223.838 564V563.44C225.278 563.36 227.918 562.96 229.518 562.48C230.958 562.08 232.158 560.72 232.158 558.96V547.84H211.038V546.64L238.398 513.76H247.598V545.84H253.278C254.958 545.84 256.878 544.96 257.518 543.52C258.078 542.32 258.478 540.32 258.638 538.88H259.198V555.36H258.638C258.398 553.92 257.838 551.52 257.358 550.4C256.798 549.04 255.118 547.84 253.358 547.84H247.598V558.56C247.598 560.72 248.478 561.76 249.918 562.4C251.118 562.96 253.918 563.36 255.278 563.44V564H223.838ZM213.598 545.84H232.158V523.52L213.598 545.84Z" fill="#191919"/>
<path d="M54.72 564L53.7225 563.93L53.6471 565H54.72V564ZM55.12 558.32L54.5345 557.509L54.1553 557.783L54.1225 558.25L55.12 558.32ZM72.56 544.88L73.222 545.63L73.226 545.626L72.56 544.88ZM77.2 532.48L77.8402 531.712L77.1026 531.097L76.4585 531.809L77.2 532.48ZM77.68 532.88L78.5493 533.374L78.9627 532.647L78.3202 532.112L77.68 532.88ZM68.08 550.32L67.7981 549.361L67.6372 549.408L67.5005 549.505L68.08 550.32ZM64.48 552.88L63.9005 552.065L61.3482 553.88H64.48V552.88ZM98.4 544.96L98.7511 544.024L97.8917 543.701L97.4971 544.53L98.4 544.96ZM99.04 545.2L100.007 545.455L100.238 544.581L99.3911 544.264L99.04 545.2ZM94.08 564V565H94.8504L95.0469 564.255L94.08 564ZM55.7175 564.07L56.1175 558.39L54.1225 558.25L53.7225 563.93L55.7175 564.07ZM55.7055 559.131C61.4508 554.981 67.0169 551.109 73.2219 545.63L71.8981 544.13C65.7831 549.531 60.3092 553.339 54.5345 557.509L55.7055 559.131ZM73.226 545.626C76.6636 542.557 79.0603 539.468 80.5908 536.093C82.1222 532.715 82.76 529.108 82.76 525.04H80.76C80.76 528.892 80.1578 532.205 78.7692 535.267C77.3797 538.332 75.1764 541.203 71.894 544.134L73.226 545.626ZM82.76 525.04C82.76 522.039 82.2716 519.384 81.0822 517.447C79.8498 515.44 77.9066 514.28 75.28 514.28V516.28C77.2134 516.28 78.5102 517.08 79.3778 518.493C80.2884 519.976 80.76 522.201 80.76 525.04H82.76ZM75.28 514.28C71.4731 514.28 68.7731 516.642 67.0767 519.683C65.3867 522.712 64.6 526.548 64.6 529.92H66.6C66.6 526.812 67.3333 523.328 68.8233 520.657C70.3069 517.998 72.4469 516.28 75.28 516.28V514.28ZM64.6 529.92C64.6 531.959 65.0218 533.82 65.9635 535.203C66.9356 536.63 68.4219 537.48 70.32 537.48V535.48C69.0981 535.48 68.2244 534.97 67.6165 534.077C66.9782 533.14 66.6 531.721 66.6 529.92H64.6ZM70.32 537.48C74.2708 537.48 76.4776 534.769 77.9415 533.151L76.4585 531.809C74.8824 533.551 73.2492 535.48 70.32 535.48V537.48ZM76.5598 533.248L77.0398 533.648L78.3202 532.112L77.8402 531.712L76.5598 533.248ZM76.8107 532.386C74.5445 536.371 70.2452 540.92 64.64 540.92V542.92C71.3548 542.92 76.1755 537.549 78.5493 533.374L76.8107 532.386ZM64.64 540.92C61.5174 540.92 59.2379 540.002 57.7391 538.495C56.2386 536.986 55.4 534.764 55.4 531.92H53.4C53.4 535.156 54.3614 537.934 56.3209 539.905C58.2821 541.878 61.1226 542.92 64.64 542.92V540.92ZM55.4 531.92C55.4 523.075 64.4849 515.32 76.88 515.32V513.32C63.8351 513.32 53.4 521.565 53.4 531.92H55.4ZM76.88 515.32C81.7483 515.32 86.5999 515.939 90.2 517.753C91.9858 518.653 93.4348 519.833 94.4397 521.352C95.4408 522.865 96.04 524.773 96.04 527.2H98.04C98.04 524.427 97.3492 522.125 96.1078 520.248C94.8702 518.377 93.1243 516.987 91.1 515.967C87.0801 513.941 81.8517 513.32 76.88 513.32V515.32ZM96.04 527.2C96.04 531.999 93.5865 536.173 88.7908 539.857C83.9734 543.557 76.8695 546.695 67.7981 549.361L68.3619 551.279C77.5305 548.585 84.9066 545.363 90.0092 541.443C95.1335 537.507 98.04 532.801 98.04 527.2H96.04ZM67.5005 549.505L63.9005 552.065L65.0595 553.695L68.6595 551.135L67.5005 549.505ZM64.48 553.88H90.48V551.88H64.48V553.88ZM90.48 553.88C93.0167 553.88 94.8549 552.497 96.2104 550.805C97.5477 549.136 98.5173 547.04 99.3029 545.39L97.4971 544.53C96.6827 546.24 95.8123 548.104 94.6496 549.555C93.5051 550.983 92.1833 551.88 90.48 551.88V553.88ZM98.0489 545.896L98.6889 546.136L99.3911 544.264L98.7511 544.024L98.0489 545.896ZM98.0731 544.945L93.1131 563.745L95.0469 564.255L100.007 545.455L98.0731 544.945ZM94.08 563H54.72V565H94.08V563ZM130.015 564.28C123.045 564.28 117.146 561.921 112.995 557.856C108.846 553.792 106.375 547.959 106.375 540.88H104.375C104.375 548.441 107.024 554.808 111.595 559.284C116.164 563.759 122.585 566.28 130.015 566.28V564.28ZM106.375 540.88C106.375 532.111 109.643 525.747 114.312 521.565C119.001 517.365 125.157 515.32 130.975 515.32V513.32C124.713 513.32 118.069 515.515 112.978 520.075C107.867 524.653 104.375 531.569 104.375 540.88H106.375ZM130.975 515.32C137.991 515.32 143.909 517.642 148.068 521.687C152.223 525.728 154.695 531.559 154.695 538.72H156.695C156.695 531.081 154.047 524.712 149.462 520.253C144.881 515.798 138.439 513.32 130.975 513.32V515.32ZM154.695 538.72C154.695 547.451 151.465 553.816 146.806 558.007C142.128 562.215 135.954 564.28 130.015 564.28V566.28C136.396 566.28 143.062 564.065 148.144 559.493C153.245 554.904 156.695 547.989 156.695 538.72H154.695ZM130.335 565.32C133.824 565.32 136.25 562.648 137.767 558.375C139.294 554.074 140.055 547.799 140.055 539.76H138.055C138.055 547.721 137.296 553.726 135.883 557.705C134.46 561.712 132.526 563.32 130.335 563.32V565.32ZM140.055 539.76C140.055 532.47 139.618 526.225 138.304 521.777C137.646 519.55 136.745 517.687 135.494 516.369C134.214 515.021 132.6 514.28 130.655 514.28V516.28C132.03 516.28 133.126 516.779 134.043 517.746C134.99 518.743 135.774 520.27 136.386 522.343C137.612 526.495 138.055 532.49 138.055 539.76H140.055ZM130.655 514.28C127.241 514.28 124.837 516.94 123.323 521.195C121.796 525.485 121.015 531.759 121.015 539.84H123.015C123.015 531.841 123.794 525.835 125.207 521.865C126.633 517.86 128.549 516.28 130.655 516.28V514.28ZM121.015 539.84C121.015 547.328 121.452 553.574 122.756 557.974C123.41 560.178 124.305 562.006 125.548 563.293C126.821 564.611 128.419 565.32 130.335 565.32V563.32C128.971 563.32 127.889 562.839 126.987 561.904C126.055 560.939 125.28 559.452 124.674 557.406C123.458 553.306 123.015 547.312 123.015 539.84H121.015ZM162.451 564L161.454 563.93L161.378 565H162.451V564ZM162.851 558.32L162.266 557.509L161.887 557.783L161.854 558.25L162.851 558.32ZM180.291 544.88L180.953 545.63L180.957 545.626L180.291 544.88ZM184.931 532.48L185.571 531.712L184.834 531.097L184.19 531.809L184.931 532.48ZM185.411 532.88L186.281 533.374L186.694 532.647L186.051 532.112L185.411 532.88ZM175.811 550.32L175.529 549.361L175.368 549.408L175.232 549.505L175.811 550.32ZM172.211 552.88L171.632 552.065L169.079 553.88H172.211V552.88ZM206.131 544.96L206.482 544.024L205.623 543.701L205.228 544.53L206.131 544.96ZM206.771 545.2L207.738 545.455L207.969 544.581L207.122 544.264L206.771 545.2ZM201.811 564V565H202.582L202.778 564.255L201.811 564ZM163.449 564.07L163.849 558.39L161.854 558.25L161.454 563.93L163.449 564.07ZM163.437 559.131C169.182 554.981 174.748 551.109 180.953 545.63L179.629 544.13C173.514 549.531 168.04 553.339 162.266 557.509L163.437 559.131ZM180.957 545.626C184.395 542.557 186.792 539.468 188.322 536.093C189.853 532.715 190.491 529.108 190.491 525.04H188.491C188.491 528.892 187.889 532.205 186.5 535.267C185.111 538.332 182.908 541.203 179.625 544.134L180.957 545.626ZM190.491 525.04C190.491 522.039 190.003 519.384 188.813 517.447C187.581 515.44 185.638 514.28 183.011 514.28V516.28C184.945 516.28 186.241 517.08 187.109 518.493C188.02 519.976 188.491 522.201 188.491 525.04H190.491ZM183.011 514.28C179.204 514.28 176.504 516.642 174.808 519.683C173.118 522.712 172.331 526.548 172.331 529.92H174.331C174.331 526.812 175.065 523.328 176.555 520.657C178.038 517.998 180.178 516.28 183.011 516.28V514.28ZM172.331 529.92C172.331 531.959 172.753 533.82 173.695 535.203C174.667 536.63 176.153 537.48 178.051 537.48V535.48C176.829 535.48 175.956 534.97 175.348 534.077C174.709 533.14 174.331 531.721 174.331 529.92H172.331ZM178.051 537.48C182.002 537.48 184.209 534.769 185.673 533.151L184.19 531.809C182.614 533.551 180.98 535.48 178.051 535.48V537.48ZM184.291 533.248L184.771 533.648L186.051 532.112L185.571 531.712L184.291 533.248ZM184.542 532.386C182.276 536.371 177.976 540.92 172.371 540.92V542.92C179.086 542.92 183.907 537.549 186.281 533.374L184.542 532.386ZM172.371 540.92C169.249 540.92 166.969 540.002 165.47 538.495C163.97 536.986 163.131 534.764 163.131 531.92H161.131C161.131 535.156 162.093 537.934 164.052 539.905C166.013 541.878 168.854 542.92 172.371 542.92V540.92ZM163.131 531.92C163.131 523.075 172.216 515.32 184.611 515.32V513.32C171.566 513.32 161.131 521.565 161.131 531.92H163.131ZM184.611 515.32C189.48 515.32 194.331 515.939 197.931 517.753C199.717 518.653 201.166 519.833 202.171 521.352C203.172 522.865 203.771 524.773 203.771 527.2H205.771C205.771 524.427 205.08 522.125 203.839 520.248C202.602 518.377 200.855 516.987 198.831 515.967C194.811 513.941 189.583 513.32 184.611 513.32V515.32ZM203.771 527.2C203.771 531.999 201.318 536.173 196.522 539.857C191.705 543.557 184.601 546.695 175.529 549.361L176.093 551.279C185.262 548.585 192.638 545.363 197.74 541.443C202.865 537.507 205.771 532.801 205.771 527.2H203.771ZM175.232 549.505L171.632 552.065L172.791 553.695L176.391 551.135L175.232 549.505ZM172.211 553.88H198.211V551.88H172.211V553.88ZM198.211 553.88C200.748 553.88 202.586 552.497 203.942 550.805C205.279 549.136 206.249 547.04 207.034 545.39L205.228 544.53C204.414 546.24 203.544 548.104 202.381 549.555C201.236 550.983 199.915 551.88 198.211 551.88V553.88ZM205.78 545.896L206.42 546.136L207.122 544.264L206.482 544.024L205.78 545.896ZM205.804 544.945L200.844 563.745L202.778 564.255L207.738 545.455L205.804 544.945ZM201.811 563H162.451V565H201.811V563ZM223.838 564H222.838V565H223.838V564ZM223.838 563.44L223.782 562.442L222.838 562.494V563.44H223.838ZM229.518 562.48L229.25 561.516L229.24 561.519L229.23 561.522L229.518 562.48ZM232.158 547.84H233.158V546.84H232.158V547.84ZM211.038 547.84H210.038V548.84H211.038V547.84ZM211.038 546.64L210.269 546L210.038 546.278V546.64H211.038ZM238.398 513.76V512.76H237.929L237.629 513.12L238.398 513.76ZM247.598 513.76H248.598V512.76H247.598V513.76ZM247.598 545.84H246.598V546.84H247.598V545.84ZM257.518 543.52L256.611 543.097L256.607 543.105L256.604 543.114L257.518 543.52ZM258.638 538.88V537.88H257.742L257.644 538.77L258.638 538.88ZM259.198 538.88H260.198V537.88H259.198V538.88ZM259.198 555.36V556.36H260.198V555.36H259.198ZM258.638 555.36L257.651 555.524L257.79 556.36H258.638V555.36ZM257.358 550.4L256.433 550.781L256.436 550.787L256.438 550.794L257.358 550.4ZM247.598 547.84V546.84H246.598V547.84H247.598ZM249.918 562.4L250.34 561.494L250.332 561.49L250.324 561.486L249.918 562.4ZM255.278 563.44H256.278V562.497L255.336 562.442L255.278 563.44ZM255.278 564V565H256.278V564H255.278ZM213.598 545.84L212.829 545.201L211.465 546.84H213.598V545.84ZM232.158 545.84V546.84H233.158V545.84H232.158ZM232.158 523.52H233.158V520.753L231.389 522.881L232.158 523.52ZM224.838 564V563.44H222.838V564H224.838ZM223.893 564.438C225.396 564.355 228.115 563.945 229.805 563.438L229.23 561.522C227.72 561.975 225.16 562.365 223.782 562.442L223.893 564.438ZM229.785 563.444C231.631 562.931 233.158 561.197 233.158 558.96H231.158C231.158 560.243 230.284 561.229 229.25 561.516L229.785 563.444ZM233.158 558.96V547.84H231.158V558.96H233.158ZM232.158 546.84H211.038V548.84H232.158V546.84ZM212.038 547.84V546.64H210.038V547.84H212.038ZM211.806 547.28L239.166 514.4L237.629 513.12L210.269 546L211.806 547.28ZM238.398 514.76H247.598V512.76H238.398V514.76ZM246.598 513.76V545.84H248.598V513.76H246.598ZM247.598 546.84H253.278V544.84H247.598V546.84ZM253.278 546.84C254.281 546.84 255.339 546.58 256.248 546.107C257.153 545.638 257.993 544.913 258.431 543.926L256.604 543.114C256.402 543.567 255.962 544.002 255.327 544.333C254.697 544.66 253.954 544.84 253.278 544.84V546.84ZM258.424 543.943C259.053 542.594 259.468 540.464 259.631 538.99L257.644 538.77C257.487 540.176 257.102 542.046 256.611 543.097L258.424 543.943ZM258.638 539.88H259.198V537.88H258.638V539.88ZM258.198 538.88V555.36H260.198V538.88H258.198ZM259.198 554.36H258.638V556.36H259.198V554.36ZM259.624 555.196C259.381 553.739 258.806 551.241 258.277 550.006L256.438 550.794C256.869 551.799 257.414 554.101 257.651 555.524L259.624 555.196ZM258.282 550.019C257.565 548.277 255.514 546.84 253.358 546.84V548.84C254.721 548.84 256.03 549.803 256.433 550.781L258.282 550.019ZM253.358 546.84H247.598V548.84H253.358V546.84ZM246.598 547.84V558.56H248.598V547.84H246.598ZM246.598 558.56C246.598 559.775 246.846 560.782 247.381 561.598C247.918 562.416 248.676 562.943 249.511 563.314L250.324 561.486C249.719 561.217 249.317 560.904 249.054 560.502C248.789 560.098 248.598 559.505 248.598 558.56H246.598ZM249.495 563.306C250.224 563.647 251.339 563.904 252.364 564.085C253.416 564.27 254.495 564.396 255.219 564.438L255.336 562.442C254.7 562.404 253.699 562.29 252.711 562.115C251.696 561.936 250.811 561.713 250.34 561.494L249.495 563.306ZM254.278 563.44V564H256.278V563.44H254.278ZM255.278 563H223.838V565H255.278V563ZM213.598 546.84H232.158V544.84H213.598V546.84ZM233.158 545.84V523.52H231.158V545.84H233.158ZM231.389 522.881L212.829 545.201L214.366 546.479L232.926 524.159L231.389 522.881Z" fill="#191919"/>
<path d="M54.72 334L55.12 328.32C60.88 324.16 66.4 320.32 72.56 314.88C79.28 308.88 81.76 302.96 81.76 295.04C81.76 289.2 79.84 285.28 75.28 285.28C68.64 285.28 65.6 293.44 65.6 299.92C65.6 303.76 67.2 306.48 70.32 306.48C73.76 306.48 75.68 304.16 77.2 302.48L77.68 302.88C75.36 306.96 70.8 311.92 64.64 311.92C58 311.92 54.4 308 54.4 301.92C54.4 292.32 64.16 284.32 76.88 284.32C86.72 284.32 97.04 286.8 97.04 297.2C97.04 307.6 86.32 314.96 68.08 320.32L64.48 322.88H90.48C94.72 322.88 96.8 318.32 98.4 314.96L99.04 315.2L94.08 334H54.72ZM130.015 335.28C115.615 335.28 105.375 325.52 105.375 310.88C105.375 292.8 118.895 284.32 130.975 284.32C145.455 284.32 155.695 293.92 155.695 308.72C155.695 326.72 142.335 335.28 130.015 335.28ZM130.335 334.32C136.015 334.32 139.055 325.76 139.055 309.76C139.055 295.2 137.295 285.28 130.655 285.28C125.135 285.28 122.015 293.76 122.015 309.84C122.015 324.8 123.775 334.32 130.335 334.32ZM162.451 334L162.851 328.32C168.611 324.16 174.131 320.32 180.291 314.88C187.011 308.88 189.491 302.96 189.491 295.04C189.491 289.2 187.571 285.28 183.011 285.28C176.371 285.28 173.331 293.44 173.331 299.92C173.331 303.76 174.931 306.48 178.051 306.48C181.491 306.48 183.411 304.16 184.931 302.48L185.411 302.88C183.091 306.96 178.531 311.92 172.371 311.92C165.731 311.92 162.131 308 162.131 301.92C162.131 292.32 171.891 284.32 184.611 284.32C194.451 284.32 204.771 286.8 204.771 297.2C204.771 307.6 194.051 314.96 175.811 320.32L172.211 322.88H198.211C202.451 322.88 204.531 318.32 206.131 314.96L206.771 315.2L201.811 334H162.451ZM228.706 336.16C220.546 336.16 210.706 333.68 210.706 325.2C210.706 319.04 215.026 315.6 220.146 315.6C224.306 315.6 226.706 318.32 226.706 320.96C226.706 326.64 219.666 328 219.666 330.96C219.666 334 223.426 335.36 227.826 335.36C235.826 335.36 240.946 327.6 240.946 318.08C240.946 312.8 240.146 308.8 235.906 308.8C233.106 308.8 230.226 311.6 227.826 314.24L225.506 310.88C234.226 305.92 240.066 302.88 240.066 294.8C240.066 288.88 237.266 285.36 233.666 285.36C228.146 285.36 224.946 289.92 224.946 295.44C224.946 299.68 226.546 301.52 229.106 301.52C231.266 301.52 233.186 300.08 234.546 298.64L235.026 299.04C232.466 303.36 228.386 306.32 223.746 306.32C217.826 306.32 213.906 303.76 213.986 297.84C214.066 289.04 224.866 284.32 236.626 284.32C247.026 284.32 256.226 287.28 256.226 294.8C256.226 301.76 247.586 306 234.786 306.96L233.586 307.92C234.066 307.84 237.026 307.68 237.586 307.68C247.586 307.68 257.426 310 257.426 318.72C257.426 329.84 242.626 336.16 228.706 336.16Z" fill="#FBA500"/>
<path opacity="0.8" d="M156 -86V14" stroke="#191919" stroke-width="8"/>
<path opacity="0.8" d="M156 144V244" stroke="#191919" stroke-width="8"/>
<path opacity="0.8" d="M156 374V474" stroke="#191919" stroke-width="8"/>
<rect width="314" height="212" fill="url(#paint0_linear_696_12914)"/>
<rect x="314" y="632" width="314" height="212" transform="rotate(-180 314 632)" fill="url(#paint1_linear_696_12914)"/>
</g>
<defs>
<linearGradient id="paint0_linear_696_12914" x1="157" y1="0" x2="157" y2="212" gradientUnits="userSpaceOnUse">
<stop offset="0.355499" stop-color="white"/>
<stop offset="1" stop-color="white" stop-opacity="0"/>
</linearGradient>
<linearGradient id="paint1_linear_696_12914" x1="471" y1="632" x2="471" y2="844" gradientUnits="userSpaceOnUse">
<stop offset="0.355499" stop-color="white"/>
<stop offset="1" stop-color="white" stop-opacity="0"/>
</linearGradient>
<clipPath id="clip0_696_12914">
<rect width="314" height="632" fill="white"/>
</clipPath>
</defs>
</svg>
