<svg width="23" height="23" viewBox="0 0 23 23" fill="none" xmlns="http://www.w3.org/2000/svg">
<path d="M17.5878 4.10742C16.8407 4.10742 16.2429 4.71183 16.2429 5.45272C16.2429 6.1936 16.8472 6.79801 17.5878 6.79801C18.3285 6.79801 18.9327 6.1936 18.9327 5.45272C18.9327 4.71183 18.3285 4.10742 17.5878 4.10742Z" fill="white"/>
<path d="M11.5975 5.83606C8.47887 5.83606 5.93848 8.37717 5.93848 11.4967C5.93848 14.6162 8.47887 17.1573 11.5975 17.1573C14.7162 17.1573 17.2566 14.6162 17.2566 11.4967C17.2566 8.37717 14.7162 5.83606 11.5975 5.83606ZM11.5975 15.1231C9.59639 15.1231 7.97209 13.4984 7.97209 11.4967C7.97209 9.495 9.59639 7.87025 11.5975 7.87025C13.5986 7.87025 15.2229 9.495 15.2229 11.4967C15.2229 13.4984 13.5986 15.1231 11.5975 15.1231Z" fill="white"/>
<path d="M16.087 22.9935H6.9065C3.09915 22.9935 0 19.8935 0 16.0851V6.90195C0.00649718 3.10003 3.10565 0 6.913 0H16.0935C19.9008 0 23 3.10003 23 6.90845V16.0916C23 19.9 19.9008 23 16.0935 23L16.087 22.9935ZM6.913 2.16417C4.30113 2.16417 2.17006 4.28935 2.17006 6.90845V16.0916C2.17006 18.7042 4.29463 20.8358 6.913 20.8358H16.0935C18.7054 20.8358 20.8364 18.7107 20.8364 16.0916V6.90845C20.8364 4.29585 18.7119 2.16417 16.0935 2.16417H6.913Z" fill="white"/>
</svg>
