<svg width="21" height="21" viewBox="0 0 21 21" fill="none" xmlns="http://www.w3.org/2000/svg">
<path d="M11.5965 8.86796C11.8878 8.53893 12.1267 8.20727 12.4259 7.92562C13.3446 7.05698 14.4313 6.62003 15.7017 6.63056C16.3999 6.63582 17.0876 6.68583 17.7596 6.88062C19.2977 7.32547 20.1902 8.38889 20.618 9.89453C20.9383 11.0238 20.996 12.1846 20.9986 13.348C21.0039 15.8013 20.9908 18.2572 20.9986 20.7104C20.9986 20.9394 20.9356 21 20.7099 21C19.45 20.9894 18.1874 20.9894 16.9275 21C16.7044 21 16.6572 20.9341 16.6572 20.7236C16.665 18.3888 16.665 16.054 16.6572 13.7165C16.6572 13.1322 16.6178 12.5452 16.455 11.9766C16.1532 10.929 15.4051 10.3947 14.3105 10.4526C12.8144 10.5315 12.0374 11.2738 11.8485 12.7979C11.8038 13.1611 11.7802 13.527 11.7828 13.8929C11.7828 16.1645 11.7828 18.4362 11.7881 20.7078C11.7881 20.9341 11.733 21 11.502 21C10.2316 20.9894 8.96113 20.9894 7.69071 21C7.48597 21 7.42822 20.9473 7.42822 20.7394C7.43347 16.2435 7.43347 11.745 7.42822 7.24913C7.42822 7.02539 7.50172 6.97538 7.71171 6.97538C8.91651 6.98328 10.1239 6.98591 11.3287 6.97538C11.5518 6.97538 11.607 7.04645 11.6043 7.25703C11.5912 7.79401 11.5991 8.33098 11.5991 8.87059L11.5965 8.86796Z" fill="white"/>
<path d="M4.68786 14.0061C4.68786 16.2304 4.68523 18.4546 4.69311 20.6788C4.69311 20.9263 4.63274 21 4.37813 20.9973C3.11821 20.9842 1.85828 20.9868 0.595736 20.9973C0.393623 20.9973 0.333252 20.9473 0.333252 20.7394C0.338502 16.2356 0.338502 11.7319 0.333252 7.22547C0.333252 7.03858 0.377874 6.97278 0.574737 6.97278C1.85303 6.98068 3.13133 6.98331 4.40963 6.97278C4.65636 6.97278 4.68786 7.06491 4.68786 7.27812C4.68261 9.52079 4.68523 11.7635 4.68523 14.0061H4.68786Z" fill="white"/>
<path d="M5.03446 2.51116C5.03446 3.90888 3.90578 5.046 2.51461 5.046C1.14445 5.04863 0.00526775 3.90888 1.80716e-05 2.53485C-0.0052316 1.14239 1.13395 0 2.52249 0C3.90053 0 5.03446 1.1345 5.03708 2.51116H5.03446Z" fill="white"/>
</svg>
