<svg width="26" height="20" viewBox="0 0 26 20" fill="none" xmlns="http://www.w3.org/2000/svg">
<path d="M25.9679 12.3661C25.8795 11.9889 25.8312 11.5968 25.6972 11.232C25.1529 9.74044 24.0833 8.63854 22.6383 7.84934C20.7456 6.81445 18.6947 6.49926 16.5366 6.82685C14.601 7.1197 12.9334 7.90146 11.6171 9.27883C9.83166 11.1476 9.57161 13.7708 11.0327 15.8605C12.4857 17.9402 14.6707 18.8907 17.2577 19.1463C18.4856 19.2679 19.6866 19.0843 20.8716 18.8013C20.9788 18.7765 21.1209 18.7765 21.2174 18.8212C21.8045 19.0917 22.3836 19.3771 22.9627 19.66C23.1798 19.7668 23.3996 19.8735 23.6543 20C23.6302 19.9231 23.6222 19.8908 23.6114 19.8561C23.4023 19.2555 23.1986 18.6524 22.9814 18.0519C22.9385 17.9327 22.9439 17.8608 23.0645 17.7888C23.2281 17.6895 23.3782 17.5729 23.531 17.4562C24.6114 16.6397 25.4076 15.6396 25.7856 14.3838C25.8821 14.0612 25.9304 13.7237 26.0001 13.3936V12.4902C25.9867 12.4505 25.9733 12.4083 25.9626 12.3661H25.9679ZM15.6438 11.9145C15.054 11.9145 14.5768 11.4727 14.5768 10.9267C14.5768 10.3807 15.054 9.93898 15.6438 9.93898C16.2336 9.93898 16.7108 10.3807 16.7108 10.9267C16.7108 11.4727 16.2336 11.9145 15.6438 11.9145ZM20.8394 11.9145C20.2496 11.9145 19.7724 11.4727 19.7724 10.9267C19.7724 10.3807 20.2496 9.93898 20.8394 9.93898C21.4292 9.93898 21.9064 10.3807 21.9064 10.9267C21.9064 11.4727 21.4292 11.9145 20.8394 11.9145Z" fill="white"/>
<path d="M9.74307 11.6514C10.1425 10.0134 11.1747 8.7626 12.6223 7.79968C14.3569 6.64814 16.3273 6.19894 18.4426 6.23865C18.5766 6.24113 18.7106 6.23865 18.8474 6.23865C18.8474 6.21135 18.8554 6.1915 18.85 6.17661C18.8045 6.01281 18.7669 5.84653 18.7106 5.6877C17.9841 3.56331 16.4614 2.06185 14.3569 1.07659C11.7805 -0.132029 9.07016 -0.300789 6.30885 0.45863C4.13733 1.05673 2.35185 2.18842 1.12133 3.98025C0.188376 5.33529 -0.181587 6.81938 0.0838216 8.41763C0.341187 9.96625 1.12937 11.2642 2.33845 12.3413C2.77007 12.726 3.24995 13.066 3.71911 13.4382C3.42689 14.2473 3.12395 15.0812 2.80492 15.9647C2.94969 15.8952 3.03548 15.8555 3.11859 15.8158C4.0006 15.3815 4.88798 14.9471 5.76731 14.5054C5.92012 14.4285 6.05148 14.4136 6.22306 14.4632C7.27129 14.7635 8.34632 14.905 9.44013 14.9273C9.5983 14.9298 9.75915 14.9273 9.94145 14.9273C9.9066 14.8131 9.88247 14.7362 9.85835 14.6593C9.542 13.6641 9.49643 12.659 9.74307 11.6489V11.6514ZM12.7483 3.61295C13.4883 3.61295 14.0861 4.16638 14.0861 4.85135C14.0861 5.53631 13.4883 6.08974 12.7483 6.08974C12.0084 6.08974 11.4106 5.53631 11.4106 4.85135C11.4106 4.16638 12.0084 3.61295 12.7483 3.61295ZM6.23378 6.08974C5.49386 6.08974 4.89602 5.53631 4.89602 4.85135C4.89602 4.16638 5.49386 3.61295 6.23378 3.61295C6.97371 3.61295 7.57155 4.16638 7.57155 4.85135C7.57155 5.53631 6.97371 6.08974 6.23378 6.08974Z" fill="white"/>
</svg>
