<svg width="232" height="162" viewBox="0 0 232 162" fill="none" xmlns="http://www.w3.org/2000/svg">
<g clip-path="url(#clip0_398_1911)">
<path d="M204.108 162H169.41C162.053 70.5816 139.576 30.2987 131.408 20.1991C123.24 10.0996 114.056 11.2728 114.056 11.2728C116.265 10.598 118.563 10.2454 120.953 10.2454C170.481 10.2454 204.108 100.619 204.108 162Z" fill="#191919"/>
<path d="M232 162H204.108C204.108 100.619 170.481 10.2454 120.953 10.2454C118.563 10.2454 116.265 10.598 114.056 11.2728C70.4928 24.5393 61.5191 162 61.5191 162H45.7918C45.7918 162 42.3161 119.338 30.2664 119.338C18.2168 119.338 14.626 162 14.626 162H0C0 68.492 48.4094 21.0589 84.1978 6.32746C97.2358 0.959894 112.351 0 117.521 0C136.882 0 157.475 4.52739 187.425 34.5366C232.652 79.854 232 162 232 162Z" fill="#F6A21E"/>
</g>
<defs>
<clipPath id="clip0_398_1911">
<rect width="232" height="162" fill="white"/>
</clipPath>
</defs>
</svg>
