<svg width="125" height="22" viewBox="0 0 125 22" fill="none" xmlns="http://www.w3.org/2000/svg">
<g id="NudgeBridge">
<path d="M12.9448 16.5896L3.61632 4.25926V13.0881C3.61632 14.7852 3.85167 15.623 4.32237 16.0311C4.6861 16.3319 5.92705 16.3319 6.29078 16.3748V16.5252H0.642312V16.3748C0.984643 16.3104 2.05443 16.4178 2.56793 16.0311C3.06003 15.6659 3.25259 14.7207 3.25259 13.0881V4.51704C3.25259 3.85111 3.06003 3.29259 2.58932 2.82C2.14001 2.36889 1.39116 2.24 0.578125 2.04667V1.85333H6.05543L13.5225 11.7563V5.35481C13.5225 3.70074 13.2658 2.82 12.7951 2.41185C12.4527 2.11111 11.169 2.04667 10.8053 2.0037V1.85333H16.5179V2.0037C16.1756 2.06815 15.0844 2.02519 14.5709 2.41185C14.1002 2.77704 13.8863 3.7437 13.8863 5.33333V16.5896H12.9448Z" fill="white"/>
<path d="M20.2996 16.8044C18.3526 16.8044 17.561 15.3222 17.561 13.303V8.14741C17.561 7.6963 17.3898 7.24519 17.0047 7.05185C16.7479 6.92296 16.32 6.88 15.9349 6.85852V6.70815L20.6206 6.45037L20.6847 6.5363V13.6681C20.6847 15.0644 21.1554 15.7089 21.8829 15.7089C22.9741 15.7089 23.4662 15.0215 23.6801 14.6133V8.12593C23.6801 7.6963 23.5304 7.26667 23.2094 7.07333C22.9955 6.94444 22.4606 6.90148 21.9685 6.88V6.70815L26.6755 6.45037L26.7611 6.5363V14.9141C26.7611 15.3867 26.9537 15.7733 27.296 15.9667C27.5528 16.117 28.0449 16.16 28.3658 16.1815V16.3104L23.8513 16.6111L23.7015 16.4607V15.1289H23.6374C22.9099 15.9452 22.0969 16.8044 20.2996 16.8044Z" fill="white"/>
<path d="M33.186 16.8259C30.7255 16.8259 28.9283 14.7207 28.9283 11.4341C28.9283 8.42667 31.1106 6.32148 33.5711 6.32148C34.7265 6.32148 35.6037 6.66518 35.9889 6.83704V2.45482C35.9889 1.98222 35.8391 1.46667 35.454 1.23037C35.0688 0.994074 34.1916 0.929631 33.5925 0.886667V0.757778L38.9201 0.5L39.0698 0.650371V14.8281C39.0698 15.3007 39.2838 15.623 39.6047 15.8593C39.8401 16.0311 40.482 16.16 40.8457 16.1815V16.3104L36.0958 16.6111L36.0103 16.5252V15.4726L35.9247 15.4511C35.454 15.9452 34.4912 16.8259 33.186 16.8259ZM34.3842 15.9022C35.0902 15.9022 35.5395 15.58 35.9889 15V8.23333C35.8177 7.58889 35.3898 6.6437 34.3414 6.6437C33.0149 6.6437 32.3302 8.79185 32.3302 11.6274C32.3302 13.9474 32.8009 15.9022 34.3842 15.9022Z" fill="white"/>
<path d="M45.6858 21.423C42.0485 21.423 40.6364 20.3704 40.6364 18.7807C40.6364 17.6207 41.7704 16.8044 44.0383 16.7185V16.6326C43.0113 16.3319 41.7276 15.7519 41.7276 14.5489C41.7276 13.3244 43.0113 12.8948 43.9955 12.7015V12.6156C42.1555 12.057 41.2141 10.9615 41.2141 9.58667C41.2141 7.30963 43.6532 6.32148 45.6644 6.32148C47.0337 6.32148 47.9537 6.60074 48.3175 6.81556C48.8524 5.44074 49.5798 4.58148 50.5212 4.58148C51.1203 4.58148 51.698 5.01111 51.698 5.72C51.698 6.40741 51.2487 6.92296 50.5854 6.92296C49.9435 6.92296 49.5584 6.55778 49.2375 5.97778C48.9593 6.08519 48.6812 6.49333 48.5528 6.85852V6.92296C49.5798 7.58889 50.0933 8.70592 50.0933 9.69407C50.0933 11.6274 48.0607 12.7874 45.857 12.7874H44.2095C43.9527 12.9807 43.7174 13.217 43.7174 13.4963C43.7174 14.3556 44.5518 14.2696 45.7072 14.3126L48.4886 14.42C49.8152 14.4844 51.484 15.5156 51.484 17.5563C51.484 19.7044 49.6868 21.423 45.6858 21.423ZM45.6644 12.5941C46.6914 12.5941 47.0551 11.477 47.0551 9.60815C47.0551 8.01852 46.7128 6.55778 45.643 6.55778C44.5946 6.55778 44.3379 7.84667 44.3379 9.5437C44.3379 11.6059 44.7872 12.5941 45.6644 12.5941ZM46.1779 21.1867C48.1677 21.1867 49.1305 19.8763 49.1305 18.3511C49.1305 17.8785 48.8738 17.277 48.1035 16.9978C47.7184 16.9333 45.6644 16.8904 44.1881 16.8904C43.7388 17.1267 43.1397 17.6852 43.1397 18.7807C43.1397 20.1985 44.1667 21.1867 46.1779 21.1867Z" fill="white"/>
<path d="M56.6867 16.8474C53.1778 16.8474 51.5517 14.4844 51.5517 11.52C51.5517 8.74889 53.3062 6.32148 56.5369 6.32148C59.8105 6.32148 60.9444 8.36222 60.9444 10.5963V10.7252H54.8895V11.3481C54.8895 13.883 55.6811 15.7733 57.7565 15.7733C59.0616 15.7733 60.1742 15.2363 60.9444 13.7326L61.1798 13.9044C60.3882 15.537 58.8263 16.8474 56.6867 16.8474ZM54.8895 10.4459L57.6281 10.403C57.6281 8.72741 57.6067 6.57926 56.3872 6.57926C55.403 6.57926 54.9536 8.2763 54.8895 10.4459Z" fill="white"/>
<path d="M61.4735 16.5252V16.3748C61.8372 16.3319 62.8214 16.2889 63.0996 16.1815C63.6131 15.9881 63.7414 15.6015 63.7414 15.1289V3.31407C63.7414 2.84148 63.6131 2.45482 63.0996 2.24C62.7144 2.06815 61.8158 2.04667 61.4735 2.0037V1.85333H69.1118C72.4709 1.85333 74.4607 2.73407 74.4607 5.11852C74.4607 7.15926 72.6206 8.19037 70.3527 8.53407V8.72741C72.7062 8.77037 75.2095 10.0593 75.2095 12.5511C75.2095 15.537 72.7918 16.5252 68.7694 16.5252H61.4735ZM67.2931 8.62H67.6996C69.7964 8.62 70.7164 7.15926 70.7164 5.35481C70.7164 3.48593 69.6894 2.08963 68.1489 2.08963C67.9136 2.08963 67.5499 2.11111 67.2931 2.13259V8.62ZM68.855 16.3104C70.3955 16.3104 71.4011 14.5059 71.4011 12.4652C71.4011 10.36 70.2671 8.89926 68.1275 8.89926C67.8922 8.89926 67.4643 8.94222 67.2931 8.9637V15.4081C67.4001 15.9022 67.9564 16.3104 68.855 16.3104Z" fill="white"/>
<path d="M75.996 16.5252V16.3748C76.3383 16.3533 76.6165 16.3533 76.8946 16.2459C77.3011 16.0956 77.4295 15.7733 77.4295 15.3007V8.23333C77.4295 7.82518 77.1941 7.33111 76.8732 7.09481C76.6379 6.92296 76.1672 6.85852 75.8034 6.83704V6.70815L80.4463 6.45037L80.5319 6.5363V8.04H80.5747C81.4305 6.92296 82.3077 6.36444 83.3347 6.36444C84.4045 6.36444 85.1961 7.13778 85.1961 8.31926C85.1961 9.32889 84.5329 10.1667 83.5487 10.1667C82.6287 10.1667 81.9654 9.65111 81.9654 8.77037C81.9654 8.16889 82.2863 7.58889 82.3505 7.33111C81.4305 7.35259 80.703 8.16889 80.5319 8.46963V15.2148C80.5319 15.6874 80.7458 16.0096 81.1096 16.16C81.4519 16.3104 82.2007 16.3533 82.5217 16.3748V16.5252H75.996Z" fill="white"/>
<path d="M88.0958 4.3237C87.0474 4.3237 86.2129 3.52889 86.2129 2.4763C86.2129 1.40222 87.0474 0.62889 88.0958 0.62889C89.1441 0.62889 89.9572 1.4237 89.9572 2.4763C89.9572 3.52889 89.1441 4.3237 88.0958 4.3237ZM85.3143 16.5252V16.3748C85.678 16.3533 85.9562 16.3533 86.2343 16.2459C86.6195 16.0956 86.7906 15.7519 86.7906 15.3007V8.19037C86.7906 7.71778 86.5981 7.35259 86.2557 7.1163C85.999 6.94445 85.3785 6.85852 84.9934 6.83704V6.70815L89.8074 6.45037L89.893 6.5363V15.3222C89.893 15.7733 89.9786 16.0311 90.3637 16.2244C90.6632 16.3748 91.1126 16.3748 91.3907 16.3748V16.5252H85.3143Z" fill="white"/>
<path d="M96.2449 16.8259C93.7843 16.8259 91.9871 14.7207 91.9871 11.4341C91.9871 8.42667 94.1695 6.32148 96.63 6.32148C97.7854 6.32148 98.6626 6.66518 99.0477 6.83704V2.45482C99.0477 1.98222 98.8979 1.46667 98.5128 1.23037C98.1277 0.994074 97.2505 0.929631 96.6514 0.886667V0.757778L101.979 0.5L102.129 0.650371V14.8281C102.129 15.3007 102.343 15.623 102.664 15.8593C102.899 16.0311 103.541 16.16 103.905 16.1815V16.3104L99.1547 16.6111L99.0691 16.5252V15.4726L98.9835 15.4511C98.5128 15.9452 97.55 16.8259 96.2449 16.8259ZM97.443 15.9022C98.1491 15.9022 98.5984 15.58 99.0477 15V8.23333C98.8765 7.58889 98.4486 6.6437 97.4002 6.6437C96.0737 6.6437 95.389 8.79185 95.389 11.6274C95.389 13.9474 95.8597 15.9022 97.443 15.9022Z" fill="white"/>
<path d="M108.745 21.423C105.107 21.423 103.695 20.3704 103.695 18.7807C103.695 17.6207 104.829 16.8044 107.097 16.7185V16.6326C106.07 16.3319 104.786 15.7519 104.786 14.5489C104.786 13.3244 106.07 12.8948 107.054 12.7015V12.6156C105.214 12.057 104.273 10.9615 104.273 9.58667C104.273 7.30963 106.712 6.32148 108.723 6.32148C110.093 6.32148 111.013 6.60074 111.376 6.81556C111.911 5.44074 112.639 4.58148 113.58 4.58148C114.179 4.58148 114.757 5.01111 114.757 5.72C114.757 6.40741 114.308 6.92296 113.644 6.92296C113.002 6.92296 112.617 6.55778 112.296 5.97778C112.018 6.08519 111.74 6.49333 111.612 6.85852V6.92296C112.639 7.58889 113.152 8.70592 113.152 9.69407C113.152 11.6274 111.12 12.7874 108.916 12.7874H107.268C107.012 12.9807 106.776 13.217 106.776 13.4963C106.776 14.3556 107.611 14.2696 108.766 14.3126L111.547 14.42C112.874 14.4844 114.543 15.5156 114.543 17.5563C114.543 19.7044 112.746 21.423 108.745 21.423ZM108.723 12.5941C109.75 12.5941 110.114 11.477 110.114 9.60815C110.114 8.01852 109.772 6.55778 108.702 6.55778C107.653 6.55778 107.397 7.84667 107.397 9.5437C107.397 11.6059 107.846 12.5941 108.723 12.5941ZM109.237 21.1867C111.227 21.1867 112.189 19.8763 112.189 18.3511C112.189 17.8785 111.933 17.277 111.162 16.9978C110.777 16.9333 108.723 16.8904 107.247 16.8904C106.798 17.1267 106.199 17.6852 106.199 18.7807C106.199 20.1985 107.226 21.1867 109.237 21.1867Z" fill="white"/>
<path d="M119.746 16.8474C116.237 16.8474 114.611 14.4844 114.611 11.52C114.611 8.74889 116.365 6.32148 119.596 6.32148C122.869 6.32148 124.003 8.36222 124.003 10.5963V10.7252H117.948V11.3481C117.948 13.883 118.74 15.7733 120.815 15.7733C122.12 15.7733 123.233 15.2363 124.003 13.7326L124.239 13.9044C123.447 15.537 121.885 16.8474 119.746 16.8474ZM117.948 10.4459L120.687 10.403C120.687 8.72741 120.666 6.57926 119.446 6.57926C118.462 6.57926 118.012 8.2763 117.948 10.4459Z" fill="white"/>
</g>
</svg>
