<svg width="349" height="350" viewBox="0 0 349 350" fill="none" xmlns="http://www.w3.org/2000/svg">
<path d="M61.72 162V161.58C62.74 161.46 65.5 161.34 66.28 161.04C67.72 160.5 68.08 159.42 68.08 158.1V125.1C68.08 123.78 67.72 122.7 66.28 122.1C65.2 121.62 62.68 121.56 61.72 121.44V121.02H87.94C97.36 121.02 102.94 123.48 102.94 130.14C102.94 135.84 97.54 138.54 90.22 139.68V140.22C98.2 141.06 105.04 143.94 105.04 150.9C105.04 159.24 98.26 162 86.98 162H61.72ZM80.44 139.86H82.18C88.06 139.86 90.04 135.84 90.04 130.8C90.04 125.58 87.16 121.68 82.84 121.68C82.18 121.68 81.16 121.74 80.44 121.8V139.86ZM84.82 161.28C89.14 161.28 91.96 156.36 91.96 150.66C91.96 144.78 89.38 140.7 83.38 140.7C82.72 140.7 80.92 140.82 80.44 140.88V158.76C80.74 160.14 81.82 161.28 84.82 161.28ZM125.426 162.9C117.326 162.9 108.866 158.22 108.866 147.84C108.866 138.06 116.486 132.9 125.666 132.9C135.026 132.9 142.346 138.06 142.346 147.66C142.346 157.2 135.446 162.9 125.426 162.9ZM125.666 162.24C130.346 162.24 130.886 154.86 130.886 147.6C130.886 140.7 130.166 133.56 125.726 133.56C121.046 133.56 120.386 141.12 120.386 147.48C120.386 154.68 120.806 162.24 125.666 162.24ZM154.871 162.9C148.271 162.9 145.811 160.02 145.811 156.06C145.811 151.62 148.451 149.82 151.451 148.74C155.051 147.42 161.951 146.22 163.451 145.08V139.62C163.451 137.58 163.451 133.56 160.031 133.56C158.531 133.56 157.511 133.98 156.971 134.46C157.151 135.54 158.171 138.24 158.171 140.28C158.171 141.72 156.191 144.06 152.711 144.06C149.291 144.06 147.971 141.66 147.971 139.5C147.971 135.42 155.351 132.9 160.511 132.9C166.931 132.9 174.011 133.92 174.011 141.9C174.011 147.36 173.651 154.68 173.651 156.66C173.651 158.1 174.311 159.48 175.811 159.48C177.611 159.48 178.691 156.72 178.751 154.02H179.651C179.531 159.06 176.831 162.78 171.431 162.78C166.451 162.78 164.831 161.1 163.631 158.88H163.451C161.471 160.98 159.551 162.9 154.871 162.9ZM159.971 159.72C161.531 159.72 162.551 158.94 163.271 157.86L163.511 145.92C159.371 147.54 156.731 149.34 156.731 154.38C156.731 157.92 157.931 159.72 159.971 159.72ZM180.518 162V161.58C181.478 161.52 182.318 161.46 183.098 161.22C184.178 160.86 184.538 160.2 184.538 158.88V138.42C184.538 136.86 184.058 135.78 183.158 135.18C182.438 134.7 181.058 134.4 180.098 134.34V133.98L194.798 133.26L195.038 133.5V137.82H195.158C197.558 134.7 200.018 133.02 202.898 133.02C205.898 133.02 208.118 135.18 208.118 138.48C208.118 141.3 206.258 143.64 203.498 143.64C200.918 143.64 199.058 142.2 199.058 139.74C199.058 138.66 199.778 136.74 199.958 136.02C197.378 136.08 195.518 138.06 195.038 138.9V158.58C195.038 159.9 195.458 160.68 196.238 161.04C197.018 161.4 199.718 161.46 200.558 161.58V162H180.518ZM223.3 162.72C215.62 162.72 209.98 157.26 209.98 148.08C209.98 139.68 216.76 132.9 224.98 132.9C228.22 132.9 230.08 133.86 231.16 134.34V122.88C231.16 121.56 230.62 120.06 229.66 119.46C228.58 118.74 226.12 118.5 224.44 118.38V117.96L241.36 117.24L241.6 117.48V157.2C241.6 158.52 242.2 159.66 243.1 160.2C243.82 160.62 245.56 160.92 246.58 160.98V161.4L231.4 162.24L231.16 162V159.12L230.92 159.06C228.94 161.16 226.96 162.72 223.3 162.72ZM226.9 159.78C229 159.78 229.9 159.24 231.16 157.62V137.82C230.68 136.02 229.48 133.8 226.54 133.8C223.06 133.8 221.32 140.1 221.32 148.02C221.32 153.72 222.46 159.78 226.9 159.78ZM58.84 227V226.58C59.92 226.46 61.18 226.34 62.2 225.68C63.7 224.72 64.78 222.86 65.62 220.82C67.48 216.2 77.38 190.58 79.42 185.36H84.88C87.7 192.44 98.02 220.04 99.1 222.62C99.58 223.82 100.18 224.9 101.56 225.74C102.64 226.4 103.78 226.46 104.8 226.58V227H80.26V226.58C82.3 226.4 86.5 225.98 86.5 224.48C86.5 224 86.38 223.52 86.26 223.22L82.48 212.42H70.12L67.42 220.28C66.88 221.84 66.64 223.22 66.76 224C67.06 226.1 71.8 226.4 73.84 226.58V227H58.84ZM70.6 211.28H82.12L76.3 196.16L70.6 211.28ZM118.86 227.72C111.18 227.72 105.54 222.26 105.54 213.08C105.54 204.68 112.32 197.9 120.54 197.9C123.78 197.9 125.64 198.86 126.72 199.34V187.88C126.72 186.56 126.18 185.06 125.22 184.46C124.14 183.74 121.68 183.5 120 183.38V182.96L136.92 182.24L137.16 182.48V222.2C137.16 223.52 137.76 224.66 138.66 225.2C139.38 225.62 141.12 225.92 142.14 225.98V226.4L126.96 227.24L126.72 227V224.12L126.48 224.06C124.5 226.16 122.52 227.72 118.86 227.72ZM122.46 224.78C124.56 224.78 125.46 224.24 126.72 222.62V202.82C126.24 201.02 125.04 198.8 122.1 198.8C118.62 198.8 116.88 205.1 116.88 213.02C116.88 218.72 118.02 224.78 122.46 224.78ZM155.76 227.36C153.78 222.56 146.88 206.18 144.96 201.98C144.18 200.24 142.98 199.28 141.12 199.04V198.68H160.14V199.04C158.82 199.1 156.48 199.46 156.48 200.42C156.48 200.6 156.6 201.02 156.84 201.68C157.62 203.72 161.7 214.1 163.32 217.64C164.16 215.54 167.76 206 168.66 203.66C168.96 202.88 169.32 201.8 169.26 200.96C169.14 199.64 166.56 199.34 164.4 199.04V198.68H174.54V199.04C172.5 199.4 171.42 199.82 170.4 202.22C169.38 204.68 164.58 216.74 163.38 219.98C162.48 222.38 161.64 224.78 160.86 227.36H155.76ZM183.18 193.76C179.76 193.76 177.06 191.18 177.06 187.76C177.06 184.28 179.76 181.76 183.18 181.76C186.6 181.76 189.24 184.34 189.24 187.76C189.24 191.18 186.6 193.76 183.18 193.76ZM174.54 227V226.58C175.56 226.52 176.34 226.52 177.12 226.22C178.2 225.8 178.68 224.84 178.68 223.58V203.24C178.68 201.92 178.14 200.9 177.18 200.24C176.46 199.76 174.72 199.4 173.64 199.34V198.98L188.94 198.26L189.18 198.5V223.4C189.18 224.66 189.72 225.56 190.8 226.1C191.64 226.52 192.42 226.46 193.38 226.58V227H174.54ZM207.189 227.9C203.349 227.9 199.089 226.28 197.889 225.32L196.209 227.36H195.789L195.489 216.98H195.909C198.309 221.6 202.569 227.24 207.489 227.24C211.269 227.24 212.769 225.38 212.769 222.92C212.769 220.16 210.249 218.9 204.129 216.8C200.109 215.42 196.269 213.14 196.269 207.56C196.269 202.16 200.829 198.5 207.489 198.5C211.449 198.5 214.989 199.4 216.669 200.12L218.049 198.44H218.469L218.829 207.92H218.409C214.629 201.56 211.149 199.16 207.789 199.16C205.569 199.16 203.769 200.66 203.769 202.88C203.769 206 207.489 207.26 212.169 208.82C217.449 210.56 220.209 213.26 220.209 218.18C220.209 224.84 213.429 227.9 207.189 227.9ZM240.206 227.9C232.106 227.9 223.646 223.22 223.646 212.84C223.646 203.06 231.266 197.9 240.446 197.9C249.806 197.9 257.126 203.06 257.126 212.66C257.126 222.2 250.226 227.9 240.206 227.9ZM240.446 227.24C245.126 227.24 245.666 219.86 245.666 212.6C245.666 205.7 244.946 198.56 240.506 198.56C235.826 198.56 235.166 206.12 235.166 212.48C235.166 219.68 235.586 227.24 240.446 227.24ZM260.231 227V226.58C261.191 226.52 262.031 226.46 262.811 226.22C263.891 225.86 264.251 225.2 264.251 223.88V203.42C264.251 201.86 263.771 200.78 262.871 200.18C262.151 199.7 260.771 199.4 259.811 199.34V198.98L274.511 198.26L274.751 198.5V202.82H274.871C277.271 199.7 279.731 198.02 282.611 198.02C285.611 198.02 287.831 200.18 287.831 203.48C287.831 206.3 285.971 208.64 283.211 208.64C280.631 208.64 278.771 207.2 278.771 204.74C278.771 203.66 279.491 201.74 279.671 201.02C277.091 201.08 275.231 203.06 274.751 203.9V223.58C274.751 224.9 275.171 225.68 275.951 226.04C276.731 226.4 279.431 226.46 280.271 226.58V227H260.231Z" fill="#191919"/>
<rect x="2.5" y="2.5" width="344" height="345" stroke="#191919" stroke-width="5"/>
</svg>
