<svg width="350" height="350" viewBox="0 0 350 350" fill="none" xmlns="http://www.w3.org/2000/svg">
<path d="M58.04 162V161.58C59.06 161.46 62.06 161.34 62.78 161.04C64.22 160.44 64.58 159.36 64.58 158.04V125.04C64.58 123.72 64.28 122.7 62.78 122.1C61.64 121.62 59.06 121.56 58.04 121.44V121.02H83.12V121.44C82.04 121.56 79.94 121.44 78.86 121.8C77.42 122.28 77 123.42 77 124.74V156.12C77 160.8 77.12 161.28 82.46 161.28C85.46 161.28 87.08 161.16 88.46 159.78C90.5 157.74 95.42 150.06 97.46 146.94H97.94L97.16 162H58.04ZM118.65 162.9C108.81 162.9 101.85 157.5 101.85 148.02C101.85 139.08 108.69 132.9 117.75 132.9C126.93 132.9 130.59 139.2 130.59 145.44V145.8H113.61V147.54C113.61 154.62 115.83 159.9 121.65 159.9C125.31 159.9 128.43 158.4 130.59 154.2L131.25 154.68C129.03 159.24 124.65 162.9 118.65 162.9ZM113.61 145.02L120.69 144.9C120.69 140.22 120.75 133.62 117.33 133.62C114.57 133.62 113.79 138.96 113.61 145.02ZM142.816 162.9C136.216 162.9 133.756 160.02 133.756 156.06C133.756 151.62 136.396 149.82 139.396 148.74C142.996 147.42 149.896 146.22 151.396 145.08V139.62C151.396 137.58 151.396 133.56 147.976 133.56C146.476 133.56 145.456 133.98 144.916 134.46C145.096 135.54 146.116 138.24 146.116 140.28C146.116 141.72 144.136 144.06 140.656 144.06C137.236 144.06 135.916 141.66 135.916 139.5C135.916 135.42 143.296 132.9 148.456 132.9C154.876 132.9 161.956 133.92 161.956 141.9C161.956 147.36 161.596 154.68 161.596 156.66C161.596 158.1 162.256 159.48 163.756 159.48C165.556 159.48 166.636 156.72 166.696 154.02H167.596C167.476 159.06 164.776 162.78 159.376 162.78C154.396 162.78 152.776 161.1 151.576 158.88H151.396C149.416 160.98 147.496 162.9 142.816 162.9ZM147.916 159.72C149.476 159.72 150.496 158.94 151.216 157.86L151.456 145.92C147.316 147.54 144.676 149.34 144.676 154.38C144.676 157.92 145.876 159.72 147.916 159.72ZM183.209 162.72C175.529 162.72 169.889 157.26 169.889 148.08C169.889 139.68 176.669 132.9 184.889 132.9C188.129 132.9 189.989 133.86 191.069 134.34V122.88C191.069 121.56 190.529 120.06 189.569 119.46C188.489 118.74 186.029 118.5 184.349 118.38V117.96L201.269 117.24L201.509 117.48V157.2C201.509 158.52 202.109 159.66 203.009 160.2C203.729 160.62 205.469 160.92 206.489 160.98V161.4L191.309 162.24L191.069 162V159.12L190.829 159.06C188.849 161.16 186.869 162.72 183.209 162.72ZM186.809 159.78C188.909 159.78 189.809 159.24 191.069 157.62V137.82C190.589 136.02 189.389 133.8 186.449 133.8C182.969 133.8 181.229 140.1 181.229 148.02C181.229 153.72 182.369 159.78 186.809 159.78ZM224.789 162.9C214.949 162.9 207.989 157.5 207.989 148.02C207.989 139.08 214.829 132.9 223.889 132.9C233.069 132.9 236.729 139.2 236.729 145.44V145.8H219.749V147.54C219.749 154.62 221.969 159.9 227.789 159.9C231.449 159.9 234.569 158.4 236.729 154.2L237.389 154.68C235.169 159.24 230.789 162.9 224.789 162.9ZM219.749 145.02L226.829 144.9C226.829 140.22 226.889 133.62 223.469 133.62C220.709 133.62 219.929 138.96 219.749 145.02ZM239.535 162V161.58C240.495 161.52 241.335 161.46 242.115 161.22C243.195 160.86 243.555 160.2 243.555 158.88V138.42C243.555 136.86 243.075 135.78 242.175 135.18C241.455 134.7 240.075 134.4 239.115 134.34V133.98L253.815 133.26L254.055 133.5V137.82H254.175C256.575 134.7 259.035 133.02 261.915 133.02C264.915 133.02 267.135 135.18 267.135 138.48C267.135 141.3 265.275 143.64 262.515 143.64C259.935 143.64 258.075 142.2 258.075 139.74C258.075 138.66 258.795 136.74 258.975 136.02C256.395 136.08 254.535 138.06 254.055 138.9V158.58C254.055 159.9 254.475 160.68 255.255 161.04C256.035 161.4 258.735 161.46 259.575 161.58V162H239.535ZM269.703 150.66V142.98H289.863V150.66H269.703ZM70.1 227.9C66.26 227.9 62 226.28 60.8 225.32L59.12 227.36H58.7L58.4 216.98H58.82C61.22 221.6 65.48 227.24 70.4 227.24C74.18 227.24 75.68 225.38 75.68 222.92C75.68 220.16 73.16 218.9 67.04 216.8C63.02 215.42 59.18 213.14 59.18 207.56C59.18 202.16 63.74 198.5 70.4 198.5C74.36 198.5 77.9 199.4 79.58 200.12L80.96 198.44H81.38L81.74 207.92H81.32C77.54 201.56 74.06 199.16 70.7 199.16C68.48 199.16 66.68 200.66 66.68 202.88C66.68 206 70.4 207.26 75.08 208.82C80.36 210.56 83.12 213.26 83.12 218.18C83.12 224.84 76.34 227.9 70.1 227.9ZM85.4244 227V226.58C86.3844 226.52 87.2244 226.46 88.0044 226.22C89.0844 225.86 89.4444 225.2 89.4444 223.88V187.76C89.4444 186.44 88.9644 185.12 87.9444 184.34C87.0444 183.68 85.0644 183.44 83.9844 183.38V182.96L99.7044 182.24L99.9444 182.48V202.82H100.124C102.284 200.54 104.264 197.9 109.304 197.9C115.604 197.9 119.324 201.62 119.324 207.32V223.64C119.324 224.96 119.444 225.68 120.584 226.1C121.424 226.4 122.204 226.46 123.284 226.58V227H105.584V226.58C106.364 226.52 107.204 226.4 107.804 226.16C108.644 225.86 108.704 224.84 108.704 223.52V207.14C108.704 203 106.844 201.62 104.744 201.62C102.044 201.62 100.604 202.94 99.9444 204.2V223.58C99.9444 224.9 100.064 225.68 100.844 226.04C101.624 226.4 102.404 226.46 103.244 226.58V227H85.4244ZM134.652 193.76C131.232 193.76 128.532 191.18 128.532 187.76C128.532 184.28 131.232 181.76 134.652 181.76C138.072 181.76 140.712 184.34 140.712 187.76C140.712 191.18 138.072 193.76 134.652 193.76ZM126.012 227V226.58C127.032 226.52 127.812 226.52 128.592 226.22C129.672 225.8 130.152 224.84 130.152 223.58V203.24C130.152 201.92 129.612 200.9 128.652 200.24C127.932 199.76 126.192 199.4 125.112 199.34V198.98L140.412 198.26L140.652 198.5V223.4C140.652 224.66 141.192 225.56 142.272 226.1C143.112 226.52 143.892 226.46 144.852 226.58V227H126.012ZM145.521 240.56V240.14C146.781 240.08 148.101 240.02 148.821 239.78C149.961 239.42 150.321 238.28 150.321 237.02V203.42C150.321 201.86 149.841 200.78 148.941 200.18C148.221 199.7 146.841 199.4 145.881 199.34V198.98L160.581 198.26L160.821 198.5V201.74L161.061 201.8C162.381 200.3 165.261 197.9 169.161 197.9C175.941 197.9 181.941 201.92 181.941 212.42C181.941 222.44 174.741 227.72 167.481 227.72C164.181 227.72 162.381 226.88 161.001 225.86H160.761V236.72C160.761 238.22 161.361 239.06 162.441 239.48C163.941 240.02 165.441 240.02 166.821 240.14V240.56H145.521ZM165.501 226.76C169.461 226.76 170.601 220.94 170.601 213.14C170.601 207.02 169.641 200.78 165.201 200.78C163.041 200.78 161.961 201.62 160.761 203.12V222.44C161.361 224.3 162.501 226.76 165.501 226.76Z" fill="#191919"/>
<rect x="2.5" y="2.5" width="345" height="345" stroke="#191919" stroke-width="5"/>
</svg>
