<svg width="350" height="350" viewBox="0 0 350 350" fill="none" xmlns="http://www.w3.org/2000/svg">
<path d="M49.76 194.5V194.08C50.78 193.96 53.78 193.96 55.16 192.94C56.54 191.92 57.08 189.34 57.08 184.78V160.36C57.08 157.9 56.48 156.28 55.28 155.32C53.9 154.18 51.62 154.06 50.06 153.94V153.52H68.9L79.94 180.46L88.46 158.62C89.3 156.52 89.66 154.18 89.72 153.52H108.98V153.94C107.96 154.06 105.38 154.12 104.3 154.48C102.86 154.96 102.5 156.1 102.5 157.42V190.6C102.5 191.92 102.98 192.88 104.3 193.54C104.96 193.9 108.02 193.96 109.04 194.08V194.5H83.48V194.08C84.5 193.96 87.44 194.08 88.28 193.66C89.66 192.94 90.2 191.98 90.2 190.6V157.3L75.8 193.84H71.78C71.42 192.58 69.62 187.18 68.96 185.5L58.16 158.38V184.72C58.16 189.4 58.46 191.74 59.84 192.88C61.16 193.96 64.88 193.96 65.96 194.08V194.5H49.76ZM127.498 195.4C117.658 195.4 110.698 190 110.698 180.52C110.698 171.58 117.538 165.4 126.598 165.4C135.778 165.4 139.438 171.7 139.438 177.94V178.3H122.458V180.04C122.458 187.12 124.678 192.4 130.498 192.4C134.158 192.4 137.278 190.9 139.438 186.7L140.098 187.18C137.878 191.74 133.498 195.4 127.498 195.4ZM122.458 177.52L129.538 177.4C129.538 172.72 129.598 166.12 126.178 166.12C123.418 166.12 122.638 171.46 122.458 177.52ZM142.244 194.5V194.08C143.204 194.02 144.044 193.96 144.824 193.72C145.904 193.36 146.264 192.7 146.264 191.38V170.92C146.264 169.36 145.784 168.28 144.884 167.68C144.164 167.2 142.784 166.9 141.824 166.84V166.48L156.464 165.76L156.704 166V170.32H156.884C159.584 167.5 161.564 165.4 166.604 165.4C170.384 165.4 174.044 167.44 175.304 170.68C176.864 169.12 179.984 165.4 185.144 165.4C190.544 165.4 194.804 169.24 194.804 174.82V190.96C194.804 192.28 194.864 193 195.944 193.54C196.664 193.9 197.684 193.96 198.704 194.08V194.5H181.124V194.08C181.964 194.02 182.744 193.9 183.344 193.6C184.124 193.18 184.184 192.28 184.184 190.96V174.7C184.184 170.74 182.804 169.12 180.404 169.12C177.884 169.12 176.324 170.2 175.724 171.46V190.84C175.724 192.16 175.904 193 176.744 193.54C177.344 193.9 178.184 194.02 178.904 194.08V194.5H162.164V194.08C162.944 194.02 163.724 193.96 164.324 193.6C165.104 193.18 165.164 192.28 165.164 190.96V174.7C165.164 170.74 163.904 169.12 161.624 169.12C158.684 169.12 157.364 170.5 156.704 171.7V191.08C156.704 192.4 156.824 193.18 157.604 193.54C158.384 193.9 159.164 193.96 160.004 194.08V194.5H142.244ZM204.332 195.46L203.732 195.22C203.912 192.82 204.092 188.68 204.092 184.36V155.2C204.092 153.88 203.432 152.44 202.472 151.78C201.752 151.3 199.652 150.94 198.632 150.88V150.46L214.352 149.74L214.592 149.98V169.18L214.832 169.24C216.152 167.74 218.792 165.4 222.452 165.4C231.392 165.4 236.072 171.34 236.072 180.46C236.072 188.92 229.832 195.4 220.532 195.4C214.412 195.4 210.092 193.06 208.532 191.8L204.332 195.46ZM219.212 194.74C223.112 194.74 224.672 188.56 224.672 180.88C224.672 175 223.532 168.34 218.972 168.34C217.052 168.34 215.852 168.94 214.592 170.44V190.3C215.132 192.16 216.332 194.74 219.212 194.74ZM257.133 195.4C247.293 195.4 240.333 190 240.333 180.52C240.333 171.58 247.173 165.4 256.233 165.4C265.413 165.4 269.073 171.7 269.073 177.94V178.3H252.093V180.04C252.093 187.12 254.313 192.4 260.133 192.4C263.793 192.4 266.913 190.9 269.073 186.7L269.733 187.18C267.513 191.74 263.133 195.4 257.133 195.4ZM252.093 177.52L259.173 177.4C259.173 172.72 259.233 166.12 255.813 166.12C253.053 166.12 252.273 171.46 252.093 177.52ZM271.879 194.5V194.08C272.839 194.02 273.679 193.96 274.459 193.72C275.539 193.36 275.899 192.7 275.899 191.38V170.92C275.899 169.36 275.419 168.28 274.519 167.68C273.799 167.2 272.419 166.9 271.459 166.84V166.48L286.159 165.76L286.399 166V170.32H286.519C288.919 167.2 291.379 165.52 294.259 165.52C297.259 165.52 299.479 167.68 299.479 170.98C299.479 173.8 297.619 176.14 294.859 176.14C292.279 176.14 290.419 174.7 290.419 172.24C290.419 171.16 291.139 169.24 291.319 168.52C288.739 168.58 286.879 170.56 286.399 171.4V191.08C286.399 192.4 286.819 193.18 287.599 193.54C288.379 193.9 291.079 193.96 291.919 194.08V194.5H271.879Z" fill="#191919"/>
<rect x="2.5" y="2.5" width="345" height="345" stroke="#191919" stroke-width="5"/>
</svg>
